Arimo-Italic.ufo
<glyph name="exclam" format="2">
  <advance width="569"/>
  <unicode hex="0021"/>
  <note>
exclam
</note>
  <outline>
    <contour>
      <point x="329" y="397" type="line"/>
      <point x="549" y="1409" type="line"/>
      <point x="353" y="1409" type="line"/>
      <point x="181" y="397" type="line"/>
    </contour>
    <contour>
      <point x="77" y="0" type="line"/>
      <point x="271" y="0" type="line"/>
      <point x="311" y="201" type="line"/>
      <point x="117" y="201" type="line"/>
    </contour>
  </outline>
</glyph>
<glyph name="dollar" format="2">
  <advance width="1139"/>
  <unicode hex="0024"/>
  <note>
dollar
</note>
  <outline>
    <contour>
      <point x="1072" y="425" type="qcurve" smooth="yes"/>
      <point x="1072" y="558"/>
      <point x="886" y="742"/>
      <point x="690" y="795" type="qcurve"/>
      <point x="776" y="1236" type="line"/>
      <point x="969" y="1209"/>
      <point x="1014" y="1042" type="qcurve"/>
      <point x="1170" y="1087" type="line"/>
      <point x="1144" y="1210"/>
      <point x="959" y="1360"/>
      <point x="803" y="1379" type="qcurve"/>
      <point x="830" y="1516" type="line"/>
      <point x="716" y="1516" type="line"/>
      <point x="691" y="1385" type="line"/>
      <point x="544" y="1384"/>
      <point x="311" y="1295"/>
      <point x="181" y="1130"/>
      <point x="181" y="1018" type="qcurve" smooth="yes"/>
      <point x="181" y="924"/>
      <point x="257" y="795"/>
      <point x="402" y="704"/>
      <point x="551" y="663" type="qcurve"/>
      <point x="455" y="170" type="line"/>
      <point x="321" y="180"/>
      <point x="176" y="298"/>
      <point x="151" y="413" type="qcurve"/>
      <point x="-12" y="376" type="line"/>
      <point x="15" y="217"/>
      <point x="226" y="37"/>
      <point x="427" y="23" type="qcurve"/>
      <point x="395" y="-140" type="line"/>
      <point x="509" y="-140" type="line"/>
      <point x="540" y="21" type="line"/>
      <point x="797" y="29"/>
      <point x="1072" y="240"/>
    </contour>
    <contour>
      <point x="887" y="413" type="qcurve" smooth="yes"/>
      <point x="887" y="186"/>
      <point x="569" y="169" type="qcurve"/>
      <point x="659" y="632" type="line"/>
      <point x="786" y="592"/>
      <point x="887" y="491"/>
    </contour>
    <contour>
      <point x="363" y="1018" type="qcurve" smooth="yes"/>
      <point x="363" y="1121"/>
      <point x="518" y="1235"/>
      <point x="663" y="1240" type="qcurve"/>
      <point x="582" y="825" type="line"/>
      <point x="453" y="865"/>
      <point x="363" y="951"/>
    </contour>
  </outline>
</glyph>
<glyph name="percent" format="2">
  <advance width="1821"/>
  <unicode hex="0025"/>
  <note>
percent
</note>
  <outline>
    <contour>
      <point x="425" y="0" type="line"/>
      <point x="1613" y="1409" type="line"/>
      <point x="1446" y="1409" type="line"/>
      <point x="260" y="0" type="line"/>
    </contour>
    <contour>
      <point x="545" y="1421" type="qcurve" smooth="yes"/>
      <point x="415" y="1421"/>
      <point x="239" y="1273"/>
      <point x="146" y="988"/>
      <point x="146" y="841" type="qcurve" smooth="yes"/>
      <point x="146" y="689"/>
      <point x="282" y="524"/>
      <point x="406" y="524" type="qcurve" smooth="yes"/>
      <point x="495" y="524"/>
      <point x="640" y="609"/>
      <point x="750" y="776"/>
      <point x="804" y="1007"/>
      <point x="804" y="1113" type="qcurve" smooth="yes"/>
      <point x="804" y="1263"/>
      <point x="670" y="1421"/>
    </contour>
    <contour>
      <point x="544" y="1313" type="qcurve" smooth="yes"/>
      <point x="665" y="1313"/>
      <point x="665" y="1131" type="qcurve" smooth="yes"/>
      <point x="665" y="1035"/>
      <point x="605" y="771"/>
      <point x="495" y="637"/>
      <point x="410" y="637" type="qcurve" smooth="yes"/>
      <point x="284" y="637"/>
      <point x="284" y="827" type="qcurve" smooth="yes"/>
      <point x="284" y="904"/>
      <point x="327" y="1118"/>
      <point x="391" y="1251"/>
      <point x="477" y="1313"/>
    </contour>
    <contour>
      <point x="1474" y="885" type="qcurve" smooth="yes"/>
      <point x="1344" y="885"/>
      <point x="1168" y="737"/>
      <point x="1075" y="452"/>
      <point x="1075" y="305" type="qcurve" smooth="yes"/>
      <point x="1075" y="153"/>
      <point x="1211" y="-12"/>
      <point x="1335" y="-12" type="qcurve" smooth="yes"/>
      <point x="1424" y="-12"/>
      <point x="1569" y="73"/>
      <point x="1679" y="240"/>
      <point x="1733" y="471"/>
      <point x="1733" y="577" type="qcurve" smooth="yes"/>
      <point x="1733" y="727"/>
      <point x="1599" y="885"/>
    </contour>
    <contour>
      <point x="1473" y="777" type="qcurve" smooth="yes"/>
      <point x="1594" y="777"/>
      <point x="1594" y="595" type="qcurve" smooth="yes"/>
      <point x="1594" y="499"/>
      <point x="1534" y="235"/>
      <point x="1424" y="101"/>
      <point x="1339" y="101" type="qcurve" smooth="yes"/>
      <point x="1213" y="101"/>
      <point x="1213" y="291" type="qcurve" smooth="yes"/>
      <point x="1213" y="368"/>
      <point x="1256" y="582"/>
      <point x="1320" y="715"/>
      <point x="1406" y="777"/>
    </contour>
  </outline>
</glyph>
<glyph name="ampersand" format="2">
  <advance width="1366"/>
  <unicode hex="0026"/>
  <note>
ampersand
</note>
  <outline>
    <contour>
      <point x="1248" y="684" type="qcurve"/>
      <point x="1116" y="739" type="line"/>
      <point x="1038" y="571"/>
      <point x="924" y="383"/>
      <point x="864" y="315" type="qcurve"/>
      <point x="722" y="510"/>
      <point x="646" y="734" type="qcurve"/>
      <point x="771" y="784" type="line" smooth="yes"/>
      <point x="981" y="867"/>
      <point x="1144" y="1039"/>
      <point x="1144" y="1155" type="qcurve" smooth="yes"/>
      <point x="1144" y="1273"/>
      <point x="971" y="1417"/>
      <point x="833" y="1417" type="qcurve" smooth="yes"/>
      <point x="651" y="1417"/>
      <point x="434" y="1209"/>
      <point x="434" y="1036" type="qcurve" smooth="yes"/>
      <point x="434" y="925"/>
      <point x="462" y="806" type="qcurve"/>
      <point x="219" y="713"/>
      <point x="33" y="508"/>
      <point x="33" y="351" type="qcurve" smooth="yes"/>
      <point x="33" y="181"/>
      <point x="251" y="-20"/>
      <point x="440" y="-20" type="qcurve" smooth="yes"/>
      <point x="669" y="-20"/>
      <point x="847" y="110" type="qcurve"/>
      <point x="969" y="-12"/>
      <point x="1118" y="-12" type="qcurve" smooth="yes"/>
      <point x="1183" y="-12"/>
      <point x="1243" y="10" type="qcurve"/>
      <point x="1256" y="145" type="line"/>
      <point x="1204" y="129"/>
      <point x="1144" y="129" type="qcurve" smooth="yes"/>
      <point x="1098" y="129"/>
      <point x="997" y="170"/>
      <point x="957" y="208" type="qcurve"/>
      <point x="1109" y="369"/>
    </contour>
    <contour>
      <point x="452" y="111" type="qcurve" smooth="yes"/>
      <point x="340" y="111"/>
      <point x="203" y="243"/>
      <point x="203" y="354" type="qcurve" smooth="yes"/>
      <point x="203" y="464"/>
      <point x="334" y="609"/>
      <point x="502" y="675" type="qcurve"/>
      <point x="546" y="547"/>
      <point x="680" y="302"/>
      <point x="753" y="212" type="qcurve"/>
      <point x="615" y="111"/>
    </contour>
    <contour>
      <point x="592" y="1041" type="qcurve" smooth="yes"/>
      <point x="592" y="1161"/>
      <point x="714" y="1296"/>
      <point x="826" y="1296" type="qcurve" smooth="yes"/>
      <point x="899" y="1296"/>
      <point x="990" y="1213"/>
      <point x="990" y="1148" type="qcurve" smooth="yes"/>
      <point x="990" y="1090"/>
      <point x="931" y="1008"/>
      <point x="828" y="944"/>
      <point x="690" y="892"/>
      <point x="611" y="863" type="qcurve"/>
      <point x="592" y="963"/>
    </contour>
  </outline>
</glyph>
<glyph name="parenleft" format="2">
  <advance width="682"/>
  <unicode hex="0028"/>
  <note>
parenleft
</note>
  <outline>
    <contour>
      <point x="855" y="1484" type="qcurve"/>
      <point x="681" y="1484" type="line"/>
      <point x="396" y="1264"/>
      <point x="96" y="650"/>
      <point x="96" y="278" type="qcurve" smooth="yes"/>
      <point x="96" y="-128"/>
      <point x="310" y="-424" type="qcurve"/>
      <point x="484" y="-424" type="line"/>
      <point x="277" y="-127"/>
      <point x="277" y="262" type="qcurve" smooth="yes"/>
      <point x="277" y="975"/>
    </contour>
  </outline>
</glyph>
<glyph name="parenright" format="2">
  <advance width="682"/>
  <unicode hex="0029"/>
  <note>
parenright
</note>
  <outline>
    <contour>
      <point x="-199" y="-424" type="qcurve"/>
      <point x="-25" y="-424" type="line"/>
      <point x="260" y="-204"/>
      <point x="560" y="410"/>
      <point x="560" y="782" type="qcurve" smooth="yes"/>
      <point x="560" y="1188"/>
      <point x="346" y="1484" type="qcurve"/>
      <point x="172" y="1484" type="line"/>
      <point x="379" y="1187"/>
      <point x="379" y="798" type="qcurve" smooth="yes"/>
      <point x="379" y="85"/>
    </contour>
  </outline>
</glyph>
<glyph name="plus" format="2">
  <advance width="1196"/>
  <unicode hex="002B"/>
  <note>
plus
</note>
  <outline>
    <contour>
      <point x="701" y="608" type="line"/>
      <point x="1125" y="608" type="line"/>
      <point x="1125" y="754" type="line"/>
      <point x="701" y="754" type="line"/>
      <point x="701" y="1182" type="line"/>
      <point x="554" y="1182" type="line"/>
      <point x="554" y="754" type="line"/>
      <point x="130" y="754" type="line"/>
      <point x="130" y="608" type="line"/>
      <point x="554" y="608" type="line"/>
      <point x="554" y="180" type="line"/>
      <point x="701" y="180" type="line"/>
    </contour>
  </outline>
</glyph>
<glyph name="comma" format="2">
  <advance width="569"/>
  <unicode hex="002C"/>
  <note>
comma
</note>
  <outline>
    <contour>
      <point x="160" y="-262" type="line"/>
      <point x="215" y="-194"/>
      <point x="281" y="-44"/>
      <point x="299" y="51" type="qcurve" smooth="yes"/>
      <point x="331" y="219" type="line"/>
      <point x="136" y="219" type="line"/>
      <point x="94" y="0" type="line"/>
      <point x="182" y="0" type="line"/>
      <point x="157" y="-125"/>
      <point x="37" y="-262" type="qcurve"/>
    </contour>
  </outline>
</glyph>
<glyph name="hyphen" format="2">
  <advance width="682"/>
  <unicode hex="002D"/>
  <unicode hex="00AD"/>
  <note>
hyphen
</note>
  <outline>
    <contour>
      <point x="105" y="464" type="line"/>
      <point x="605" y="464" type="line"/>
      <point x="636" y="624" type="line"/>
      <point x="136" y="624" type="line"/>
    </contour>
  </outline>
</glyph>
<glyph name="period" format="2">
  <advance width="569"/>
  <unicode hex="002E"/>
  <note>
period
</note>
  <outline>
    <contour>
      <point x="80" y="0" type="line"/>
      <point x="275" y="0" type="line"/>
      <point x="318" y="219" type="line"/>
      <point x="123" y="219" type="line"/>
    </contour>
  </outline>
</glyph>
<glyph name="slash" format="2">
  <advance width="569"/>
  <unicode hex="002F"/>
  <note>
slash
</note>
  <outline>
    <contour>
      <point x="-116" y="-20" type="line"/>
      <point x="45" y="-20" type="line"/>
      <point x="745" y="1484" type="line"/>
      <point x="587" y="1484" type="line"/>
    </contour>
  </outline>
</glyph>
<glyph name="zero" format="2">
  <advance width="1139"/>
  <unicode hex="0030"/>
  <note>
zero
</note>
  <outline>
    <contour>
      <point x="732" y="1430" type="qcurve" smooth="yes"/>
      <point x="572" y="1430"/>
      <point x="337" y="1289"/>
      <point x="178" y="1017"/>
      <point x="89" y="645"/>
      <point x="89" y="465" type="qcurve" smooth="yes"/>
      <point x="89" y="238"/>
      <point x="295" y="-20"/>
      <point x="476" y="-20" type="qcurve" smooth="yes"/>
      <point x="680" y="-20"/>
      <point x="966" y="229"/>
      <point x="1122" y="708"/>
      <point x="1122" y="964" type="qcurve" smooth="yes"/>
      <point x="1122" y="1184"/>
      <point x="915" y="1430"/>
    </contour>
    <contour>
      <point x="491" y="127" type="qcurve" smooth="yes"/>
      <point x="383" y="127"/>
      <point x="264" y="283"/>
      <point x="264" y="438" type="qcurve" smooth="yes"/>
      <point x="264" y="625"/>
      <point x="378" y="1072"/>
      <point x="569" y="1284"/>
      <point x="720" y="1284" type="qcurve" smooth="yes"/>
      <point x="828" y="1284"/>
      <point x="947" y="1128"/>
      <point x="947" y="973" type="qcurve" smooth="yes"/>
      <point x="947" y="786"/>
      <point x="833" y="339"/>
      <point x="642" y="127"/>
    </contour>
  </outline>
</glyph>
<glyph name="two" format="2">
  <advance width="1139"/>
  <unicode hex="0032"/>
  <note>
two
</note>
  <outline>
    <contour>
      <point x="-12" y="0" type="line"/>
      <point x="920" y="0" type="line"/>
      <point x="949" y="153" type="line"/>
      <point x="222" y="153" type="line"/>
      <point x="268" y="225"/>
      <point x="449" y="377"/>
      <point x="596" y="470" type="qcurve" smooth="yes"/>
      <point x="802" y="600"/>
      <point x="1007" y="778"/>
      <point x="1109" y="972"/>
      <point x="1109" y="1078" type="qcurve" smooth="yes"/>
      <point x="1109" y="1234"/>
      <point x="882" y="1430"/>
      <point x="700" y="1430" type="qcurve" smooth="yes"/>
      <point x="513" y="1430"/>
      <point x="265" y="1251"/>
      <point x="211" y="1081" type="qcurve"/>
      <point x="381" y="1044" type="line"/>
      <point x="418" y="1163"/>
      <point x="580" y="1282"/>
      <point x="689" y="1282" type="qcurve" smooth="yes"/>
      <point x="795" y="1282"/>
      <point x="920" y="1161"/>
      <point x="920" y="1063" type="qcurve" smooth="yes"/>
      <point x="920" y="987"/>
      <point x="866" y="866"/>
      <point x="772" y="764"/>
      <point x="647" y="674"/>
      <point x="504" y="583"/>
      <point x="351" y="485"/>
      <point x="203" y="366"/>
      <point x="67" y="220"/>
      <point x="12" y="127" type="qcurve"/>
    </contour>
  </outline>
</glyph>
<glyph name="three" format="2">
  <advance width="1139"/>
  <unicode hex="0033"/>
  <note>
three
</note>
  <outline>
    <contour>
      <point x="566" y="795" type="qcurve" smooth="yes"/>
      <point x="468" y="795" type="line"/>
      <point x="438" y="639" type="line"/>
      <point x="562" y="639" type="line" smooth="yes"/>
      <point x="691" y="639"/>
      <point x="841" y="516"/>
      <point x="841" y="404" type="qcurve" smooth="yes"/>
      <point x="841" y="278"/>
      <point x="682" y="129"/>
      <point x="541" y="129" type="qcurve" smooth="yes"/>
      <point x="418" y="129"/>
      <point x="242" y="270"/>
      <point x="212" y="386" type="qcurve"/>
      <point x="48" y="338" type="line"/>
      <point x="73" y="229"/>
      <point x="202" y="68"/>
      <point x="398" y="-20"/>
      <point x="526" y="-20" type="qcurve" smooth="yes"/>
      <point x="679" y="-20"/>
      <point x="908" y="87"/>
      <point x="1029" y="282"/>
      <point x="1029" y="407" type="qcurve" smooth="yes"/>
      <point x="1029" y="530"/>
      <point x="883" y="687"/>
      <point x="752" y="713" type="qcurve"/>
      <point x="753" y="717" type="line"/>
      <point x="928" y="740"/>
      <point x="1121" y="933"/>
      <point x="1121" y="1086" type="qcurve" smooth="yes"/>
      <point x="1121" y="1246"/>
      <point x="905" y="1430"/>
      <point x="718" y="1430" type="qcurve" smooth="yes"/>
      <point x="531" y="1430"/>
      <point x="264" y="1249"/>
      <point x="206" y="1063" type="qcurve"/>
      <point x="384" y="1049" type="line"/>
      <point x="418" y="1160"/>
      <point x="589" y="1282"/>
      <point x="708" y="1282" type="qcurve" smooth="yes"/>
      <point x="809" y="1282"/>
      <point x="930" y="1174"/>
      <point x="930" y="1081" type="qcurve" smooth="yes"/>
      <point x="930" y="941"/>
      <point x="749" y="795"/>
    </contour>
  </outline>
</glyph>
<glyph name="four" format="2">
  <advance width="1139"/>
  <unicode hex="0034"/>
  <note>
four
</note>
  <outline>
    <contour>
      <point x="846" y="319" type="line"/>
      <point x="1034" y="319" type="line"/>
      <point x="1062" y="461" type="line"/>
      <point x="874" y="461" type="line"/>
      <point x="1058" y="1409" type="line"/>
      <point x="859" y="1409" type="line"/>
      <point x="40" y="459" type="line"/>
      <point x="13" y="319" type="line"/>
      <point x="666" y="319" type="line"/>
      <point x="604" y="0" type="line"/>
      <point x="784" y="0" type="line"/>
    </contour>
    <contour>
      <point x="826" y="1157" type="line"/>
      <point x="694" y="461" type="line"/>
      <point x="227" y="461" type="line"/>
    </contour>
  </outline>
</glyph>
<glyph name="five" format="2">
  <advance width="1139"/>
  <unicode hex="0035"/>
  <note>
five
</note>
  <outline>
    <contour>
      <point x="343" y="1409" type="line"/>
      <point x="149" y="651" type="line"/>
      <point x="325" y="651" type="line"/>
      <point x="444" y="752"/>
      <point x="607" y="752" type="qcurve" smooth="yes"/>
      <point x="723" y="752"/>
      <point x="861" y="608"/>
      <point x="861" y="486" type="qcurve" smooth="yes"/>
      <point x="861" y="314"/>
      <point x="681" y="127"/>
      <point x="515" y="127" type="qcurve" smooth="yes"/>
      <point x="398" y="127"/>
      <point x="240" y="238"/>
      <point x="209" y="352" type="qcurve"/>
      <point x="46" y="309" type="line"/>
      <point x="134" y="-20"/>
      <point x="505" y="-20" type="qcurve" smooth="yes"/>
      <point x="763" y="-20"/>
      <point x="1051" y="260"/>
      <point x="1051" y="506" type="qcurve" smooth="yes"/>
      <point x="1051" y="686"/>
      <point x="825" y="899"/>
      <point x="641" y="899" type="qcurve" smooth="yes"/>
      <point x="558" y="899"/>
      <point x="414" y="851"/>
      <point x="364" y="809" type="qcurve"/>
      <point x="478" y="1256" type="line"/>
      <point x="1115" y="1256" type="line"/>
      <point x="1144" y="1409" type="line"/>
    </contour>
  </outline>
</glyph>
<glyph name="six" format="2">
  <advance width="1139"/>
  <unicode hex="0036"/>
  <note>
six
</note>
  <outline>
    <contour>
      <point x="534" y="-20" type="qcurve" smooth="yes"/>
      <point x="679" y="-20"/>
      <point x="914" y="124"/>
      <point x="1047" y="381"/>
      <point x="1047" y="533" type="qcurve" smooth="yes"/>
      <point x="1047" y="701"/>
      <point x="835" y="911"/>
      <point x="663" y="911" type="qcurve" smooth="yes"/>
      <point x="550" y="911"/>
      <point x="367" y="816"/>
      <point x="307" y="726" type="qcurve"/>
      <point x="359" y="992"/>
      <point x="589" y="1284"/>
      <point x="753" y="1284" type="qcurve" smooth="yes"/>
      <point x="834" y="1284"/>
      <point x="948" y="1196"/>
      <point x="973" y="1115" type="qcurve"/>
      <point x="1139" y="1151" type="line"/>
      <point x="1104" y="1287"/>
      <point x="911" y="1430"/>
      <point x="761" y="1430" type="qcurve" smooth="yes"/>
      <point x="572" y="1430"/>
      <point x="282" y="1176"/>
      <point x="115" y="705"/>
      <point x="115" y="464" type="qcurve" smooth="yes"/>
      <point x="115" y="248"/>
      <point x="341" y="-20"/>
    </contour>
    <contour>
      <point x="288" y="421" type="qcurve" smooth="yes"/>
      <point x="288" y="531"/>
      <point x="380" y="687"/>
      <point x="537" y="772"/>
      <point x="630" y="772" type="qcurve" smooth="yes"/>
      <point x="742" y="772"/>
      <point x="861" y="637"/>
      <point x="861" y="522" type="qcurve" smooth="yes"/>
      <point x="861" y="350"/>
      <point x="677" y="125"/>
      <point x="538" y="125" type="qcurve" smooth="yes"/>
      <point x="424" y="125"/>
      <point x="288" y="290"/>
    </contour>
  </outline>
</glyph>
<glyph name="seven" format="2">
  <advance width="1139"/>
  <unicode hex="0037"/>
  <note>
seven
</note>
  <outline>
    <contour>
      <point x="435" y="0" type="line"/>
      <point x="460" y="128"/>
      <point x="539" y="360"/>
      <point x="645" y="573"/>
      <point x="781" y="781"/>
      <point x="951" y="1001"/>
      <point x="1174" y="1263" type="qcurve"/>
      <point x="1202" y="1409" type="line"/>
      <point x="241" y="1409" type="line"/>
      <point x="212" y="1256" type="line"/>
      <point x="986" y="1256" type="line"/>
      <point x="704" y="934"/>
      <point x="455" y="572"/>
      <point x="288" y="204"/>
      <point x="247" y="0" type="qcurve"/>
    </contour>
  </outline>
</glyph>
<glyph name="eight" format="2">
  <advance width="1139"/>
  <unicode hex="0038"/>
  <note>
eight
</note>
  <outline>
    <contour>
      <point x="704" y="1429" type="qcurve" smooth="yes"/>
      <point x="480" y="1429"/>
      <point x="220" y="1229"/>
      <point x="220" y="1052" type="qcurve" smooth="yes"/>
      <point x="220" y="949"/>
      <point x="320" y="798"/>
      <point x="411" y="760" type="qcurve"/>
      <point x="411" y="756" type="line"/>
      <point x="236" y="717"/>
      <point x="54" y="510"/>
      <point x="54" y="360" type="qcurve" smooth="yes"/>
      <point x="54" y="182"/>
      <point x="287" y="-20"/>
      <point x="500" y="-20" type="qcurve" smooth="yes"/>
      <point x="749" y="-20"/>
      <point x="1033" y="224"/>
      <point x="1033" y="432" type="qcurve" smooth="yes"/>
      <point x="1033" y="542"/>
      <point x="916" y="696"/>
      <point x="806" y="729" type="qcurve"/>
      <point x="807" y="733" type="line"/>
      <point x="954" y="755"/>
      <point x="1127" y="951"/>
      <point x="1127" y="1091" type="qcurve" smooth="yes"/>
      <point x="1127" y="1246"/>
      <point x="895" y="1429"/>
    </contour>
    <contour>
      <point x="658" y="811" type="qcurve" smooth="yes"/>
      <point x="537" y="811"/>
      <point x="400" y="930"/>
      <point x="400" y="1033" type="qcurve" smooth="yes"/>
      <point x="400" y="1160"/>
      <point x="550" y="1294"/>
      <point x="683" y="1294" type="qcurve" smooth="yes"/>
      <point x="810" y="1294"/>
      <point x="941" y="1185"/>
      <point x="941" y="1087" type="qcurve" smooth="yes"/>
      <point x="941" y="954"/>
      <point x="792" y="811"/>
    </contour>
    <contour>
      <point x="566" y="672" type="qcurve" smooth="yes"/>
      <point x="697" y="672"/>
      <point x="850" y="547"/>
      <point x="850" y="436" type="qcurve" smooth="yes"/>
      <point x="850" y="289"/>
      <point x="667" y="117"/>
      <point x="519" y="117" type="qcurve" smooth="yes"/>
      <point x="387" y="117"/>
      <point x="239" y="244"/>
      <point x="239" y="356" type="qcurve" smooth="yes"/>
      <point x="239" y="506"/>
      <point x="410" y="672"/>
    </contour>
  </outline>
</glyph>
<glyph name="nine" format="2">
  <advance width="1139"/>
  <unicode hex="0039"/>
  <note>
nine
</note>
  <outline>
    <contour>
      <point x="898" y="684" type="qcurve"/>
      <point x="842" y="414"/>
      <point x="619" y="125"/>
      <point x="461" y="125" type="qcurve" smooth="yes"/>
      <point x="370" y="125"/>
      <point x="252" y="217"/>
      <point x="228" y="302" type="qcurve"/>
      <point x="70" y="257" type="line"/>
      <point x="145" y="-20"/>
      <point x="453" y="-20" type="qcurve" smooth="yes"/>
      <point x="550" y="-20"/>
      <point x="736" y="54"/>
      <point x="896" y="215"/>
      <point x="1022" y="465"/>
      <point x="1097" y="802"/>
      <point x="1097" y="957" type="qcurve" smooth="yes"/>
      <point x="1097" y="1176"/>
      <point x="878" y="1430"/>
      <point x="682" y="1430" type="qcurve" smooth="yes"/>
      <point x="534" y="1430"/>
      <point x="295" y="1286"/>
      <point x="163" y="1033"/>
      <point x="163" y="881" type="qcurve" smooth="yes"/>
      <point x="163" y="768"/>
      <point x="261" y="584"/>
      <point x="441" y="481"/>
      <point x="559" y="481" type="qcurve" smooth="yes"/>
      <point x="764" y="481"/>
    </contour>
    <contour>
      <point x="925" y="1017" type="qcurve" smooth="yes"/>
      <point x="925" y="895"/>
      <point x="839" y="725"/>
      <point x="674" y="623"/>
      <point x="580" y="623" type="qcurve" smooth="yes"/>
      <point x="472" y="623"/>
      <point x="346" y="757"/>
      <point x="346" y="879" type="qcurve" smooth="yes"/>
      <point x="346" y="1068"/>
      <point x="530" y="1284"/>
      <point x="678" y="1284" type="qcurve" smooth="yes"/>
      <point x="787" y="1284"/>
      <point x="925" y="1138"/>
    </contour>
  </outline>
</glyph>
<glyph name="semicolon" format="2">
  <advance width="569"/>
  <unicode hex="003B"/>
  <unicode hex="037E"/>
  <note>
semicolon
</note>
  <outline>
    <contour>
      <point x="161" y="-262" type="line"/>
      <point x="216" y="-194"/>
      <point x="282" y="-44"/>
      <point x="300" y="51" type="qcurve" smooth="yes"/>
      <point x="330" y="207" type="line"/>
      <point x="135" y="207" type="line"/>
      <point x="95" y="0" type="line"/>
      <point x="183" y="0" type="line"/>
      <point x="158" y="-125"/>
      <point x="38" y="-262" type="qcurve"/>
    </contour>
    <contour>
      <point x="265" y="875" type="line"/>
      <point x="460" y="875" type="line"/>
      <point x="500" y="1082" type="line"/>
      <point x="305" y="1082" type="line"/>
    </contour>
  </outline>
</glyph>
<glyph name="less" format="2">
  <advance width="1196"/>
  <unicode hex="003C"/>
  <note>
less
</note>
  <outline>
    <contour>
      <point x="131" y="571" type="line"/>
      <point x="1126" y="154" type="line"/>
      <point x="1126" y="307" type="line"/>
      <point x="268" y="674" type="line"/>
      <point x="1126" y="1040" type="line"/>
      <point x="1126" y="1194" type="line"/>
      <point x="131" y="776" type="line"/>
    </contour>
  </outline>
</glyph>
<glyph name="equal" format="2">
  <advance width="1196"/>
  <unicode hex="003D"/>
  <note>
equal
</note>
  <outline>
    <contour>
      <point x="130" y="856" type="line"/>
      <point x="1125" y="856" type="line"/>
      <point x="1125" y="1004" type="line"/>
      <point x="130" y="1004" type="line"/>
    </contour>
    <contour>
      <point x="130" y="344" type="line"/>
      <point x="1125" y="344" type="line"/>
      <point x="1125" y="492" type="line"/>
      <point x="130" y="492" type="line"/>
    </contour>
  </outline>
</glyph>
<glyph name="greater" format="2">
  <advance width="1196"/>
  <unicode hex="003E"/>
  <note>
greater
</note>
  <outline>
    <contour>
      <point x="131" y="154" type="line"/>
      <point x="1126" y="571" type="line"/>
      <point x="1126" y="776" type="line"/>
      <point x="131" y="1194" type="line"/>
      <point x="131" y="1040" type="line"/>
      <point x="989" y="674" type="line"/>
      <point x="131" y="307" type="line"/>
    </contour>
  </outline>
</glyph>
<glyph name="question" format="2">
  <advance width="1139"/>
  <unicode hex="003F"/>
  <note>
question
</note>
  <outline>
    <contour>
      <point x="701" y="1430" type="qcurve" smooth="yes"/>
      <point x="495" y="1430"/>
      <point x="222" y="1243"/>
      <point x="159" y="1048" type="qcurve"/>
      <point x="324" y="1008" type="line"/>
      <point x="362" y="1130"/>
      <point x="544" y="1270"/>
      <point x="684" y="1270" type="qcurve" smooth="yes"/>
      <point x="800" y="1270"/>
      <point x="946" y="1150"/>
      <point x="946" y="1052" type="qcurve" smooth="yes"/>
      <point x="946" y="989"/>
      <point x="900" y="889"/>
      <point x="808" y="806"/>
      <point x="702" y="746" type="qcurve" smooth="yes"/>
      <point x="568" y="670"/>
      <point x="463" y="576"/>
      <point x="393" y="457"/>
      <point x="380" y="377" type="qcurve"/>
      <point x="555" y="377" type="line"/>
      <point x="569" y="445"/>
      <point x="667" y="557"/>
      <point x="794" y="629" type="qcurve" smooth="yes"/>
      <point x="854" y="664"/>
      <point x="975" y="738"/>
      <point x="1072" y="839"/>
      <point x="1133" y="976"/>
      <point x="1133" y="1073" type="qcurve" smooth="yes"/>
      <point x="1133" y="1230"/>
      <point x="898" y="1430"/>
    </contour>
    <contour>
      <point x="299" y="0" type="line"/>
      <point x="494" y="0" type="line"/>
      <point x="533" y="201" type="line"/>
      <point x="338" y="201" type="line"/>
    </contour>
  </outline>
</glyph>
<glyph name="at" format="2">
  <advance width="2079"/>
  <unicode hex="0040"/>
  <note>
at
</note>
  <outline>
    <contour>
      <point x="1935" y="755" type="qcurve" smooth="yes"/>
      <point x="1935" y="973"/>
      <point x="1750" y="1303"/>
      <point x="1400" y="1484"/>
      <point x="1159" y="1484" type="qcurve" smooth="yes"/>
      <point x="885" y="1484"/>
      <point x="443" y="1229"/>
      <point x="194" y="771"/>
      <point x="194" y="491" type="qcurve" smooth="yes"/>
      <point x="194" y="261"/>
      <point x="388" y="-93"/>
      <point x="747" y="-283"/>
      <point x="987" y="-283" type="qcurve" smooth="yes"/>
      <point x="1161" y="-283"/>
      <point x="1500" y="-192"/>
      <point x="1645" y="-105" type="qcurve"/>
      <point x="1590" y="7" type="line"/>
      <point x="1300" y="-155"/>
      <point x="987" y="-155" type="qcurve" smooth="yes"/>
      <point x="789" y="-155"/>
      <point x="492" y="3"/>
      <point x="335" y="298"/>
      <point x="335" y="491" type="qcurve" smooth="yes"/>
      <point x="335" y="741"/>
      <point x="547" y="1144"/>
      <point x="919" y="1358"/>
      <point x="1161" y="1358" type="qcurve" smooth="yes"/>
      <point x="1355" y="1358"/>
      <point x="1645" y="1209"/>
      <point x="1799" y="932"/>
      <point x="1799" y="753" type="qcurve" smooth="yes"/>
      <point x="1799" y="606"/>
      <point x="1721" y="364"/>
      <point x="1586" y="226"/>
      <point x="1506" y="226" type="qcurve" smooth="yes"/>
      <point x="1425" y="226"/>
      <point x="1425" y="320" type="qcurve" smooth="yes"/>
      <point x="1425" y="409"/>
      <point x="1462" y="573" type="qcurve" smooth="yes"/>
      <point x="1578" y="1079" type="line"/>
      <point x="1422" y="1079" type="line"/>
      <point x="1383" y="919" type="line"/>
      <point x="1377" y="919" type="line"/>
      <point x="1295" y="1101"/>
      <point x="1076" y="1101" type="qcurve" smooth="yes"/>
      <point x="935" y="1101"/>
      <point x="703" y="935"/>
      <point x="574" y="653"/>
      <point x="574" y="489" type="qcurve" smooth="yes"/>
      <point x="574" y="308"/>
      <point x="747" y="104"/>
      <point x="904" y="104" type="qcurve" smooth="yes"/>
      <point x="1017" y="104"/>
      <point x="1212" y="227"/>
      <point x="1278" y="350" type="qcurve"/>
      <point x="1284" y="350" type="line"/>
      <point x="1281" y="280" type="line" smooth="yes"/>
      <point x="1281" y="195"/>
      <point x="1387" y="104"/>
      <point x="1488" y="104" type="qcurve" smooth="yes"/>
      <point x="1615" y="104"/>
      <point x="1820" y="268"/>
      <point x="1935" y="569"/>
    </contour>
    <contour>
      <point x="1329" y="747" type="qcurve" smooth="yes"/>
      <point x="1329" y="675"/>
      <point x="1269" y="478"/>
      <point x="1159" y="323"/>
      <point x="1013" y="235"/>
      <point x="933" y="235" type="qcurve" smooth="yes"/>
      <point x="834" y="235"/>
      <point x="739" y="371"/>
      <point x="739" y="491" type="qcurve" smooth="yes"/>
      <point x="739" y="619"/>
      <point x="829" y="847"/>
      <point x="986" y="974"/>
      <point x="1087" y="974" type="qcurve" smooth="yes"/>
      <point x="1197" y="974"/>
      <point x="1329" y="849"/>
    </contour>
  </outline>
</glyph>
<glyph name="A" format="2">
  <advance width="1366"/>
  <unicode hex="0041"/>
  <note>
A
</note>
  <outline>
    <contour>
      <point x="1061" y="0" type="line"/>
      <point x="1256" y="0" type="line"/>
      <point x="964" y="1409" type="line"/>
      <point x="747" y="1409" type="line"/>
      <point x="-101" y="0" type="line"/>
      <point x="107" y="0" type="line"/>
      <point x="347" y="412" type="line"/>
      <point x="986" y="412" type="line"/>
    </contour>
    <contour>
      <point x="830" y="1265" type="qcurve"/>
      <point x="856" y="1114" type="line"/>
      <point x="958" y="561" type="line"/>
      <point x="431" y="561" type="line"/>
      <point x="769" y="1153"/>
      <point x="817" y="1239"/>
    </contour>
  </outline>
</glyph>
<glyph name="C" format="2">
  <advance width="1479"/>
  <unicode hex="0043"/>
  <note>
C
</note>
  <outline>
    <contour>
      <point x="1358" y="337" type="qcurve"/>
      <point x="1215" y="426" type="line"/>
      <point x="1117" y="282"/>
      <point x="861" y="135"/>
      <point x="713" y="135" type="qcurve" smooth="yes"/>
      <point x="520" y="135"/>
      <point x="302" y="366"/>
      <point x="302" y="566" type="qcurve" smooth="yes"/>
      <point x="302" y="776"/>
      <point x="452" y="1097"/>
      <point x="732" y="1274"/>
      <point x="916" y="1274" type="qcurve" smooth="yes"/>
      <point x="1067" y="1274"/>
      <point x="1274" y="1142"/>
      <point x="1310" y="1030" type="qcurve"/>
      <point x="1490" y="1085" type="line"/>
      <point x="1442" y="1249"/>
      <point x="1143" y="1430"/>
      <point x="926" y="1430" type="qcurve" smooth="yes"/>
      <point x="696" y="1430"/>
      <point x="323" y="1213"/>
      <point x="113" y="815"/>
      <point x="113" y="569" type="qcurve" smooth="yes"/>
      <point x="113" y="393"/>
      <point x="252" y="125"/>
      <point x="519" y="-20"/>
      <point x="700" y="-20" type="qcurve" smooth="yes"/>
      <point x="912" y="-20"/>
      <point x="1232" y="149"/>
    </contour>
  </outline>
</glyph>
<glyph name="D" format="2">
  <advance width="1479"/>
  <unicode hex="0044"/>
  <note>
D
</note>
  <outline>
    <contour>
      <point x="744" y="1409" type="qcurve" smooth="yes"/>
      <point x="336" y="1409" type="line"/>
      <point x="63" y="0" type="line"/>
      <point x="575" y="0" type="line" smooth="yes"/>
      <point x="820" y="0"/>
      <point x="1207" y="201"/>
      <point x="1413" y="555"/>
      <point x="1413" y="791" type="qcurve" smooth="yes"/>
      <point x="1413" y="1080"/>
      <point x="1056" y="1409"/>
    </contour>
    <contour>
      <point x="283" y="153" type="line"/>
      <point x="498" y="1256" type="line"/>
      <point x="740" y="1256" type="line" smooth="yes"/>
      <point x="967" y="1256"/>
      <point x="1219" y="1012"/>
      <point x="1219" y="793" type="qcurve" smooth="yes"/>
      <point x="1219" y="599"/>
      <point x="1060" y="308"/>
      <point x="762" y="153"/>
      <point x="567" y="153" type="qcurve" smooth="yes"/>
    </contour>
  </outline>
</glyph>
<glyph name="E" format="2">
  <advance width="1366"/>
  <unicode hex="0045"/>
  <note>
E
</note>
  <outline>
    <contour>
      <point x="63" y="0" type="line"/>
      <point x="1153" y="0" type="line"/>
      <point x="1183" y="156" type="line"/>
      <point x="284" y="156" type="line"/>
      <point x="379" y="647" type="line"/>
      <point x="1177" y="647" type="line"/>
      <point x="1207" y="801" type="line"/>
      <point x="409" y="801" type="line"/>
      <point x="497" y="1253" type="line"/>
      <point x="1355" y="1253" type="line"/>
      <point x="1385" y="1409" type="line"/>
      <point x="336" y="1409" type="line"/>
    </contour>
  </outline>
</glyph>
<glyph name="F" format="2">
  <advance width="1251"/>
  <unicode hex="0046"/>
  <note>
F
</note>
  <anchor x="780" y="1540" name="top"/>
  <anchor x="1220" y="1540" name="caronalt"/>
  <anchor x="580" y="-130" name="bottom"/>
  <anchor x="1215" y="1420" name="rhotic"/>
  <anchor x="1300" y="1300" name="horn"/>
  <anchor x="1251" y="1540" name="topdouble"/>
  <anchor x="1251" y="-380" name="bottomdouble"/>
  <anchor x="1251" y="1840" name="tophalfright"/>
  <anchor x="0" y="1840" name="tophalfleft"/>
  <anchor x="190" y="0" name="ogonek"/>
  <outline>
    <contour>
      <point x="364" y="571" type="line"/>
      <point x="1160" y="571" type="line"/>
      <point x="1191" y="729" type="line"/>
      <point x="395" y="729" type="line"/>
      <point x="497" y="1253" type="line"/>
      <point x="1317" y="1253" type="line"/>
      <point x="1347" y="1409" type="line"/>
      <point x="336" y="1409" type="line"/>
      <point x="63" y="0" type="line"/>
      <point x="254" y="0" type="line"/>
    </contour>
  </outline>
</glyph>
<glyph name="G" format="2">
  <advance width="1593"/>
  <unicode hex="0047"/>
  <note>
G
</note>
  <anchor x="900" y="1540" name="gpos_18_mark_to_base__MARKCLASS_0_lookup_18"/>
  <anchor x="1380" y="1540" name="gpos_18_mark_to_base__MARKCLASS_1_lookup_18"/>
  <anchor x="700" y="-130" name="gpos_18_mark_to_base__MARKCLASS_2_lookup_18"/>
  <anchor x="1371" y="1200" name="gpos_20_mark_to_base__MARKCLASS_0_lookup_20"/>
  <anchor x="1300" y="1300" name="gpos_21_mark_to_base__MARKCLASS_0_lookup_21"/>
  <anchor x="1593" y="1540" name="gpos_22_mark_to_base__MARKCLASS_0_lookup_22"/>
  <anchor x="1593" y="-380" name="gpos_22_mark_to_base__MARKCLASS_1_lookup_22"/>
  <anchor x="1593" y="1840" name="gpos_23_mark_to_base__MARKCLASS_0_lookup_23"/>
  <anchor x="0" y="1840" name="gpos_23_mark_to_base__MARKCLASS_1_lookup_23"/>
  <anchor x="960" y="0" name="gpos_24_mark_to_base__MARKCLASS_0_lookup_24"/>
  <outline>
    <contour>
      <point x="742" y="-20" type="curve"/>
      <point x="997" y="-20"/>
      <point x="1203" y="50"/>
      <point x="1390" y="210" type="curve"/>
      <point x="1490" y="705" type="line"/>
      <point x="893" y="705" type="line"/>
      <point x="861" y="545" type="line"/>
      <point x="1282" y="545" type="line"/>
      <point x="1231" y="291" type="line"/>
      <point x="1107" y="188"/>
      <point x="932" y="135"/>
      <point x="748" y="135" type="curve" smooth="yes"/>
      <point x="461" y="135"/>
      <point x="297" y="296"/>
      <point x="297" y="577" type="curve" smooth="yes"/>
      <point x="297" y="854"/>
      <point x="403" y="1073"/>
      <point x="596" y="1188" type="curve" smooth="yes"/>
      <point x="692" y="1245"/>
      <point x="804" y="1274"/>
      <point x="932" y="1274" type="curve" smooth="yes"/>
      <point x="1131" y="1274"/>
      <point x="1263" y="1197"/>
      <point x="1312" y="1044" type="curve"/>
      <point x="1505" y="1098" type="line"/>
      <point x="1432" y="1317"/>
      <point x="1240" y="1430"/>
      <point x="944" y="1430" type="curve" smooth="yes"/>
      <point x="613" y="1430"/>
      <point x="346" y="1281"/>
      <point x="206" y="1019" type="curve" smooth="yes"/>
      <point x="136" y="888"/>
      <point x="101" y="739"/>
      <point x="101" y="573" type="curve" smooth="yes"/>
      <point x="101" y="198"/>
      <point x="335" y="-20"/>
    </contour>
  </outline>
</glyph>
<glyph name="H" format="2">
  <advance width="1479"/>
  <unicode hex="0048"/>
  <note>
H
</note>
  <anchor x="830" y="1540" name="gpos_18_mark_to_base__MARKCLASS_0_lookup_18"/>
  <anchor x="1400" y="1540" name="gpos_18_mark_to_base__MARKCLASS_1_lookup_18"/>
  <anchor x="630" y="-130" name="gpos_18_mark_to_base__MARKCLASS_2_lookup_18"/>
  <anchor x="1300" y="1420" name="gpos_20_mark_to_base__MARKCLASS_0_lookup_20"/>
  <anchor x="1400" y="1300" name="gpos_21_mark_to_base__MARKCLASS_0_lookup_21"/>
  <anchor x="1479" y="1540" name="gpos_22_mark_to_base__MARKCLASS_0_lookup_22"/>
  <anchor x="1479" y="-380" name="gpos_22_mark_to_base__MARKCLASS_1_lookup_22"/>
  <anchor x="1479" y="1840" name="gpos_23_mark_to_base__MARKCLASS_0_lookup_23"/>
  <anchor x="0" y="1840" name="gpos_23_mark_to_base__MARKCLASS_1_lookup_23"/>
  <anchor x="1150" y="0" name="gpos_24_mark_to_base__MARKCLASS_0_lookup_24"/>
  <outline>
    <contour>
      <point x="381" y="653" type="line"/>
      <point x="1148" y="653" type="line"/>
      <point x="1021" y="0" type="line"/>
      <point x="1207" y="0" type="line"/>
      <point x="1481" y="1409" type="line"/>
      <point x="1295" y="1409" type="line"/>
      <point x="1179" y="813" type="line"/>
      <point x="412" y="813" type="line"/>
      <point x="528" y="1409" type="line"/>
      <point x="337" y="1409" type="line"/>
      <point x="63" y="0" type="line"/>
      <point x="254" y="0" type="line"/>
    </contour>
  </outline>
</glyph>
<glyph name="J" format="2">
  <advance width="1024"/>
  <unicode hex="004A"/>
  <note>
J
</note>
  <anchor x="760" y="1540" name="gpos_18_mark_to_base__MARKCLASS_0_lookup_18"/>
  <anchor x="980" y="1540" name="gpos_18_mark_to_base__MARKCLASS_1_lookup_18"/>
  <anchor x="360" y="-130" name="gpos_18_mark_to_base__MARKCLASS_2_lookup_18"/>
  <anchor x="860" y="1420" name="gpos_20_mark_to_base__MARKCLASS_0_lookup_20"/>
  <anchor x="980" y="1300" name="gpos_21_mark_to_base__MARKCLASS_0_lookup_21"/>
  <anchor x="1024" y="1540" name="gpos_22_mark_to_base__MARKCLASS_0_lookup_22"/>
  <anchor x="1024" y="-380" name="gpos_22_mark_to_base__MARKCLASS_1_lookup_22"/>
  <anchor x="1024" y="1840" name="gpos_23_mark_to_base__MARKCLASS_0_lookup_23"/>
  <anchor x="0" y="1840" name="gpos_23_mark_to_base__MARKCLASS_1_lookup_23"/>
  <anchor x="460" y="0" name="gpos_24_mark_to_base__MARKCLASS_0_lookup_24"/>
  <outline>
    <contour>
      <point x="381" y="-20" type="curve"/>
      <point x="641" y="-20"/>
      <point x="790" y="124"/>
      <point x="847" y="423" type="curve" smooth="yes"/>
      <point x="1040" y="1409" type="line"/>
      <point x="559" y="1409" type="line"/>
      <point x="529" y="1253" type="line"/>
      <point x="820" y="1253" type="line"/>
      <point x="663" y="440" type="line" smooth="yes"/>
      <point x="635" y="292"/>
      <point x="586" y="202"/>
      <point x="511" y="161" type="curve" smooth="yes"/>
      <point x="478" y="143"/>
      <point x="441" y="135"/>
      <point x="398" y="135" type="curve" smooth="yes"/>
      <point x="265" y="135"/>
      <point x="194" y="220"/>
      <point x="163" y="376" type="curve"/>
      <point x="-5" y="343" type="line"/>
      <point x="30" y="107"/>
      <point x="169" y="-20"/>
    </contour>
  </outline>
</glyph>
<glyph name="K" format="2">
  <advance width="1366"/>
  <unicode hex="004B"/>
  <note>
K
</note>
  <anchor x="780" y="1540" name="top"/>
  <anchor x="1300" y="1540" name="caronalt"/>
  <anchor x="580" y="-130" name="bottom"/>
  <anchor x="1179" y="1420" name="rhotic"/>
  <anchor x="1267" y="1300" name="horn"/>
  <anchor x="1366" y="1540" name="topdouble"/>
  <anchor x="1366" y="-380" name="bottomdouble"/>
  <anchor x="1366" y="1840" name="tophalfright"/>
  <anchor x="0" y="1840" name="tophalfleft"/>
  <anchor x="1130" y="0" name="ogonek"/>
  <outline>
    <contour>
      <point x="360" y="545" type="line"/>
      <point x="550" y="674" type="line"/>
      <point x="1022" y="0" type="line"/>
      <point x="1248" y="0" type="line"/>
      <point x="691" y="779" type="line"/>
      <point x="1441" y="1409" type="line"/>
      <point x="1196" y="1409" type="line"/>
      <point x="531" y="847" type="line"/>
      <point x="391" y="718" type="line"/>
      <point x="527" y="1409" type="line"/>
      <point x="336" y="1409" type="line"/>
      <point x="63" y="0" type="line"/>
      <point x="254" y="0" type="line"/>
    </contour>
  </outline>
</glyph>
<glyph name="L" format="2">
  <advance width="1139"/>
  <unicode hex="004C"/>
  <note>
L
</note>
  <anchor x="680" y="1540" name="top"/>
  <anchor x="1000" y="1540" name="caronalt"/>
  <anchor x="480" y="-130" name="bottom"/>
  <anchor x="360" y="1420" name="rhotic"/>
  <anchor x="480" y="1300" name="horn"/>
  <anchor x="1139" y="1540" name="topdouble"/>
  <anchor x="1139" y="-380" name="bottomdouble"/>
  <anchor x="1139" y="1840" name="tophalfright"/>
  <anchor x="0" y="1840" name="tophalfleft"/>
  <anchor x="940" y="0" name="ogonek"/>
  <outline>
    <contour>
      <point x="996" y="156" type="line"/>
      <point x="284" y="156" type="line"/>
      <point x="527" y="1409" type="line"/>
      <point x="336" y="1409" type="line"/>
      <point x="63" y="0" type="line"/>
      <point x="966" y="0" type="line"/>
    </contour>
  </outline>
</glyph>
<glyph name="M" format="2">
  <advance width="1706"/>
  <unicode hex="004D"/>
  <note>
M
</note>
  <outline>
    <contour>
      <point x="1261" y="0" type="line"/>
      <point x="1433" y="0" type="line"/>
      <point x="1706" y="1409" type="line"/>
      <point x="1450" y="1409" type="line"/>
      <point x="897" y="440" type="line"/>
      <point x="793" y="227" type="line"/>
      <point x="769" y="393"/>
      <point x="761" y="432" type="qcurve" smooth="yes"/>
      <point x="572" y="1409" type="line"/>
      <point x="336" y="1409" type="line"/>
      <point x="63" y="0" type="line"/>
      <point x="233" y="0" type="line"/>
      <point x="412" y="913"/>
      <point x="454" y="1168"/>
      <point x="463" y="1228" type="qcurve"/>
      <point x="498" y="977"/>
      <point x="504" y="948" type="qcurve" smooth="yes"/>
      <point x="689" y="0" type="line"/>
      <point x="813" y="0" type="line"/>
      <point x="1361" y="948" type="line" smooth="yes"/>
      <point x="1415" y="1039"/>
      <point x="1506" y="1228" type="qcurve"/>
      <point x="1477" y="1113"/>
      <point x="1441" y="928" type="qcurve" smooth="yes"/>
    </contour>
  </outline>
</glyph>
<glyph name="N" format="2">
  <advance width="1479"/>
  <unicode hex="004E"/>
  <note>
N
</note>
  <anchor x="830" y="1540" name="top"/>
  <anchor x="1400" y="1540" name="caronalt"/>
  <anchor x="630" y="-130" name="bottom"/>
  <anchor x="1300" y="1420" name="rhotic"/>
  <anchor x="1410" y="1300" name="horn"/>
  <anchor x="1479" y="1540" name="topdouble"/>
  <anchor x="1479" y="-380" name="bottomdouble"/>
  <anchor x="1479" y="1840" name="tophalfright"/>
  <anchor x="0" y="1840" name="tophalfleft"/>
  <anchor x="1120" y="0" name="ogonek"/>
  <outline>
    <contour>
      <point x="414" y="943" type="line" smooth="yes"/>
      <point x="427" y="1007"/>
      <point x="441" y="1096"/>
      <point x="456" y="1210" type="curve"/>
      <point x="987" y="0" type="line"/>
      <point x="1207" y="0" type="line"/>
      <point x="1480" y="1409" type="line"/>
      <point x="1308" y="1409" type="line"/>
      <point x="1127" y="478" type="line" smooth="yes"/>
      <point x="1114" y="415"/>
      <point x="1099" y="320"/>
      <point x="1082" y="194" type="curve"/>
      <point x="548" y="1409" type="line"/>
      <point x="336" y="1409" type="line"/>
      <point x="63" y="0" type="line"/>
      <point x="233" y="0" type="line"/>
    </contour>
  </outline>
</glyph>
<glyph name="O" format="2">
  <advance width="1593"/>
  <unicode hex="004F"/>
  <note>
O
</note>
  <outline>
    <contour>
      <point x="938" y="1430" type="qcurve" smooth="yes"/>
      <point x="700" y="1430"/>
      <point x="322" y="1213"/>
      <point x="111" y="812"/>
      <point x="111" y="573" type="qcurve" smooth="yes"/>
      <point x="111" y="295"/>
      <point x="425" y="-20"/>
      <point x="709" y="-20" type="qcurve" smooth="yes"/>
      <point x="945" y="-20"/>
      <point x="1317" y="192"/>
      <point x="1531" y="583"/>
      <point x="1536" y="851" type="qcurve" smooth="yes"/>
      <point x="1536" y="1116"/>
      <point x="1215" y="1430"/>
    </contour>
    <contour>
      <point x="929" y="1276" type="qcurve" smooth="yes"/>
      <point x="1128" y="1276"/>
      <point x="1345" y="1054"/>
      <point x="1345" y="847" type="qcurve" smooth="yes"/>
      <point x="1345" y="654"/>
      <point x="1192" y="308"/>
      <point x="915" y="135"/>
      <point x="718" y="135" type="qcurve" smooth="yes"/>
      <point x="515" y="135"/>
      <point x="302" y="354"/>
      <point x="302" y="563" type="qcurve" smooth="yes"/>
      <point x="302" y="744"/>
      <point x="450" y="1098"/>
      <point x="729" y="1276"/>
    </contour>
  </outline>
</glyph>
<glyph name="P" format="2">
  <advance width="1366"/>
  <unicode hex="0050"/>
  <note>
P
</note>
  <anchor x="720" y="1540" name="gpos_18_mark_to_base__MARKCLASS_0_lookup_18"/>
  <anchor x="1280" y="1540" name="gpos_18_mark_to_base__MARKCLASS_1_lookup_18"/>
  <anchor x="520" y="-130" name="gpos_18_mark_to_base__MARKCLASS_2_lookup_18"/>
  <anchor x="1218" y="1150" name="gpos_20_mark_to_base__MARKCLASS_0_lookup_20"/>
  <anchor x="1180" y="1300" name="gpos_21_mark_to_base__MARKCLASS_0_lookup_21"/>
  <anchor x="1366" y="1540" name="gpos_22_mark_to_base__MARKCLASS_0_lookup_22"/>
  <anchor x="1366" y="-380" name="gpos_22_mark_to_base__MARKCLASS_1_lookup_22"/>
  <anchor x="1366" y="1840" name="gpos_23_mark_to_base__MARKCLASS_0_lookup_23"/>
  <anchor x="0" y="1840" name="gpos_23_mark_to_base__MARKCLASS_1_lookup_23"/>
  <anchor x="180" y="0" name="gpos_24_mark_to_base__MARKCLASS_0_lookup_24"/>
  <outline>
    <contour>
      <point x="852" y="1409" type="curve"/>
      <point x="336" y="1409" type="line"/>
      <point x="63" y="0" type="line"/>
      <point x="254" y="0" type="line"/>
      <point x="360" y="549" type="line"/>
      <point x="784" y="549" type="line" smooth="yes"/>
      <point x="1136" y="549"/>
      <point x="1353" y="727"/>
      <point x="1353" y="1020" type="curve" smooth="yes"/>
      <point x="1353" y="1261"/>
      <point x="1160" y="1409"/>
    </contour>
    <contour>
      <point x="390" y="700" type="line"/>
      <point x="498" y="1256" type="line"/>
      <point x="847" y="1256" type="line" smooth="yes"/>
      <point x="1052" y="1256"/>
      <point x="1159" y="1170"/>
      <point x="1159" y="1011" type="curve" smooth="yes"/>
      <point x="1159" y="804"/>
      <point x="1032" y="700"/>
      <point x="777" y="700" type="curve" smooth="yes"/>
    </contour>
  </outline>
</glyph>
<glyph name="Q" format="2">
  <advance width="1593"/>
  <unicode hex="0051"/>
  <note>
Q
</note>
  <outline>
    <contour>
      <point x="928" y="1430" type="qcurve" smooth="yes"/>
      <point x="690" y="1430"/>
      <point x="312" y="1213"/>
      <point x="101" y="812"/>
      <point x="101" y="573" type="qcurve" smooth="yes"/>
      <point x="101" y="310"/>
      <point x="385" y="0"/>
      <point x="638" y="-17" type="qcurve"/>
      <point x="661" y="-215"/>
      <point x="823" y="-387"/>
      <point x="974" y="-387" type="qcurve" smooth="yes"/>
      <point x="1067" y="-387"/>
      <point x="1143" y="-365" type="qcurve"/>
      <point x="1161" y="-231" type="line"/>
      <point x="1096" y="-244"/>
      <point x="1038" y="-244" type="qcurve" smooth="yes"/>
      <point x="939" y="-244"/>
      <point x="839" y="-133"/>
      <point x="822" y="-12" type="qcurve"/>
      <point x="1028" y="15"/>
      <point x="1343" y="239"/>
      <point x="1521" y="607"/>
      <point x="1526" y="851" type="qcurve" smooth="yes"/>
      <point x="1526" y="1116"/>
      <point x="1205" y="1430"/>
    </contour>
    <contour>
      <point x="919" y="1276" type="qcurve" smooth="yes"/>
      <point x="1118" y="1276"/>
      <point x="1335" y="1054"/>
      <point x="1335" y="847" type="qcurve" smooth="yes"/>
      <point x="1335" y="654"/>
      <point x="1182" y="308"/>
      <point x="905" y="135"/>
      <point x="708" y="135" type="qcurve" smooth="yes"/>
      <point x="505" y="135"/>
      <point x="292" y="354"/>
      <point x="292" y="563" type="qcurve" smooth="yes"/>
      <point x="292" y="744"/>
      <point x="440" y="1098"/>
      <point x="719" y="1276"/>
    </contour>
  </outline>
</glyph>
<glyph name="R" format="2">
  <advance width="1479"/>
  <unicode hex="0052"/>
  <note>
R
</note>
  <anchor x="780" y="1540" name="top"/>
  <anchor x="1300" y="1540" name="caronalt"/>
  <anchor x="580" y="-130" name="bottom"/>
  <anchor x="1293" y="1150" name="rhotic"/>
  <anchor x="1260" y="1300" name="horn"/>
  <anchor x="1479" y="1540" name="topdouble"/>
  <anchor x="1479" y="-380" name="bottomdouble"/>
  <anchor x="1479" y="1840" name="tophalfright"/>
  <anchor x="0" y="1840" name="tophalfleft"/>
  <anchor x="1180" y="0" name="ogonek"/>
  <outline>
    <contour>
      <point x="367" y="585" type="line"/>
      <point x="808" y="585" type="line"/>
      <point x="1051" y="0" type="line"/>
      <point x="1257" y="0" type="line"/>
      <point x="989" y="602" type="line"/>
      <point x="1270" y="641"/>
      <point x="1416" y="788"/>
      <point x="1416" y="1039" type="curve" smooth="yes"/>
      <point x="1416" y="1181"/>
      <point x="1341" y="1293"/>
      <point x="1212" y="1355" type="curve" smooth="yes"/>
      <point x="1140" y="1390"/>
      <point x="1051" y="1409"/>
      <point x="948" y="1409" type="curve" smooth="yes"/>
      <point x="336" y="1409" type="line"/>
      <point x="63" y="0" type="line"/>
      <point x="254" y="0" type="line"/>
    </contour>
    <contour>
      <point x="857" y="736" type="curve"/>
      <point x="397" y="736" type="line"/>
      <point x="498" y="1256" type="line"/>
      <point x="925" y="1256" type="line" smooth="yes"/>
      <point x="1122" y="1256"/>
      <point x="1222" y="1173"/>
      <point x="1222" y="1024" type="curve" smooth="yes"/>
      <point x="1222" y="841"/>
      <point x="1098" y="736"/>
    </contour>
  </outline>
</glyph>
<glyph name="S" format="2">
  <advance width="1366"/>
  <unicode hex="0053"/>
  <note>
S
</note>
  <outline>
    <contour>
      <point x="616" y="-20" type="qcurve" smooth="yes"/>
      <point x="936" y="-20"/>
      <point x="1246" y="202"/>
      <point x="1246" y="408" type="qcurve" smooth="yes"/>
      <point x="1246" y="513"/>
      <point x="1155" y="656"/>
      <point x="984" y="756"/>
      <point x="789" y="810" type="qcurve" smooth="yes"/>
      <point x="615" y="857"/>
      <point x="498" y="914"/>
      <point x="447" y="990"/>
      <point x="447" y="1050" type="qcurve" smooth="yes"/>
      <point x="447" y="1286"/>
      <point x="823" y="1286" type="qcurve" smooth="yes"/>
      <point x="967" y="1286"/>
      <point x="1138" y="1186"/>
      <point x="1171" y="1081" type="qcurve"/>
      <point x="1344" y="1132" type="line"/>
      <point x="1310" y="1278"/>
      <point x="1044" y="1430"/>
      <point x="824" y="1430" type="qcurve" smooth="yes"/>
      <point x="562" y="1430"/>
      <point x="255" y="1223"/>
      <point x="255" y="1041" type="qcurve" smooth="yes"/>
      <point x="255" y="943"/>
      <point x="342" y="803"/>
      <point x="511" y="704"/>
      <point x="682" y="657" type="qcurve" smooth="yes"/>
      <point x="853" y="609"/>
      <point x="993" y="544"/>
      <point x="1051" y="463"/>
      <point x="1051" y="396" type="qcurve" smooth="yes"/>
      <point x="1051" y="261"/>
      <point x="849" y="130"/>
      <point x="630" y="130" type="qcurve" smooth="yes"/>
      <point x="448" y="130"/>
      <point x="262" y="246"/>
      <point x="235" y="375" type="qcurve"/>
      <point x="58" y="338" type="line"/>
      <point x="92" y="157"/>
      <point x="367" y="-20"/>
    </contour>
  </outline>
</glyph>
<glyph name="T" format="2">
  <advance width="1251"/>
  <unicode hex="0054"/>
  <note>
T
</note>
  <anchor x="720" y="1540" name="gpos_18_mark_to_base__MARKCLASS_0_lookup_18"/>
  <anchor x="1300" y="1540" name="gpos_18_mark_to_base__MARKCLASS_1_lookup_18"/>
  <anchor x="520" y="-130" name="gpos_18_mark_to_base__MARKCLASS_2_lookup_18"/>
  <anchor x="1215" y="1420" name="gpos_20_mark_to_base__MARKCLASS_0_lookup_20"/>
  <anchor x="1300" y="1300" name="gpos_21_mark_to_base__MARKCLASS_0_lookup_21"/>
  <anchor x="1251" y="1540" name="gpos_22_mark_to_base__MARKCLASS_0_lookup_22"/>
  <anchor x="1251" y="-380" name="gpos_22_mark_to_base__MARKCLASS_1_lookup_22"/>
  <anchor x="1251" y="1840" name="gpos_23_mark_to_base__MARKCLASS_0_lookup_23"/>
  <anchor x="0" y="1840" name="gpos_23_mark_to_base__MARKCLASS_1_lookup_23"/>
  <anchor x="550" y="0" name="gpos_24_mark_to_base__MARKCLASS_0_lookup_24"/>
  <outline>
    <contour>
      <point x="858" y="1253" type="line"/>
      <point x="1342" y="1253" type="line"/>
      <point x="1372" y="1409" type="line"/>
      <point x="214" y="1409" type="line"/>
      <point x="184" y="1253" type="line"/>
      <point x="668" y="1253" type="line"/>
      <point x="424" y="0" type="line"/>
      <point x="614" y="0" type="line"/>
    </contour>
  </outline>
</glyph>
<glyph name="U" format="2">
  <advance width="1479"/>
  <unicode hex="0055"/>
  <note>
U
</note>
  <anchor x="830" y="1540" name="gpos_18_mark_to_base__MARKCLASS_0_lookup_18"/>
  <anchor x="1400" y="1540" name="gpos_18_mark_to_base__MARKCLASS_1_lookup_18"/>
  <anchor x="630" y="-130" name="gpos_18_mark_to_base__MARKCLASS_2_lookup_18"/>
  <anchor x="1350" y="1420" name="gpos_20_mark_to_base__MARKCLASS_0_lookup_20"/>
  <anchor x="1460" y="1300" name="gpos_21_mark_to_base__MARKCLASS_0_lookup_21"/>
  <anchor x="1479" y="1540" name="gpos_22_mark_to_base__MARKCLASS_0_lookup_22"/>
  <anchor x="1479" y="-380" name="gpos_22_mark_to_base__MARKCLASS_1_lookup_22"/>
  <anchor x="1479" y="1840" name="gpos_23_mark_to_base__MARKCLASS_0_lookup_23"/>
  <anchor x="0" y="1840" name="gpos_23_mark_to_base__MARKCLASS_1_lookup_23"/>
  <anchor x="830" y="0" name="gpos_24_mark_to_base__MARKCLASS_0_lookup_24"/>
  <outline>
    <contour>
      <point x="654" y="-20" type="curve" smooth="yes"/>
      <point x="1021" y="-20"/>
      <point x="1247" y="166"/>
      <point x="1319" y="530" type="curve" smooth="yes"/>
      <point x="1489" y="1409" type="line"/>
      <point x="1299" y="1409" type="line"/>
      <point x="1131" y="541" type="line" smooth="yes"/>
      <point x="1080" y="270"/>
      <point x="926" y="135"/>
      <point x="670" y="135" type="curve" smooth="yes"/>
      <point x="461" y="135"/>
      <point x="338" y="242"/>
      <point x="338" y="423" type="curve" smooth="yes"/>
      <point x="338" y="460"/>
      <point x="344" y="508"/>
      <point x="355" y="566" type="curve" smooth="yes"/>
      <point x="517" y="1409" type="line"/>
      <point x="326" y="1409" type="line"/>
      <point x="176" y="635" type="line" smooth="yes"/>
      <point x="165" y="586"/>
      <point x="153" y="490"/>
      <point x="153" y="431" type="curve" smooth="yes"/>
      <point x="153" y="151"/>
      <point x="343" y="-20"/>
    </contour>
  </outline>
</glyph>
<glyph name="V" format="2">
  <advance width="1366"/>
  <unicode hex="0056"/>
  <note>
V
</note>
  <anchor x="780" y="1540" name="top"/>
  <anchor x="1400" y="1540" name="caronalt"/>
  <anchor x="580" y="-130" name="bottom"/>
  <anchor x="1300" y="1420" name="rhotic"/>
  <anchor x="1410" y="1300" name="horn"/>
  <anchor x="1366" y="1540" name="topdouble"/>
  <anchor x="1366" y="-380" name="bottomdouble"/>
  <anchor x="1479" y="1840" name="tophalfright"/>
  <anchor x="0" y="1840" name="tophalfleft"/>
  <anchor x="620" y="0" name="ogonek"/>
  <outline>
    <contour>
      <point x="1525" y="1409" type="line"/>
      <point x="1317" y="1409" type="line"/>
      <point x="737" y="417" type="line"/>
      <point x="693" y="334"/>
      <point x="648" y="251"/>
      <point x="604" y="168" type="curve"/>
      <point x="592" y="251"/>
      <point x="581" y="334"/>
      <point x="569" y="417" type="curve"/>
      <point x="371" y="1409" type="line"/>
      <point x="177" y="1409" type="line"/>
      <point x="479" y="0" type="line"/>
      <point x="677" y="0" type="line"/>
    </contour>
  </outline>
</glyph>
<glyph name="W" format="2">
  <advance width="1933"/>
  <unicode hex="0057"/>
  <note>
W
</note>
  <anchor x="1070" y="1540" name="gpos_18_mark_to_base__MARKCLASS_0_lookup_18"/>
  <anchor x="2000" y="1540" name="gpos_18_mark_to_base__MARKCLASS_1_lookup_18"/>
  <anchor x="870" y="-130" name="gpos_18_mark_to_base__MARKCLASS_2_lookup_18"/>
  <anchor x="1880" y="1420" name="gpos_20_mark_to_base__MARKCLASS_0_lookup_20"/>
  <anchor x="1980" y="1300" name="gpos_21_mark_to_base__MARKCLASS_0_lookup_21"/>
  <anchor x="1933" y="1540" name="gpos_22_mark_to_base__MARKCLASS_0_lookup_22"/>
  <anchor x="1933" y="-380" name="gpos_22_mark_to_base__MARKCLASS_1_lookup_22"/>
  <anchor x="1933" y="1840" name="gpos_23_mark_to_base__MARKCLASS_0_lookup_23"/>
  <anchor x="0" y="1840" name="gpos_23_mark_to_base__MARKCLASS_1_lookup_23"/>
  <anchor x="1300" y="0" name="gpos_24_mark_to_base__MARKCLASS_0_lookup_24"/>
  <outline>
    <contour>
      <point x="961" y="895" type="line" smooth="yes"/>
      <point x="1000" y="978"/>
      <point x="1045" y="1086"/>
      <point x="1096" y="1219" type="curve"/>
      <point x="1097" y="1186"/>
      <point x="1103" y="1078"/>
      <point x="1112" y="895" type="curve"/>
      <point x="1183" y="0" type="line"/>
      <point x="1406" y="0" type="line"/>
      <point x="2094" y="1409" type="line"/>
      <point x="1893" y="1409" type="line"/>
      <point x="1412" y="387" type="line"/>
      <point x="1392" y="341"/>
      <point x="1369" y="279"/>
      <point x="1318" y="168" type="curve"/>
      <point x="1316" y="308"/>
      <point x="1310" y="429"/>
      <point x="1301" y="532" type="curve" smooth="yes"/>
      <point x="1226" y="1409" type="line"/>
      <point x="1043" y="1409" type="line"/>
      <point x="600" y="470" type="line"/>
      <point x="565" y="394"/>
      <point x="522" y="293"/>
      <point x="469" y="168" type="curve"/>
      <point x="466" y="295"/>
      <point x="461" y="411"/>
      <point x="453" y="514" type="curve" smooth="yes"/>
      <point x="374" y="1409" type="line"/>
      <point x="177" y="1409" type="line"/>
      <point x="319" y="0" type="line"/>
      <point x="542" y="0" type="line"/>
    </contour>
  </outline>
</glyph>
<glyph name="X" format="2">
  <advance width="1366"/>
  <unicode hex="0058"/>
  <note>
X
</note>
  <anchor x="780" y="1540" name="top"/>
  <anchor x="1380" y="1540" name="caronalt"/>
  <anchor x="580" y="-130" name="bottom"/>
  <anchor x="1200" y="1420" name="rhotic"/>
  <anchor x="1290" y="1300" name="horn"/>
  <anchor x="1366" y="1540" name="topdouble"/>
  <anchor x="1366" y="-380" name="bottomdouble"/>
  <anchor x="1366" y="1840" name="tophalfright"/>
  <anchor x="0" y="1840" name="tophalfleft"/>
  <anchor x="1130" y="0" name="ogonek"/>
  <outline>
    <contour>
      <point x="999" y="0" type="line"/>
      <point x="1198" y="0" type="line"/>
      <point x="830" y="733" type="line"/>
      <point x="1430" y="1409" type="line"/>
      <point x="1219" y="1409" type="line"/>
      <point x="744" y="858" type="line"/>
      <point x="474" y="1409" type="line"/>
      <point x="275" y="1409" type="line"/>
      <point x="615" y="746" type="line"/>
      <point x="-39" y="0" type="line"/>
      <point x="172" y="0" type="line"/>
      <point x="696" y="606" type="line"/>
    </contour>
  </outline>
</glyph>
<glyph name="Y" format="2">
  <advance width="1366"/>
  <unicode hex="0059"/>
  <note>
Y
</note>
  <anchor x="780" y="1540" name="top"/>
  <anchor x="1400" y="1540" name="caronalt"/>
  <anchor x="580" y="-130" name="bottom"/>
  <anchor x="1251" y="1420" name="rhotic"/>
  <anchor x="1340" y="1300" name="horn"/>
  <anchor x="1366" y="1540" name="topdouble"/>
  <anchor x="1366" y="-380" name="bottomdouble"/>
  <anchor x="1366" y="1840" name="tophalfright"/>
  <anchor x="0" y="1840" name="tophalfleft"/>
  <anchor x="600" y="0" name="ogonek"/>
  <outline>
    <contour>
      <point x="785" y="584" type="line"/>
      <point x="1489" y="1409" type="line"/>
      <point x="1275" y="1409" type="line"/>
      <point x="715" y="735" type="line"/>
      <point x="409" y="1409" type="line"/>
      <point x="213" y="1409" type="line"/>
      <point x="597" y="584" type="line"/>
      <point x="482" y="0" type="line"/>
      <point x="672" y="0" type="line"/>
    </contour>
  </outline>
</glyph>
<glyph name="Z" format="2">
  <advance width="1251"/>
  <unicode hex="005A"/>
  <note>
Z
</note>
  <anchor x="700" y="1540" name="gpos_18_mark_to_base__MARKCLASS_0_lookup_18"/>
  <anchor x="1240" y="1540" name="gpos_18_mark_to_base__MARKCLASS_1_lookup_18"/>
  <anchor x="500" y="-130" name="gpos_18_mark_to_base__MARKCLASS_2_lookup_18"/>
  <anchor x="1130" y="1420" name="gpos_20_mark_to_base__MARKCLASS_0_lookup_20"/>
  <anchor x="1250" y="1300" name="gpos_21_mark_to_base__MARKCLASS_0_lookup_21"/>
  <anchor x="1251" y="1540" name="gpos_22_mark_to_base__MARKCLASS_0_lookup_22"/>
  <anchor x="1251" y="-380" name="gpos_22_mark_to_base__MARKCLASS_1_lookup_22"/>
  <anchor x="1251" y="1840" name="gpos_23_mark_to_base__MARKCLASS_0_lookup_23"/>
  <anchor x="0" y="1840" name="gpos_23_mark_to_base__MARKCLASS_1_lookup_23"/>
  <anchor x="1030" y="0" name="gpos_24_mark_to_base__MARKCLASS_0_lookup_24"/>
  <outline>
    <contour>
      <point x="1112" y="156" type="line"/>
      <point x="227" y="156" type="line"/>
      <point x="1281" y="1270" type="line"/>
      <point x="1308" y="1409" type="line"/>
      <point x="306" y="1409" type="line"/>
      <point x="276" y="1253" type="line"/>
      <point x="1041" y="1253" type="line"/>
      <point x="-13" y="143" type="line"/>
      <point x="-40" y="0" type="line"/>
      <point x="1082" y="0" type="line"/>
    </contour>
  </outline>
</glyph>
<glyph name="underscore" format="2">
  <advance width="1139"/>
  <unicode hex="005F"/>
  <note>
underscore
</note>
  <outline>
    <contour>
      <point x="-160" y="-250" type="line"/>
      <point x="1018" y="-250" type="line"/>
      <point x="1018" y="-174" type="line"/>
      <point x="-160" y="-174" type="line"/>
    </contour>
  </outline>
</glyph>
<glyph name="grave" format="2">
  <advance width="682"/>
  <unicode hex="0060"/>
  <note>
grave
</note>
  <outline>
    <contour>
      <point x="412" y="1201" type="line"/>
      <point x="500" y="1201" type="line"/>
      <point x="503" y="1221" type="line"/>
      <point x="342" y="1508" type="line"/>
      <point x="135" y="1508" type="line"/>
      <point x="130" y="1479" type="line"/>
    </contour>
  </outline>
</glyph>
<glyph name="b" format="2">
  <advance width="1139"/>
  <unicode hex="0062"/>
  <note>
b
</note>
  <outline>
    <contour>
      <point x="744" y="1102" type="qcurve" smooth="yes"/>
      <point x="625" y="1102"/>
      <point x="463" y="1016"/>
      <point x="390" y="921" type="qcurve"/>
      <point x="386" y="921" type="line"/>
      <point x="412" y="1015"/>
      <point x="420" y="1061" type="qcurve" smooth="yes"/>
      <point x="503" y="1484" type="line"/>
      <point x="323" y="1484" type="line"/>
      <point x="78" y="223" type="line" smooth="yes"/>
      <point x="63" y="149"/>
      <point x="34" y="15"/>
      <point x="29" y="0" type="qcurve"/>
      <point x="202" y="0" type="line"/>
      <point x="204" y="3"/>
      <point x="238" y="141"/>
      <point x="245" y="178" type="qcurve"/>
      <point x="248" y="178" type="line"/>
      <point x="280" y="84"/>
      <point x="434" y="-20"/>
      <point x="557" y="-20" type="qcurve" smooth="yes"/>
      <point x="730" y="-20"/>
      <point x="953" y="164"/>
      <point x="1076" y="545"/>
      <point x="1076" y="748" type="qcurve" smooth="yes"/>
      <point x="1076" y="913"/>
      <point x="901" y="1102"/>
    </contour>
    <contour>
      <point x="692" y="963" type="qcurve" smooth="yes"/>
      <point x="794" y="963"/>
      <point x="888" y="839"/>
      <point x="888" y="716" type="qcurve" smooth="yes"/>
      <point x="888" y="593"/>
      <point x="806" y="264"/>
      <point x="662" y="113"/>
      <point x="538" y="113" type="qcurve" smooth="yes"/>
      <point x="425" y="113"/>
      <point x="298" y="252"/>
      <point x="298" y="377" type="qcurve" smooth="yes"/>
      <point x="298" y="474"/>
      <point x="354" y="719"/>
      <point x="452" y="882"/>
      <point x="593" y="963"/>
    </contour>
  </outline>
</glyph>
<glyph name="c" format="2">
  <advance width="1024"/>
  <unicode hex="0063"/>
  <note>
c
</note>
  <anchor x="640" y="1200" name="gpos_18_mark_to_base__MARKCLASS_0_lookup_18"/>
  <anchor x="960" y="1200" name="gpos_18_mark_to_base__MARKCLASS_1_lookup_18"/>
  <anchor x="440" y="-130" name="gpos_18_mark_to_base__MARKCLASS_2_lookup_18"/>
  <anchor x="860" y="915" name="gpos_20_mark_to_base__MARKCLASS_0_lookup_20"/>
  <anchor x="960" y="800" name="gpos_21_mark_to_base__MARKCLASS_0_lookup_21"/>
  <anchor x="1024" y="1540" name="gpos_22_mark_to_base__MARKCLASS_0_lookup_22"/>
  <anchor x="1024" y="-380" name="gpos_22_mark_to_base__MARKCLASS_1_lookup_22"/>
  <anchor x="1024" y="1840" name="gpos_23_mark_to_base__MARKCLASS_0_lookup_23"/>
  <anchor x="0" y="1840" name="gpos_23_mark_to_base__MARKCLASS_1_lookup_23"/>
  <anchor x="580" y="0" name="gpos_24_mark_to_base__MARKCLASS_0_lookup_24"/>
  <outline>
    <contour>
      <point x="469" y="122" type="curve"/>
      <point x="324" y="122"/>
      <point x="251" y="211"/>
      <point x="251" y="389" type="curve" smooth="yes"/>
      <point x="251" y="453"/>
      <point x="257" y="521"/>
      <point x="271" y="587" type="curve" smooth="yes"/>
      <point x="324" y="842"/>
      <point x="423.30756970597224" y="961.0"/>
      <point x="619" y="961" type="curve" smooth="yes"/>
      <point x="740" y="961"/>
      <point x="816" y="888"/>
      <point x="824" y="759" type="curve"/>
      <point x="1001" y="784" type="line"/>
      <point x="988" y="981"/>
      <point x="850" y="1102"/>
      <point x="625" y="1102" type="curve" smooth="yes"/>
      <point x="393" y="1102"/>
      <point x="236" y="996"/>
      <point x="140" y="767" type="curve" smooth="yes"/>
      <point x="91" y="652"/>
      <point x="67" y="528"/>
      <point x="67" y="395" type="curve" smooth="yes"/>
      <point x="67" y="132"/>
      <point x="209" y="-20"/>
      <point x="465" y="-20" type="curve" smooth="yes"/>
      <point x="684" y="-20"/>
      <point x="833" y="88"/>
      <point x="914" y="303" type="curve"/>
      <point x="758" y="352" type="line"/>
      <point x="702" y="199"/>
      <point x="606" y="122"/>
    </contour>
  </outline>
</glyph>
<glyph name="d" format="2">
  <advance width="1139"/>
  <unicode hex="0064"/>
  <note>
d
</note>
  <anchor x="640" y="1540" name="gpos_18_mark_to_base__MARKCLASS_0_lookup_18"/>
  <anchor x="1100" y="1540" name="gpos_18_mark_to_base__MARKCLASS_1_lookup_18"/>
  <anchor x="440" y="-130" name="gpos_18_mark_to_base__MARKCLASS_2_lookup_18"/>
  <anchor x="1030" y="1500" name="gpos_20_mark_to_base__MARKCLASS_0_lookup_20"/>
  <anchor x="1100" y="1400" name="gpos_21_mark_to_base__MARKCLASS_0_lookup_21"/>
  <anchor x="1139" y="1540" name="gpos_22_mark_to_base__MARKCLASS_0_lookup_22"/>
  <anchor x="1139" y="-380" name="gpos_22_mark_to_base__MARKCLASS_1_lookup_22"/>
  <anchor x="1139" y="1840" name="gpos_23_mark_to_base__MARKCLASS_0_lookup_23"/>
  <anchor x="0" y="1840" name="gpos_23_mark_to_base__MARKCLASS_1_lookup_23"/>
  <anchor x="850" y="0" name="gpos_24_mark_to_base__MARKCLASS_0_lookup_24"/>
  <outline>
    <contour>
      <point x="401" y="-21" type="curve" smooth="yes"/>
      <point x="558" y="-21"/>
      <point x="657" y="33"/>
      <point x="754" y="160" type="curve"/>
      <point x="759" y="160" type="line"/>
      <point x="745" y="87"/>
      <point x="738" y="34"/>
      <point x="738" y="0" type="curve"/>
      <point x="910" y="0" type="line"/>
      <point x="916" y="55"/>
      <point x="929" y="129"/>
      <point x="948" y="223" type="curve" smooth="yes"/>
      <point x="1193" y="1484" type="line"/>
      <point x="1013" y="1484" type="line"/>
      <point x="931" y="1065" type="line"/>
      <point x="922" y="1011"/>
      <point x="912" y="957"/>
      <point x="903" y="903" type="curve"/>
      <point x="898" y="903" type="line"/>
      <point x="855" y="1028"/>
      <point x="752" y="1101"/>
      <point x="588" y="1101" type="curve" smooth="yes"/>
      <point x="357" y="1101"/>
      <point x="213" y="981"/>
      <point x="131" y="727" type="curve" smooth="yes"/>
      <point x="90" y="600"/>
      <point x="69" y="468"/>
      <point x="69" y="333" type="curve" smooth="yes"/>
      <point x="69" y="113"/>
      <point x="192" y="-21"/>
    </contour>
    <contour>
      <point x="453" y="118" type="curve" smooth="yes"/>
      <point x="317" y="118"/>
      <point x="257" y="201"/>
      <point x="257" y="365" type="curve" smooth="yes"/>
      <point x="257" y="537"/>
      <point x="319" y="799"/>
      <point x="414" y="896" type="curve" smooth="yes"/>
      <point x="461" y="944"/>
      <point x="526" y="968"/>
      <point x="607" y="968" type="curve" smooth="yes"/>
      <point x="758" y="968"/>
      <point x="847" y="871"/>
      <point x="847" y="704" type="curve" smooth="yes"/>
      <point x="847" y="575"/>
      <point x="807" y="389"/>
      <point x="742" y="281" type="curve" smooth="yes"/>
      <point x="677" y="172"/>
      <point x="585" y="118"/>
    </contour>
  </outline>
</glyph>
<glyph name="e" format="2">
  <advance width="1139"/>
  <unicode hex="0065"/>
  <note>
e
</note>
  <outline>
    <contour>
      <point x="256" y="503" type="qcurve"/>
      <point x="1039" y="503" type="line"/>
      <point x="1063" y="603"/>
      <point x="1063" y="708" type="qcurve" smooth="yes"/>
      <point x="1063" y="896"/>
      <point x="835" y="1102"/>
      <point x="630" y="1102" type="qcurve" smooth="yes"/>
      <point x="469" y="1102"/>
      <point x="211" y="925"/>
      <point x="69" y="606"/>
      <point x="69" y="405" type="qcurve" smooth="yes"/>
      <point x="69" y="203"/>
      <point x="292" y="-20"/>
      <point x="493" y="-20" type="qcurve" smooth="yes"/>
      <point x="653" y="-20"/>
      <point x="878" y="100"/>
      <point x="951" y="231" type="qcurve"/>
      <point x="813" y="294" type="line"/>
      <point x="769" y="211"/>
      <point x="611" y="115"/>
      <point x="514" y="115" type="qcurve" smooth="yes"/>
      <point x="380" y="115"/>
      <point x="247" y="257"/>
      <point x="247" y="390" type="qcurve" smooth="yes"/>
      <point x="250" y="468"/>
    </contour>
    <contour>
      <point x="880" y="641" type="line"/>
      <point x="280" y="641" type="line"/>
      <point x="317" y="798"/>
      <point x="500" y="969"/>
      <point x="634" y="969" type="qcurve" smooth="yes"/>
      <point x="755" y="969"/>
      <point x="884" y="837"/>
      <point x="884" y="713" type="qcurve"/>
    </contour>
  </outline>
</glyph>
<glyph name="f" format="2">
  <advance width="569"/>
  <unicode hex="0066"/>
  <note>
f
</note>
  <anchor x="440" y="1580" name="gpos_18_mark_to_base__MARKCLASS_0_lookup_18"/>
  <anchor x="660" y="1540" name="gpos_18_mark_to_base__MARKCLASS_1_lookup_18"/>
  <anchor x="180" y="-130" name="gpos_18_mark_to_base__MARKCLASS_2_lookup_18"/>
  <anchor x="600" y="1500" name="gpos_20_mark_to_base__MARKCLASS_0_lookup_20"/>
  <anchor x="650" y="1400" name="gpos_21_mark_to_base__MARKCLASS_0_lookup_21"/>
  <anchor x="569" y="1540" name="gpos_22_mark_to_base__MARKCLASS_0_lookup_22"/>
  <anchor x="569" y="-380" name="gpos_22_mark_to_base__MARKCLASS_1_lookup_22"/>
  <anchor x="569" y="1840" name="gpos_23_mark_to_base__MARKCLASS_0_lookup_23"/>
  <anchor x="0" y="1840" name="gpos_23_mark_to_base__MARKCLASS_1_lookup_23"/>
  <anchor x="200" y="0" name="gpos_24_mark_to_base__MARKCLASS_0_lookup_24"/>
  <outline>
    <contour>
      <point x="434" y="951" type="line"/>
      <point x="645" y="951" type="line"/>
      <point x="671" y="1082" type="line"/>
      <point x="460" y="1082" type="line"/>
      <point x="479" y="1179" type="line" smooth="yes"/>
      <point x="506" y="1311"/>
      <point x="544" y="1343"/>
      <point x="629" y="1343" type="curve" smooth="yes"/>
      <point x="644" y="1343"/>
      <point x="660" y="1342"/>
      <point x="675" y="1341" type="curve" smooth="yes"/>
      <point x="690" y="1339"/>
      <point x="705" y="1337"/>
      <point x="720" y="1335" type="curve"/>
      <point x="746" y="1472" type="line"/>
      <point x="713" y="1480"/>
      <point x="671" y="1484"/>
      <point x="622" y="1484" type="curve" smooth="yes"/>
      <point x="493" y="1484"/>
      <point x="414" y="1446"/>
      <point x="364" y="1372" type="curve" smooth="yes"/>
      <point x="339" y="1335"/>
      <point x="318" y="1279"/>
      <point x="303" y="1204" type="curve" smooth="yes"/>
      <point x="280" y="1082" type="line"/>
      <point x="128" y="1082" type="line"/>
      <point x="102" y="951" type="line"/>
      <point x="254" y="951" type="line"/>
      <point x="69" y="0" type="line"/>
      <point x="249" y="0" type="line"/>
    </contour>
  </outline>
</glyph>
<glyph name="g" format="2">
  <advance width="1139"/>
  <unicode hex="0067"/>
  <note>
g
</note>
  <outline>
    <contour>
      <point x="397" y="-425" type="qcurve" smooth="yes"/>
      <point x="615" y="-425"/>
      <point x="863" y="-211"/>
      <point x="911" y="31" type="qcurve" smooth="yes"/>
      <point x="1072" y="858" type="line"/>
      <point x="1102" y="1000" type="line"/>
      <point x="1121" y="1082" type="line"/>
      <point x="950" y="1082" type="line"/>
      <point x="945" y="1073"/>
      <point x="909" y="934"/>
      <point x="902" y="897" type="qcurve"/>
      <point x="900" y="897" type="line"/>
      <point x="876" y="987"/>
      <point x="709" y="1101"/>
      <point x="588" y="1101" type="qcurve" smooth="yes"/>
      <point x="461" y="1101"/>
      <point x="275" y="1004"/>
      <point x="145" y="800"/>
      <point x="70" y="492"/>
      <point x="70" y="359" type="qcurve" smooth="yes"/>
      <point x="70" y="193"/>
      <point x="257" y="-8"/>
      <point x="410" y="-8" type="qcurve" smooth="yes"/>
      <point x="487" y="-8"/>
      <point x="606" y="34"/>
      <point x="701" y="112"/>
      <point x="763" y="201" type="qcurve"/>
      <point x="765" y="201" type="line"/>
      <point x="731" y="27" type="line" smooth="yes"/>
      <point x="699" y="-141"/>
      <point x="543" y="-288"/>
      <point x="401" y="-288" type="qcurve" smooth="yes"/>
      <point x="202" y="-288"/>
      <point x="167" y="-131" type="qcurve"/>
      <point x="4" y="-173" type="line"/>
      <point x="58" y="-425"/>
    </contour>
    <contour>
      <point x="259" y="373" type="qcurve" smooth="yes"/>
      <point x="259" y="473"/>
      <point x="315" y="736"/>
      <point x="397" y="894"/>
      <point x="517" y="968"/>
      <point x="607" y="968" type="qcurve" smooth="yes"/>
      <point x="719" y="968"/>
      <point x="847" y="829"/>
      <point x="847" y="704" type="qcurve" smooth="yes"/>
      <point x="847" y="556"/>
      <point x="750" y="282"/>
      <point x="574" y="125"/>
      <point x="466" y="125" type="qcurve" smooth="yes"/>
      <point x="364" y="125"/>
      <point x="259" y="252"/>
    </contour>
  </outline>
</glyph>
<glyph name="h" format="2">
  <advance width="1139"/>
  <unicode hex="0068"/>
  <note>
h
</note>
  <anchor x="700" y="1540" name="gpos_18_mark_to_base__MARKCLASS_0_lookup_18"/>
  <anchor x="1040" y="1540" name="gpos_18_mark_to_base__MARKCLASS_1_lookup_18"/>
  <anchor x="440" y="-130" name="gpos_18_mark_to_base__MARKCLASS_2_lookup_18"/>
  <anchor x="950" y="900" name="gpos_20_mark_to_base__MARKCLASS_0_lookup_20"/>
  <anchor x="1000" y="800" name="gpos_21_mark_to_base__MARKCLASS_0_lookup_21"/>
  <anchor x="1139" y="1540" name="gpos_22_mark_to_base__MARKCLASS_0_lookup_22"/>
  <anchor x="1139" y="-380" name="gpos_22_mark_to_base__MARKCLASS_1_lookup_22"/>
  <anchor x="1139" y="1840" name="gpos_23_mark_to_base__MARKCLASS_0_lookup_23"/>
  <anchor x="0" y="1840" name="gpos_23_mark_to_base__MARKCLASS_1_lookup_23"/>
  <anchor x="850" y="0" name="gpos_24_mark_to_base__MARKCLASS_0_lookup_24"/>
  <outline>
    <contour>
      <point x="383" y="897" type="curve"/>
      <point x="380" y="897" type="line"/>
      <point x="399" y="964"/>
      <point x="415" y="1031"/>
      <point x="427" y="1098" type="curve" smooth="yes"/>
      <point x="502" y="1484" type="line"/>
      <point x="322" y="1484" type="line"/>
      <point x="34" y="0" type="line"/>
      <point x="213" y="0" type="line"/>
      <point x="331" y="606" type="line" smooth="yes"/>
      <point x="374" y="825"/>
      <point x="513" y="962"/>
      <point x="681" y="962" type="curve" smooth="yes"/>
      <point x="800" y="962"/>
      <point x="860" y="906"/>
      <point x="860" y="795" type="curve" smooth="yes"/>
      <point x="860" y="754"/>
      <point x="854" y="704"/>
      <point x="842" y="645" type="curve" smooth="yes"/>
      <point x="716" y="0" type="line"/>
      <point x="897" y="0" type="line"/>
      <point x="1024" y="653" type="line" smooth="yes"/>
      <point x="1038" y="720"/>
      <point x="1045" y="774"/>
      <point x="1045" y="817" type="curve" smooth="yes"/>
      <point x="1045" y="1001"/>
      <point x="945" y="1101"/>
      <point x="748" y="1101" type="curve" smooth="yes"/>
      <point x="595" y="1101"/>
      <point x="494" y="1050"/>
    </contour>
  </outline>
</glyph>
<glyph name="i" format="2">
  <advance width="455"/>
  <unicode hex="0069"/>
  <note>
i
</note>
  <outline>
    <contour>
      <point x="287" y="1312" type="line"/>
      <point x="467" y="1312" type="line"/>
      <point x="501" y="1484" type="line"/>
      <point x="321" y="1484" type="line"/>
    </contour>
    <contour>
      <point x="33" y="0" type="line"/>
      <point x="212" y="0" type="line"/>
      <point x="423" y="1082" type="line"/>
      <point x="243" y="1082" type="line"/>
    </contour>
  </outline>
</glyph>
<glyph name="j" format="2">
  <advance width="455"/>
  <unicode hex="006A"/>
  <note>
j
</note>
  <outline>
    <contour>
      <point x="289" y="1312" type="line"/>
      <point x="469" y="1312" type="line"/>
      <point x="502" y="1484" type="line"/>
      <point x="322" y="1484" type="line"/>
    </contour>
    <contour>
      <point x="-100" y="-425" type="qcurve" smooth="yes"/>
      <point x="16" y="-425"/>
      <point x="156" y="-292"/>
      <point x="187" y="-134" type="qcurve" smooth="yes"/>
      <point x="424" y="1082" type="line"/>
      <point x="244" y="1082" type="line"/>
      <point x="13" y="-107" type="line" smooth="yes"/>
      <point x="-4" y="-199"/>
      <point x="-64" y="-283"/>
      <point x="-123" y="-283" type="qcurve" smooth="yes"/>
      <point x="-154" y="-283"/>
      <point x="-206" y="-275" type="qcurve"/>
      <point x="-229" y="-411" type="line"/>
      <point x="-156" y="-425"/>
    </contour>
  </outline>
</glyph>
<glyph name="k" format="2">
  <advance width="1024"/>
  <unicode hex="006B"/>
  <note>
k
</note>
  <anchor x="660" y="1540" name="top"/>
  <anchor x="1060" y="1540" name="caronalt"/>
  <anchor x="440" y="-130" name="bottom"/>
  <anchor x="860" y="1100" name="rhotic"/>
  <anchor x="960" y="1000" name="horn"/>
  <anchor x="1024" y="1540" name="topdouble"/>
  <anchor x="1024" y="-380" name="bottomdouble"/>
  <anchor x="1024" y="1840" name="tophalfright"/>
  <anchor x="0" y="1840" name="tophalfleft"/>
  <anchor x="830" y="0" name="ogonek"/>
  <outline>
    <contour>
      <point x="285" y="378" type="line"/>
      <point x="453" y="502" type="line"/>
      <point x="721" y="0" type="line"/>
      <point x="916" y="0" type="line"/>
      <point x="580" y="617" type="line"/>
      <point x="1110" y="1082" type="line"/>
      <point x="888" y="1082" type="line"/>
      <point x="527" y="757" type="line"/>
      <point x="323" y="567" type="line"/>
      <point x="502" y="1484" type="line"/>
      <point x="322" y="1484" type="line"/>
      <point x="34" y="0" type="line"/>
      <point x="213" y="0" type="line"/>
    </contour>
  </outline>
</glyph>
<glyph name="l" format="2">
  <advance width="455"/>
  <unicode hex="006C"/>
  <note>
l
</note>
  <anchor x="340" y="1580" name="top"/>
  <anchor x="420" y="1540" name="caronalt"/>
  <anchor x="140" y="-130" name="bottom"/>
  <anchor x="340" y="1500" name="rhotic"/>
  <anchor x="410" y="1400" name="horn"/>
  <anchor x="455" y="1540" name="topdouble"/>
  <anchor x="455" y="-380" name="bottomdouble"/>
  <anchor x="455" y="1840" name="tophalfright"/>
  <anchor x="0" y="1840" name="tophalfleft"/>
  <anchor x="160" y="0" name="ogonek"/>
  <outline>
    <contour>
      <point x="501" y="1484" type="line"/>
      <point x="321" y="1484" type="line"/>
      <point x="33" y="0" type="line"/>
      <point x="212" y="0" type="line"/>
    </contour>
  </outline>
</glyph>
<glyph name="m" format="2">
  <advance width="1706"/>
  <unicode hex="006D"/>
  <note>
m
</note>
  <outline>
    <contour>
      <point x="660" y="0" type="line"/>
      <point x="838" y="0" type="line"/>
      <point x="956" y="607" type="line" smooth="yes"/>
      <point x="984" y="767"/>
      <point x="1156" y="962"/>
      <point x="1272" y="962" type="qcurve" smooth="yes"/>
      <point x="1358" y="962"/>
      <point x="1434" y="883"/>
      <point x="1434" y="808" type="qcurve" smooth="yes"/>
      <point x="1434" y="759"/>
      <point x="1409" y="634" type="qcurve" smooth="yes"/>
      <point x="1285" y="0" type="line"/>
      <point x="1463" y="0" type="line"/>
      <point x="1590" y="653" type="line" smooth="yes"/>
      <point x="1611" y="753"/>
      <point x="1611" y="817" type="qcurve" smooth="yes"/>
      <point x="1611" y="955"/>
      <point x="1466" y="1101"/>
      <point x="1331" y="1101" type="qcurve" smooth="yes"/>
      <point x="1227" y="1101"/>
      <point x="1066" y="999"/>
      <point x="983" y="869" type="qcurve"/>
      <point x="969" y="982"/>
      <point x="827" y="1101"/>
      <point x="706" y="1101" type="qcurve" smooth="yes"/>
      <point x="604" y="1101"/>
      <point x="457" y="1011"/>
      <point x="384" y="897" type="qcurve"/>
      <point x="381" y="897" type="line"/>
      <point x="388" y="938"/>
      <point x="409" y="1071"/>
      <point x="409" y="1082" type="qcurve"/>
      <point x="239" y="1082" type="line"/>
      <point x="220" y="946"/>
      <point x="200" y="851" type="qcurve" smooth="yes"/>
      <point x="34" y="0" type="line"/>
      <point x="213" y="0" type="line"/>
      <point x="331" y="604" type="line"/>
      <point x="358" y="764"/>
      <point x="531" y="962"/>
      <point x="647" y="962" type="qcurve" smooth="yes"/>
      <point x="733" y="962"/>
      <point x="809" y="883"/>
      <point x="809" y="808" type="qcurve" smooth="yes"/>
      <point x="809" y="759"/>
      <point x="784" y="634" type="qcurve" smooth="yes"/>
    </contour>
  </outline>
</glyph>
<glyph name="o" format="2">
  <advance width="1139"/>
  <unicode hex="006F"/>
  <note>
o
</note>
  <anchor x="660" y="1200" name="gpos_18_mark_to_base__MARKCLASS_0_lookup_18"/>
  <anchor x="1000" y="1200" name="gpos_18_mark_to_base__MARKCLASS_1_lookup_18"/>
  <anchor x="460" y="-130" name="gpos_18_mark_to_base__MARKCLASS_2_lookup_18"/>
  <anchor x="950" y="900" name="gpos_20_mark_to_base__MARKCLASS_0_lookup_20"/>
  <anchor x="1010" y="800" name="gpos_21_mark_to_base__MARKCLASS_0_lookup_21"/>
  <anchor x="1139" y="1540" name="gpos_22_mark_to_base__MARKCLASS_0_lookup_22"/>
  <anchor x="1139" y="-380" name="gpos_22_mark_to_base__MARKCLASS_1_lookup_22"/>
  <anchor x="1139" y="1840" name="gpos_23_mark_to_base__MARKCLASS_0_lookup_23"/>
  <anchor x="0" y="1840" name="gpos_23_mark_to_base__MARKCLASS_1_lookup_23"/>
  <anchor x="680" y="0" name="gpos_24_mark_to_base__MARKCLASS_0_lookup_24"/>
  <outline>
    <contour>
      <point x="1074" y="683" type="curve"/>
      <point x="1074" y="948"/>
      <point x="922" y="1101"/>
      <point x="642" y="1101" type="curve" smooth="yes"/>
      <point x="398" y="1101"/>
      <point x="234" y="992"/>
      <point x="141" y="781" type="curve" smooth="yes"/>
      <point x="94" y="676"/>
      <point x="70" y="555"/>
      <point x="67" y="419" type="curve" smooth="yes"/>
      <point x="67" y="148"/>
      <point x="230" y="-20"/>
      <point x="491" y="-20" type="curve" smooth="yes"/>
      <point x="675" y="-20"/>
      <point x="820" y="45"/>
      <point x="920" y="175" type="curve" smooth="yes"/>
      <point x="1019" y="305"/>
      <point x="1074" y="510"/>
    </contour>
    <contour>
      <point x="888" y="683" type="curve"/>
      <point x="881" y="515"/>
      <point x="840" y="354"/>
      <point x="777" y="256" type="curve" smooth="yes"/>
      <point x="714" y="158"/>
      <point x="639" y="113"/>
      <point x="502" y="113" type="curve" smooth="yes"/>
      <point x="339" y="113"/>
      <point x="252" y="219"/>
      <point x="252" y="416" type="curve" smooth="yes"/>
      <point x="252" y="592"/>
      <point x="315" y="807"/>
      <point x="424" y="900" type="curve" smooth="yes"/>
      <point x="478" y="946"/>
      <point x="550" y="969"/>
      <point x="640" y="969" type="curve" smooth="yes"/>
      <point x="805" y="969"/>
      <point x="888" y="874"/>
    </contour>
  </outline>
</glyph>
<glyph name="q" format="2">
  <advance width="1139"/>
  <unicode hex="0071"/>
  <note>
q
</note>
  <outline>
    <contour>
      <point x="401" y="-21" type="qcurve" smooth="yes"/>
      <point x="520" y="-21"/>
      <point x="682" y="65"/>
      <point x="755" y="160" type="qcurve"/>
      <point x="759" y="160" type="line"/>
      <point x="727" y="14" type="line"/>
      <point x="642" y="-425" type="line"/>
      <point x="822" y="-425" type="line"/>
      <point x="1060" y="801" type="line" smooth="yes"/>
      <point x="1102" y="1018"/>
      <point x="1125" y="1096" type="qcurve"/>
      <point x="952" y="1096" type="line"/>
      <point x="946" y="1085"/>
      <point x="914" y="957"/>
      <point x="903" y="903" type="qcurve"/>
      <point x="898" y="903" type="line"/>
      <point x="866" y="997"/>
      <point x="711" y="1101"/>
      <point x="588" y="1101" type="qcurve" smooth="yes"/>
      <point x="415" y="1101"/>
      <point x="192" y="917"/>
      <point x="69" y="536"/>
      <point x="69" y="333" type="qcurve" smooth="yes"/>
      <point x="69" y="168"/>
      <point x="244" y="-21"/>
    </contour>
    <contour>
      <point x="453" y="118" type="qcurve" smooth="yes"/>
      <point x="351" y="118"/>
      <point x="257" y="242"/>
      <point x="257" y="365" type="qcurve" smooth="yes"/>
      <point x="257" y="494"/>
      <point x="343" y="823"/>
      <point x="485" y="968"/>
      <point x="607" y="968" type="qcurve" smooth="yes"/>
      <point x="720" y="968"/>
      <point x="847" y="829"/>
      <point x="847" y="704" type="qcurve" smooth="yes"/>
      <point x="847" y="607"/>
      <point x="791" y="362"/>
      <point x="693" y="199"/>
      <point x="552" y="118"/>
    </contour>
  </outline>
</glyph>
<glyph name="r" format="2">
  <advance width="682"/>
  <unicode hex="0072"/>
  <note>
r
</note>
  <outline>
    <contour>
      <point x="718" y="938" type="qcurve"/>
      <point x="751" y="1088" type="line"/>
      <point x="702" y="1102"/>
      <point x="656" y="1102" type="qcurve" smooth="yes"/>
      <point x="572" y="1102"/>
      <point x="444" y="994"/>
      <point x="378" y="861" type="qcurve"/>
      <point x="374" y="861" type="line"/>
      <point x="409" y="1082" type="line"/>
      <point x="239" y="1082" type="line"/>
      <point x="221" y="968" type="line"/>
      <point x="196" y="830" type="line"/>
      <point x="34" y="0" type="line"/>
      <point x="214" y="0" type="line"/>
      <point x="324" y="564" type="line" smooth="yes"/>
      <point x="354" y="731"/>
      <point x="523" y="951"/>
      <point x="628" y="951" type="qcurve" smooth="yes"/>
      <point x="674" y="951"/>
    </contour>
  </outline>
</glyph>
<glyph name="s" format="2">
  <advance width="1024"/>
  <unicode hex="0073"/>
  <note>
s
</note>
  <anchor x="600" y="1200" name="gpos_18_mark_to_base__MARKCLASS_0_lookup_18"/>
  <anchor x="940" y="1200" name="gpos_18_mark_to_base__MARKCLASS_1_lookup_18"/>
  <anchor x="400" y="-130" name="gpos_18_mark_to_base__MARKCLASS_2_lookup_18"/>
  <anchor x="861" y="950" name="gpos_20_mark_to_base__MARKCLASS_0_lookup_20"/>
  <anchor x="920" y="800" name="gpos_21_mark_to_base__MARKCLASS_0_lookup_21"/>
  <anchor x="1024" y="1540" name="gpos_22_mark_to_base__MARKCLASS_0_lookup_22"/>
  <anchor x="1024" y="-380" name="gpos_22_mark_to_base__MARKCLASS_1_lookup_22"/>
  <anchor x="1024" y="1840" name="gpos_23_mark_to_base__MARKCLASS_0_lookup_23"/>
  <anchor x="0" y="1840" name="gpos_23_mark_to_base__MARKCLASS_1_lookup_23"/>
  <anchor x="550" y="0" name="gpos_24_mark_to_base__MARKCLASS_0_lookup_24"/>
  <outline>
    <contour>
      <point x="907" y="317" type="curve" smooth="yes"/>
      <point x="907" y="418"/>
      <point x="857" y="491"/>
      <point x="771" y="546" type="curve" smooth="yes"/>
      <point x="728" y="573"/>
      <point x="664" y="600"/>
      <point x="579" y="627" type="curve" smooth="yes"/>
      <point x="484" y="657"/>
      <point x="423" y="680"/>
      <point x="397" y="695" type="curve" smooth="yes"/>
      <point x="344" y="725"/>
      <point x="315" y="761"/>
      <point x="315" y="817" type="curve" smooth="yes"/>
      <point x="315" y="913"/>
      <point x="407" y="968"/>
      <point x="572" y="968" type="curve" smooth="yes"/>
      <point x="709" y="968"/>
      <point x="790" y="924"/>
      <point x="819" y="819" type="curve"/>
      <point x="982" y="844" type="line"/>
      <point x="953" y="1014"/>
      <point x="820" y="1099"/>
      <point x="584" y="1099" type="curve" smooth="yes"/>
      <point x="303" y="1099"/>
      <point x="141" y="990"/>
      <point x="141" y="797" type="curve" smooth="yes"/>
      <point x="141" y="702"/>
      <point x="188" y="632"/>
      <point x="273" y="579" type="curve" smooth="yes"/>
      <point x="316" y="552"/>
      <point x="380" y="525"/>
      <point x="465" y="497" type="curve" smooth="yes"/>
      <point x="575" y="463"/>
      <point x="647" y="432"/>
      <point x="681" y="405" type="curve" smooth="yes"/>
      <point x="715" y="377"/>
      <point x="732" y="342"/>
      <point x="732" y="301" type="curve" smooth="yes"/>
      <point x="732" y="177"/>
      <point x="632" y="111"/>
      <point x="441" y="111" type="curve" smooth="yes"/>
      <point x="285" y="111"/>
      <point x="196" y="162"/>
      <point x="152" y="279" type="curve"/>
      <point x="5" y="223" type="line"/>
      <point x="60" y="55"/>
      <point x="193" y="-20"/>
      <point x="425" y="-20" type="curve" smooth="yes"/>
      <point x="737" y="-20"/>
      <point x="907" y="101"/>
    </contour>
  </outline>
</glyph>
<glyph name="t" format="2">
  <advance width="569"/>
  <unicode hex="0074"/>
  <note>
t
</note>
  <outline>
    <contour>
      <point x="275" y="-20" type="qcurve" smooth="yes"/>
      <point x="349" y="-20"/>
      <point x="448" y="4" type="qcurve"/>
      <point x="467" y="137" type="line"/>
      <point x="409" y="123"/>
      <point x="367" y="123" type="qcurve" smooth="yes"/>
      <point x="277" y="123"/>
      <point x="277" y="211" type="qcurve" smooth="yes"/>
      <point x="277" y="246"/>
      <point x="289" y="306" type="qcurve" smooth="yes"/>
      <point x="414" y="951" type="line"/>
      <point x="614" y="951" type="line"/>
      <point x="640" y="1082" type="line"/>
      <point x="440" y="1082" type="line"/>
      <point x="487" y="1324" type="line"/>
      <point x="367" y="1324" type="line"/>
      <point x="262" y="1082" type="line"/>
      <point x="135" y="1082" type="line"/>
      <point x="109" y="951" type="line"/>
      <point x="234" y="951" type="line"/>
      <point x="108" y="296" type="line" smooth="yes"/>
      <point x="93" y="221"/>
      <point x="93" y="166" type="qcurve" smooth="yes"/>
      <point x="93" y="82"/>
      <point x="190" y="-20"/>
    </contour>
  </outline>
</glyph>
<glyph name="v" format="2">
  <advance width="1024"/>
  <unicode hex="0076"/>
  <note>
v
</note>
  <anchor x="600" y="1200" name="gpos_18_mark_to_base__MARKCLASS_0_lookup_18"/>
  <anchor x="1080" y="1200" name="gpos_18_mark_to_base__MARKCLASS_1_lookup_18"/>
  <anchor x="400" y="-130" name="gpos_18_mark_to_base__MARKCLASS_2_lookup_18"/>
  <anchor x="950" y="1100" name="gpos_20_mark_to_base__MARKCLASS_0_lookup_20"/>
  <anchor x="1010" y="1000" name="gpos_21_mark_to_base__MARKCLASS_0_lookup_21"/>
  <anchor x="1024" y="1540" name="gpos_22_mark_to_base__MARKCLASS_0_lookup_22"/>
  <anchor x="1024" y="-380" name="gpos_22_mark_to_base__MARKCLASS_1_lookup_22"/>
  <anchor x="1024" y="1840" name="gpos_23_mark_to_base__MARKCLASS_0_lookup_23"/>
  <anchor x="0" y="1840" name="gpos_23_mark_to_base__MARKCLASS_1_lookup_23"/>
  <anchor x="440" y="0" name="gpos_24_mark_to_base__MARKCLASS_0_lookup_24"/>
  <outline>
    <contour>
      <point x="1122" y="1082" type="line"/>
      <point x="926" y="1082" type="line"/>
      <point x="542" y="376" type="line" smooth="yes"/>
      <point x="510" y="317"/>
      <point x="479" y="257"/>
      <point x="449" y="194" type="curve" smooth="yes"/>
      <point x="423" y="141" type="line"/>
      <point x="419" y="194" type="line" smooth="yes"/>
      <point x="412" y="271"/>
      <point x="406" y="333"/>
      <point x="400" y="378" type="curve" smooth="yes"/>
      <point x="299" y="1082" type="line"/>
      <point x="112" y="1082" type="line"/>
      <point x="294" y="0" type="line"/>
      <point x="507" y="0" type="line"/>
    </contour>
  </outline>
</glyph>
<glyph name="w" format="2">
  <advance width="1479"/>
  <unicode hex="0077"/>
  <note>
w
</note>
  <outline>
    <contour>
      <point x="1068" y="0" type="line"/>
      <point x="1589" y="1082" type="line"/>
      <point x="1413" y="1082" type="line"/>
      <point x="1025" y="228"/>
      <point x="992" y="149" type="qcurve"/>
      <point x="992" y="231"/>
      <point x="986" y="339" type="qcurve" smooth="yes"/>
      <point x="942" y="1082" type="line"/>
      <point x="749" y="1082" type="line"/>
      <point x="408" y="339" type="line"/>
      <point x="327" y="149" type="line"/>
      <point x="320" y="347" type="line"/>
      <point x="280" y="1082" type="line"/>
      <point x="102" y="1082" type="line"/>
      <point x="194" y="0" type="line"/>
      <point x="402" y="0" type="line"/>
      <point x="738" y="746"/>
      <point x="786" y="859"/>
      <point x="816" y="934" type="qcurve"/>
      <point x="822" y="698" type="line"/>
      <point x="859" y="0" type="line"/>
    </contour>
  </outline>
</glyph>
<glyph name="x" format="2">
  <advance width="1024"/>
  <unicode hex="0078"/>
  <note>
x
</note>
  <anchor x="600" y="1200" name="gpos_18_mark_to_base__MARKCLASS_0_lookup_18"/>
  <anchor x="1040" y="1200" name="gpos_18_mark_to_base__MARKCLASS_1_lookup_18"/>
  <anchor x="400" y="-130" name="gpos_18_mark_to_base__MARKCLASS_2_lookup_18"/>
  <anchor x="880" y="1100" name="gpos_20_mark_to_base__MARKCLASS_0_lookup_20"/>
  <anchor x="960" y="1000" name="gpos_21_mark_to_base__MARKCLASS_0_lookup_21"/>
  <anchor x="1024" y="1540" name="gpos_22_mark_to_base__MARKCLASS_0_lookup_22"/>
  <anchor x="1024" y="-380" name="gpos_22_mark_to_base__MARKCLASS_1_lookup_22"/>
  <anchor x="1024" y="1840" name="gpos_23_mark_to_base__MARKCLASS_0_lookup_23"/>
  <anchor x="0" y="1840" name="gpos_23_mark_to_base__MARKCLASS_1_lookup_23"/>
  <anchor x="820" y="0" name="gpos_24_mark_to_base__MARKCLASS_0_lookup_24"/>
  <outline>
    <contour>
      <point x="497" y="444" type="line"/>
      <point x="706" y="0" type="line"/>
      <point x="896" y="0" type="line"/>
      <point x="615" y="558" type="line"/>
      <point x="1084" y="1082" type="line"/>
      <point x="878" y="1082" type="line"/>
      <point x="528" y="661" type="line"/>
      <point x="335" y="1082" type="line"/>
      <point x="146" y="1082" type="line"/>
      <point x="410" y="556" type="line"/>
      <point x="-82" y="0" type="line"/>
      <point x="117" y="0" type="line"/>
    </contour>
  </outline>
</glyph>
<glyph name="y" format="2">
  <advance width="1024"/>
  <unicode hex="0079"/>
  <note>
y
</note>
  <anchor x="600" y="1200" name="gpos_18_mark_to_base__MARKCLASS_0_lookup_18"/>
  <anchor x="1080" y="1200" name="gpos_18_mark_to_base__MARKCLASS_1_lookup_18"/>
  <anchor x="360" y="-540" name="gpos_18_mark_to_base__MARKCLASS_2_lookup_18"/>
  <anchor x="960" y="1100" name="gpos_20_mark_to_base__MARKCLASS_0_lookup_20"/>
  <anchor x="1010" y="1000" name="gpos_21_mark_to_base__MARKCLASS_0_lookup_21"/>
  <anchor x="1024" y="1540" name="gpos_22_mark_to_base__MARKCLASS_0_lookup_22"/>
  <anchor x="1024" y="-380" name="gpos_22_mark_to_base__MARKCLASS_1_lookup_22"/>
  <anchor x="1024" y="1840" name="gpos_23_mark_to_base__MARKCLASS_0_lookup_23"/>
  <anchor x="0" y="1840" name="gpos_23_mark_to_base__MARKCLASS_1_lookup_23"/>
  <anchor x="140" y="-400" name="gpos_24_mark_to_base__MARKCLASS_0_lookup_24"/>
  <outline>
    <contour>
      <point x="16" y="-425" type="curve"/>
      <point x="139" y="-425"/>
      <point x="233" y="-374"/>
      <point x="323" y="-270" type="curve" smooth="yes"/>
      <point x="368" y="-219"/>
      <point x="427" y="-129"/>
      <point x="501" y="0" type="curve" smooth="yes"/>
      <point x="1127" y="1082" type="line"/>
      <point x="928" y="1082" type="line"/>
      <point x="597" y="475" type="line"/>
      <point x="475" y="250" type="line"/>
      <point x="464" y="229"/>
      <point x="456" y="211"/>
      <point x="449" y="196" type="curve"/>
      <point x="448" y="232"/>
      <point x="427" y="377"/>
      <point x="407" y="484" type="curve" smooth="yes"/>
      <point x="295" y="1082" type="line"/>
      <point x="112" y="1082" type="line"/>
      <point x="329" y="12" type="line"/>
      <point x="302" y="-35" type="line" smooth="yes"/>
      <point x="209" y="-198"/>
      <point x="119" y="-285"/>
      <point x="-8" y="-285" type="curve" smooth="yes"/>
      <point x="-29" y="-285"/>
      <point x="-55" y="-282"/>
      <point x="-85" y="-277" type="curve"/>
      <point x="-116" y="-411" type="line"/>
      <point x="-76" y="-420"/>
      <point x="-32" y="-425"/>
    </contour>
  </outline>
</glyph>
<glyph name="z" format="2">
  <advance width="1024"/>
  <unicode hex="007A"/>
  <note>
z
</note>
  <anchor x="560" y="1200" name="gpos_18_mark_to_base__MARKCLASS_0_lookup_18"/>
  <anchor x="960" y="1200" name="gpos_18_mark_to_base__MARKCLASS_1_lookup_18"/>
  <anchor x="400" y="-130" name="gpos_18_mark_to_base__MARKCLASS_2_lookup_18"/>
  <anchor x="880" y="1100" name="gpos_20_mark_to_base__MARKCLASS_0_lookup_20"/>
  <anchor x="920" y="1000" name="gpos_21_mark_to_base__MARKCLASS_0_lookup_21"/>
  <anchor x="1024" y="1540" name="gpos_22_mark_to_base__MARKCLASS_0_lookup_22"/>
  <anchor x="1024" y="-380" name="gpos_22_mark_to_base__MARKCLASS_1_lookup_22"/>
  <anchor x="1024" y="1840" name="gpos_23_mark_to_base__MARKCLASS_0_lookup_23"/>
  <anchor x="0" y="1840" name="gpos_23_mark_to_base__MARKCLASS_1_lookup_23"/>
  <anchor x="740" y="0" name="gpos_24_mark_to_base__MARKCLASS_0_lookup_24"/>
  <outline>
    <contour>
      <point x="851" y="139" type="line"/>
      <point x="230" y="139" type="line"/>
      <point x="972" y="945" type="line"/>
      <point x="996" y="1082" type="line"/>
      <point x="212" y="1082" type="line"/>
      <point x="187" y="943" type="line"/>
      <point x="753" y="943" type="line"/>
      <point x="11" y="137" type="line"/>
      <point x="-12" y="0" type="line"/>
      <point x="826" y="0" type="line"/>
    </contour>
  </outline>
</glyph>
<glyph name="braceleft" format="2">
  <advance width="684"/>
  <unicode hex="007B"/>
  <note>
braceleft
</note>
  <outline>
    <contour>
      <point x="366" y="-425" type="qcurve" smooth="yes"/>
      <point x="462" y="-425" type="line"/>
      <point x="487" y="-296" type="line"/>
      <point x="439" y="-296" type="line" smooth="yes"/>
      <point x="362" y="-296"/>
      <point x="293" y="-227"/>
      <point x="293" y="-171" type="qcurve" smooth="yes"/>
      <point x="293" y="-165" type="line" smooth="yes"/>
      <point x="294" y="-148"/>
      <point x="301" y="-67"/>
      <point x="306" y="-43" type="qcurve" smooth="yes"/>
      <point x="367" y="276" type="line" smooth="yes"/>
      <point x="373" y="308"/>
      <point x="373" y="335" type="qcurve" smooth="yes"/>
      <point x="373" y="413"/>
      <point x="292" y="513"/>
      <point x="223" y="530" type="qcurve"/>
      <point x="223" y="532" type="line"/>
      <point x="316" y="554"/>
      <point x="447" y="689"/>
      <point x="466" y="784" type="qcurve" smooth="yes"/>
      <point x="535" y="1140" type="line" smooth="yes"/>
      <point x="559" y="1261"/>
      <point x="656" y="1355"/>
      <point x="745" y="1355" type="qcurve" smooth="yes"/>
      <point x="808" y="1355" type="line"/>
      <point x="833" y="1484" type="line"/>
      <point x="698" y="1484" type="line" smooth="yes"/>
      <point x="556" y="1484"/>
      <point x="405" y="1334"/>
      <point x="377" y="1191" type="qcurve" smooth="yes"/>
      <point x="307" y="829" type="line" smooth="yes"/>
      <point x="284" y="712"/>
      <point x="156" y="597"/>
      <point x="46" y="593" type="qcurve"/>
      <point x="21" y="466" type="line"/>
      <point x="106" y="462"/>
      <point x="199" y="389"/>
      <point x="199" y="306" type="qcurve" smooth="yes"/>
      <point x="199" y="273"/>
      <point x="190" y="229" type="qcurve" smooth="yes"/>
      <point x="134" y="-58" type="line" smooth="yes"/>
      <point x="124" y="-113"/>
      <point x="124" y="-175" type="qcurve" smooth="yes"/>
      <point x="124" y="-292"/>
      <point x="255" y="-425"/>
    </contour>
  </outline>
</glyph>
<glyph name="bar" format="2">
  <advance width="532"/>
  <unicode hex="007C"/>
  <note>
bar
</note>
  <outline>
    <contour>
      <point x="213" y="-454" type="line"/>
      <point x="379" y="-454" type="line"/>
      <point x="379" y="1484" type="line"/>
      <point x="213" y="1484" type="line"/>
    </contour>
  </outline>
</glyph>
<glyph name="braceright" format="2">
  <advance width="684"/>
  <unicode hex="007D"/>
  <note>
braceright
</note>
  <outline>
    <contour>
      <point x="308" y="1484" type="qcurve" smooth="yes"/>
      <point x="212" y="1484" type="line"/>
      <point x="187" y="1355" type="line"/>
      <point x="235" y="1355" type="line" smooth="yes"/>
      <point x="312" y="1355"/>
      <point x="381" y="1286"/>
      <point x="381" y="1230" type="qcurve" smooth="yes"/>
      <point x="381" y="1224" type="line" smooth="yes"/>
      <point x="380" y="1207"/>
      <point x="373" y="1126"/>
      <point x="368" y="1102" type="qcurve" smooth="yes"/>
      <point x="307" y="783" type="line" smooth="yes"/>
      <point x="301" y="752"/>
      <point x="301" y="724" type="qcurve" smooth="yes"/>
      <point x="301" y="646"/>
      <point x="382" y="546"/>
      <point x="451" y="529" type="qcurve"/>
      <point x="451" y="527" type="line"/>
      <point x="358" y="505"/>
      <point x="227" y="370"/>
      <point x="208" y="275" type="qcurve" smooth="yes"/>
      <point x="139" y="-81" type="line" smooth="yes"/>
      <point x="115" y="-202"/>
      <point x="18" y="-296"/>
      <point x="-71" y="-296" type="qcurve" smooth="yes"/>
      <point x="-134" y="-296" type="line"/>
      <point x="-159" y="-425" type="line"/>
      <point x="-24" y="-425" type="line" smooth="yes"/>
      <point x="118" y="-425"/>
      <point x="269" y="-275"/>
      <point x="297" y="-132" type="qcurve" smooth="yes"/>
      <point x="367" y="230" type="line" smooth="yes"/>
      <point x="390" y="347"/>
      <point x="518" y="462"/>
      <point x="628" y="466" type="qcurve"/>
      <point x="653" y="593" type="line"/>
      <point x="568" y="597"/>
      <point x="475" y="670"/>
      <point x="475" y="753" type="qcurve" smooth="yes"/>
      <point x="475" y="787"/>
      <point x="484" y="830" type="qcurve" smooth="yes"/>
      <point x="540" y="1117" type="line" smooth="yes"/>
      <point x="550" y="1172"/>
      <point x="550" y="1234" type="qcurve" smooth="yes"/>
      <point x="550" y="1351"/>
      <point x="419" y="1484"/>
    </contour>
  </outline>
</glyph>
<glyph name="asciitilde" format="2">
  <advance width="1196"/>
  <unicode hex="007E"/>
  <note>
asciitilde
</note>
  <outline>
    <contour>
      <point x="874" y="553" type="qcurve" smooth="yes"/>
      <point x="959" y="553"/>
      <point x="1074" y="591"/>
      <point x="1134" y="633" type="qcurve"/>
      <point x="1134" y="782" type="line"/>
      <point x="1020" y="690"/>
      <point x="890" y="690" type="qcurve" smooth="yes"/>
      <point x="854" y="690"/>
      <point x="767" y="710"/>
      <point x="620" y="761" type="qcurve" smooth="yes"/>
      <point x="487" y="807"/>
      <point x="385" y="807" type="qcurve" smooth="yes"/>
      <point x="233" y="807"/>
      <point x="122" y="723" type="qcurve"/>
      <point x="122" y="580" type="line"/>
      <point x="187" y="627"/>
      <point x="303" y="668"/>
      <point x="370" y="668" type="qcurve" smooth="yes"/>
      <point x="458" y="668"/>
      <point x="587" y="623" type="qcurve" smooth="yes"/>
      <point x="660" y="597"/>
      <point x="805" y="553"/>
    </contour>
  </outline>
</glyph>
<glyph name="cent" format="2">
  <advance width="1139"/>
  <unicode hex="00A2"/>
  <note>
cent
</note>
  <outline>
    <contour>
      <point x="560" y="278" type="qcurve" smooth="yes"/>
      <point x="342" y="278"/>
      <point x="342" y="545" type="qcurve" smooth="yes"/>
      <point x="342" y="688"/>
      <point x="428" y="982"/>
      <point x="584" y="1117"/>
      <point x="710" y="1117" type="qcurve" smooth="yes"/>
      <point x="801" y="1117"/>
      <point x="909" y="1012"/>
      <point x="915" y="915" type="qcurve"/>
      <point x="1092" y="940" type="line"/>
      <point x="1084" y="1068"/>
      <point x="937" y="1232"/>
      <point x="806" y="1251" type="qcurve"/>
      <point x="835" y="1409" type="line"/>
      <point x="711" y="1409" type="line"/>
      <point x="683" y="1257" type="line"/>
      <point x="550" y="1251"/>
      <point x="364" y="1148"/>
      <point x="234" y="960"/>
      <point x="158" y="687"/>
      <point x="158" y="551" type="qcurve" smooth="yes"/>
      <point x="158" y="377"/>
      <point x="317" y="164"/>
      <point x="466" y="142" type="qcurve"/>
      <point x="432" y="-31" type="line"/>
      <point x="556" y="-31" type="line"/>
      <point x="588" y="136" type="line"/>
      <point x="889" y="151"/>
      <point x="1005" y="459" type="qcurve"/>
      <point x="849" y="508" type="line"/>
      <point x="765" y="278"/>
    </contour>
  </outline>
</glyph>
<glyph name="sterling" format="2">
  <advance width="1139"/>
  <unicode hex="00A3"/>
  <note>
sterling
</note>
  <outline>
    <contour>
      <point x="1075" y="310" type="qcurve"/>
      <point x="924" y="334" type="line"/>
      <point x="898" y="238"/>
      <point x="769" y="153"/>
      <point x="666" y="153" type="qcurve" smooth="yes"/>
      <point x="202" y="153" type="line"/>
      <point x="291" y="195"/>
      <point x="416" y="367"/>
      <point x="436" y="478" type="qcurve" smooth="yes"/>
      <point x="463" y="625" type="line"/>
      <point x="871" y="625" type="line"/>
      <point x="896" y="754" type="line"/>
      <point x="488" y="754" type="line"/>
      <point x="544" y="1042" type="line" smooth="yes"/>
      <point x="568" y="1167"/>
      <point x="695" y="1282"/>
      <point x="809" y="1282" type="qcurve" smooth="yes"/>
      <point x="882" y="1282"/>
      <point x="994" y="1214"/>
      <point x="1014" y="1150" type="qcurve"/>
      <point x="1178" y="1200" type="line"/>
      <point x="1155" y="1305"/>
      <point x="964" y="1430"/>
      <point x="816" y="1430" type="qcurve" smooth="yes"/>
      <point x="628" y="1430"/>
      <point x="403" y="1239"/>
      <point x="363" y="1034" type="qcurve" smooth="yes"/>
      <point x="308" y="754" type="line"/>
      <point x="122" y="754" type="line"/>
      <point x="97" y="625" type="line"/>
      <point x="283" y="625" type="line"/>
      <point x="255" y="481" type="line" smooth="yes"/>
      <point x="231" y="357"/>
      <point x="114" y="200"/>
      <point x="17" y="154" type="qcurve"/>
      <point x="-12" y="0" type="line"/>
      <point x="688" y="0" type="line" smooth="yes"/>
      <point x="838" y="0"/>
      <point x="1038" y="158"/>
    </contour>
  </outline>
</glyph>
<glyph name="currency" format="2">
  <advance width="1139"/>
  <unicode hex="00A4"/>
  <note>
currency
</note>
  <outline>
    <contour>
      <point x="165" y="684" type="qcurve" smooth="yes"/>
      <point x="165" y="546"/>
      <point x="243" y="432" type="qcurve"/>
      <point x="141" y="330" type="line"/>
      <point x="243" y="225" type="line"/>
      <point x="348" y="330" type="line"/>
      <point x="457" y="250"/>
      <point x="600" y="250" type="qcurve" smooth="yes"/>
      <point x="737" y="250"/>
      <point x="851" y="328" type="qcurve"/>
      <point x="952" y="227" type="line"/>
      <point x="1054" y="332" type="line"/>
      <point x="954" y="432" type="line"/>
      <point x="1036" y="546"/>
      <point x="1036" y="684" type="qcurve" smooth="yes"/>
      <point x="1036" y="819"/>
      <point x="956" y="936" type="qcurve"/>
      <point x="1052" y="1032" type="line"/>
      <point x="948" y="1137" type="line"/>
      <point x="851" y="1040" type="line"/>
      <point x="737" y="1120"/>
      <point x="600" y="1120" type="qcurve" smooth="yes"/>
      <point x="460" y="1120"/>
      <point x="346" y="1038" type="qcurve"/>
      <point x="247" y="1139" type="line"/>
      <point x="143" y="1036" type="line"/>
      <point x="243" y="936" type="line"/>
      <point x="165" y="822"/>
    </contour>
    <contour>
      <point x="319" y="686" type="qcurve" smooth="yes"/>
      <point x="319" y="800"/>
      <point x="483" y="967"/>
      <point x="600" y="967" type="qcurve" smooth="yes"/>
      <point x="715" y="967"/>
      <point x="880" y="802"/>
      <point x="880" y="686" type="qcurve" smooth="yes"/>
      <point x="880" y="568"/>
      <point x="714" y="406"/>
      <point x="600" y="406" type="qcurve" smooth="yes"/>
      <point x="483" y="406"/>
      <point x="319" y="572"/>
    </contour>
  </outline>
</glyph>
<glyph name="section" format="2">
  <advance width="1139"/>
  <unicode hex="00A7"/>
  <note>
section
</note>
  <outline>
    <contour>
      <point x="1010" y="673" type="qcurve" smooth="yes"/>
      <point x="1010" y="783"/>
      <point x="862" y="942"/>
      <point x="680" y="999" type="qcurve" smooth="yes"/>
      <point x="525" y="1049"/>
      <point x="418" y="1135"/>
      <point x="418" y="1190" type="qcurve" smooth="yes"/>
      <point x="418" y="1353"/>
      <point x="688" y="1353" type="qcurve" smooth="yes"/>
      <point x="881" y="1353"/>
      <point x="922" y="1204" type="qcurve"/>
      <point x="1085" y="1229" type="line"/>
      <point x="1041" y="1484"/>
      <point x="695" y="1484" type="qcurve" smooth="yes"/>
      <point x="478" y="1484"/>
      <point x="244" y="1327"/>
      <point x="244" y="1182" type="qcurve" smooth="yes"/>
      <point x="244" y="1042"/>
      <point x="378" y="957" type="qcurve"/>
      <point x="243" y="927"/>
      <point x="102" y="783"/>
      <point x="102" y="673" type="qcurve" smooth="yes"/>
      <point x="102" y="448"/>
      <point x="427" y="348" type="qcurve" smooth="yes"/>
      <point x="587" y="299"/>
      <point x="693" y="212"/>
      <point x="693" y="149" type="qcurve" smooth="yes"/>
      <point x="693" y="56"/>
      <point x="545" y="-41"/>
      <point x="402" y="-41" type="qcurve" smooth="yes"/>
      <point x="285" y="-41"/>
      <point x="146" y="39"/>
      <point x="113" y="127" type="qcurve"/>
      <point x="-34" y="71" type="line"/>
      <point x="6" y="-55"/>
      <point x="212" y="-172"/>
      <point x="383" y="-172" type="qcurve" smooth="yes"/>
      <point x="620" y="-172"/>
      <point x="868" y="3"/>
      <point x="868" y="165" type="qcurve" smooth="yes"/>
      <point x="868" y="305"/>
      <point x="736" y="388" type="qcurve"/>
      <point x="1010" y="449"/>
    </contour>
    <contour>
      <point x="276" y="688" type="qcurve" smooth="yes"/>
      <point x="276" y="772"/>
      <point x="416" y="880"/>
      <point x="533" y="886" type="qcurve"/>
      <point x="670" y="846"/>
      <point x="778" y="788"/>
      <point x="835" y="713"/>
      <point x="835" y="662" type="qcurve" smooth="yes"/>
      <point x="835" y="574"/>
      <point x="682" y="473"/>
      <point x="550" y="468" type="qcurve"/>
      <point x="399" y="514"/>
      <point x="276" y="619"/>
    </contour>
  </outline>
</glyph>
<glyph name="dieresis" format="2">
  <advance width="682"/>
  <unicode hex="00A8"/>
  <note>
dieresis
</note>
  <outline>
    <contour>
      <point x="521" y="1219" type="line"/>
      <point x="694" y="1219" type="line"/>
      <point x="729" y="1403" type="line"/>
      <point x="556" y="1403" type="line"/>
    </contour>
    <contour>
      <point x="137" y="1219" type="line"/>
      <point x="312" y="1219" type="line"/>
      <point x="347" y="1403" type="line"/>
      <point x="172" y="1403" type="line"/>
    </contour>
  </outline>
</glyph>
<glyph name="copyright" format="2">
  <advance width="1509"/>
  <unicode hex="00A9"/>
  <note>
copyright
</note>
  <outline>
    <contour>
      <point x="1509" y="707" type="qcurve" smooth="yes"/>
      <point x="1509" y="901"/>
      <point x="1317" y="1235"/>
      <point x="980" y="1430"/>
      <point x="786" y="1430" type="qcurve" smooth="yes"/>
      <point x="593" y="1430"/>
      <point x="257" y="1236"/>
      <point x="63" y="900"/>
      <point x="63" y="707" type="qcurve" smooth="yes"/>
      <point x="63" y="518"/>
      <point x="250" y="185"/>
      <point x="589" y="-16"/>
      <point x="786" y="-16" type="qcurve" smooth="yes"/>
      <point x="979" y="-16"/>
      <point x="1316" y="177"/>
      <point x="1509" y="514"/>
    </contour>
    <contour>
      <point x="1417" y="707" type="qcurve" smooth="yes"/>
      <point x="1417" y="538"/>
      <point x="1249" y="247"/>
      <point x="956" y="78"/>
      <point x="786" y="78" type="qcurve" smooth="yes"/>
      <point x="617" y="78"/>
      <point x="327" y="246"/>
      <point x="158" y="538"/>
      <point x="158" y="707" type="qcurve" smooth="yes"/>
      <point x="158" y="874"/>
      <point x="326" y="1166"/>
      <point x="618" y="1335"/>
      <point x="786" y="1335" type="qcurve" smooth="yes"/>
      <point x="955" y="1335"/>
      <point x="1248" y="1166"/>
      <point x="1417" y="875"/>
    </contour>
    <contour>
      <point x="797" y="279" type="qcurve" smooth="yes"/>
      <point x="914" y="279"/>
      <point x="1083" y="383"/>
      <point x="1145" y="504" type="qcurve"/>
      <point x="1030" y="539" type="line"/>
      <point x="990" y="458"/>
      <point x="875" y="383"/>
      <point x="797" y="383" type="qcurve" smooth="yes"/>
      <point x="672" y="383"/>
      <point x="530" y="554"/>
      <point x="530" y="709" type="qcurve" smooth="yes"/>
      <point x="530" y="867"/>
      <point x="665" y="1028"/>
      <point x="792" y="1028" type="qcurve" smooth="yes"/>
      <point x="868" y="1028"/>
      <point x="984" y="960"/>
      <point x="1016" y="891" type="qcurve"/>
      <point x="1130" y="924" type="line"/>
      <point x="1034" y="1133"/>
      <point x="790" y="1133" type="qcurve" smooth="yes"/>
      <point x="601" y="1133"/>
      <point x="401" y="912"/>
      <point x="401" y="709" type="qcurve" smooth="yes"/>
      <point x="401" y="505"/>
      <point x="609" y="279"/>
    </contour>
  </outline>
</glyph>
<glyph name="ordfeminine" format="2">
  <advance width="758"/>
  <unicode hex="00AA"/>
  <note>
ordfeminine
</note>
  <outline>
    <contour>
      <point x="723" y="657" type="qcurve" smooth="yes"/>
      <point x="762" y="657"/>
      <point x="799" y="670" type="qcurve"/>
      <point x="814" y="774" type="line"/>
      <point x="790" y="766"/>
      <point x="770" y="766" type="qcurve" smooth="yes"/>
      <point x="722" y="766"/>
      <point x="722" y="821" type="qcurve" smooth="yes"/>
      <point x="722" y="843"/>
      <point x="728" y="874" type="qcurve" smooth="yes"/>
      <point x="781" y="1149" type="line" smooth="yes"/>
      <point x="791" y="1194"/>
      <point x="791" y="1233" type="qcurve" smooth="yes"/>
      <point x="791" y="1325"/>
      <point x="652" y="1432"/>
      <point x="525" y="1432" type="qcurve" smooth="yes"/>
      <point x="265" y="1432"/>
      <point x="207" y="1213" type="qcurve"/>
      <point x="339" y="1196" type="line"/>
      <point x="371" y="1331"/>
      <point x="523" y="1331" type="qcurve" smooth="yes"/>
      <point x="650" y="1331"/>
      <point x="650" y="1229" type="qcurve" smooth="yes"/>
      <point x="650" y="1206"/>
      <point x="632" y="1116" type="qcurve"/>
      <point x="453" y="1112" type="line" smooth="yes"/>
      <point x="89" y="1107"/>
      <point x="89" y="858" type="qcurve" smooth="yes"/>
      <point x="89" y="763"/>
      <point x="210" y="651"/>
      <point x="311" y="651" type="qcurve" smooth="yes"/>
      <point x="390" y="651"/>
      <point x="520" y="720"/>
      <point x="586" y="805" type="qcurve"/>
      <point x="590" y="805" type="line"/>
      <point x="586" y="765" type="line"/>
      <point x="586" y="716"/>
      <point x="657" y="657"/>
    </contour>
    <contour>
      <point x="614" y="1024" type="line"/>
      <point x="604" y="972" type="line" smooth="yes"/>
      <point x="587" y="887"/>
      <point x="441" y="762"/>
      <point x="352" y="762" type="qcurve" smooth="yes"/>
      <point x="301" y="762"/>
      <point x="243" y="818"/>
      <point x="243" y="865" type="qcurve" smooth="yes"/>
      <point x="243" y="940"/>
      <point x="352" y="1017"/>
      <point x="475" y="1020" type="qcurve" smooth="yes"/>
    </contour>
  </outline>
</glyph>
<glyph name="registered" format="2">
  <advance width="1509"/>
  <unicode hex="00AE"/>
  <note>
registered
</note>
  <outline>
    <contour>
      <point x="1509" y="707" type="qcurve" smooth="yes"/>
      <point x="1509" y="901"/>
      <point x="1317" y="1235"/>
      <point x="980" y="1430"/>
      <point x="786" y="1430" type="qcurve" smooth="yes"/>
      <point x="593" y="1430"/>
      <point x="257" y="1236"/>
      <point x="63" y="900"/>
      <point x="63" y="707" type="qcurve" smooth="yes"/>
      <point x="63" y="518"/>
      <point x="250" y="185"/>
      <point x="589" y="-16"/>
      <point x="786" y="-16" type="qcurve" smooth="yes"/>
      <point x="979" y="-16"/>
      <point x="1316" y="177"/>
      <point x="1509" y="514"/>
    </contour>
    <contour>
      <point x="1417" y="707" type="qcurve" smooth="yes"/>
      <point x="1417" y="538"/>
      <point x="1249" y="247"/>
      <point x="956" y="78"/>
      <point x="786" y="78" type="qcurve" smooth="yes"/>
      <point x="617" y="78"/>
      <point x="327" y="246"/>
      <point x="158" y="538"/>
      <point x="158" y="707" type="qcurve" smooth="yes"/>
      <point x="158" y="874"/>
      <point x="326" y="1166"/>
      <point x="618" y="1335"/>
      <point x="786" y="1335" type="qcurve" smooth="yes"/>
      <point x="955" y="1335"/>
      <point x="1248" y="1166"/>
      <point x="1417" y="875"/>
    </contour>
    <contour>
      <point x="987" y="289" type="line"/>
      <point x="1132" y="289" type="line"/>
      <point x="911" y="639" type="line"/>
      <point x="996" y="658"/>
      <point x="1100" y="781"/>
      <point x="1100" y="883" type="qcurve" smooth="yes"/>
      <point x="1100" y="994"/>
      <point x="949" y="1120"/>
      <point x="807" y="1120" type="qcurve" smooth="yes"/>
      <point x="500" y="1120" type="line"/>
      <point x="500" y="289" type="line"/>
      <point x="627" y="289" type="line"/>
      <point x="627" y="625" type="line"/>
      <point x="788" y="625" type="line"/>
    </contour>
    <contour>
      <point x="973" y="881" type="qcurve" smooth="yes"/>
      <point x="973" y="806"/>
      <point x="889" y="721"/>
      <point x="809" y="721" type="qcurve" smooth="yes"/>
      <point x="627" y="721" type="line"/>
      <point x="627" y="1022" type="line"/>
      <point x="797" y="1022" type="line" smooth="yes"/>
      <point x="878" y="1022"/>
      <point x="973" y="950"/>
    </contour>
  </outline>
</glyph>
<glyph name="degree" format="2">
  <advance width="819"/>
  <unicode hex="00B0"/>
  <note>
degree
</note>
  <outline>
    <contour>
      <point x="770" y="1145" type="qcurve" smooth="yes"/>
      <point x="770" y="1264"/>
      <point x="603" y="1430"/>
      <point x="483" y="1430" type="qcurve" smooth="yes"/>
      <point x="363" y="1430"/>
      <point x="196" y="1262"/>
      <point x="196" y="1145" type="qcurve" smooth="yes"/>
      <point x="196" y="1028"/>
      <point x="365" y="860"/>
      <point x="483" y="860" type="qcurve" smooth="yes"/>
      <point x="601" y="860"/>
      <point x="770" y="1026"/>
    </contour>
    <contour>
      <point x="661" y="1145" type="qcurve" smooth="yes"/>
      <point x="661" y="1070"/>
      <point x="557" y="965"/>
      <point x="483" y="965" type="qcurve" smooth="yes"/>
      <point x="410" y="965"/>
      <point x="305" y="1071"/>
      <point x="305" y="1145" type="qcurve" smooth="yes"/>
      <point x="305" y="1219"/>
      <point x="408" y="1325"/>
      <point x="483" y="1325" type="qcurve" smooth="yes"/>
      <point x="558" y="1325"/>
      <point x="661" y="1221"/>
    </contour>
  </outline>
</glyph>
<glyph name="twosuperior" format="2">
  <advance width="682"/>
  <unicode hex="00B2"/>
  <note>
twosuperior
</note>
  <outline>
    <contour>
      <point x="30" y="563" type="line"/>
      <point x="631" y="563" type="line"/>
      <point x="651" y="676" type="line"/>
      <point x="203" y="676" type="line"/>
      <point x="229" y="715"/>
      <point x="330" y="792"/>
      <point x="427" y="848" type="qcurve" smooth="yes"/>
      <point x="574" y="934"/>
      <point x="681" y="1028"/>
      <point x="742" y="1138"/>
      <point x="742" y="1206" type="qcurve" smooth="yes"/>
      <point x="742" y="1301"/>
      <point x="599" y="1421"/>
      <point x="480" y="1421" type="qcurve" smooth="yes"/>
      <point x="354" y="1421"/>
      <point x="193" y="1303"/>
      <point x="164" y="1189" type="qcurve"/>
      <point x="289" y="1174" type="line"/>
      <point x="303" y="1237"/>
      <point x="403" y="1315"/>
      <point x="473" y="1315" type="qcurve" smooth="yes"/>
      <point x="538" y="1315"/>
      <point x="606" y="1243"/>
      <point x="606" y="1192" type="qcurve" smooth="yes"/>
      <point x="606" y="1145"/>
      <point x="563" y="1070"/>
      <point x="482" y="1002"/>
      <point x="351" y="925" type="qcurve" smooth="yes"/>
      <point x="247" y="863"/>
      <point x="155" y="793"/>
      <point x="78" y="714"/>
      <point x="48" y="666" type="qcurve"/>
    </contour>
  </outline>
</glyph>
<glyph name="threesuperior" format="2">
  <advance width="682"/>
  <unicode hex="00B3"/>
  <note>
threesuperior
</note>
  <outline>
    <contour>
      <point x="332" y="1049" type="line"/>
      <point x="311" y="940" type="line"/>
      <point x="372" y="940" type="line" smooth="yes"/>
      <point x="449" y="940"/>
      <point x="537" y="874"/>
      <point x="537" y="820" type="qcurve" smooth="yes"/>
      <point x="537" y="744"/>
      <point x="442" y="655"/>
      <point x="356" y="655" type="qcurve" smooth="yes"/>
      <point x="282" y="655"/>
      <point x="191" y="729"/>
      <point x="182" y="801" type="qcurve"/>
      <point x="53" y="785" type="line"/>
      <point x="89" y="551"/>
      <point x="350" y="551" type="qcurve" smooth="yes"/>
      <point x="495" y="551"/>
      <point x="673" y="696"/>
      <point x="673" y="817" type="qcurve" smooth="yes"/>
      <point x="673" y="885"/>
      <point x="583" y="980"/>
      <point x="510" y="993" type="qcurve"/>
      <point x="510" y="995" type="line"/>
      <point x="728" y="1039"/>
      <point x="728" y="1218" type="qcurve" smooth="yes"/>
      <point x="728" y="1308"/>
      <point x="588" y="1421"/>
      <point x="477" y="1421" type="qcurve" smooth="yes"/>
      <point x="225" y="1421"/>
      <point x="158" y="1205" type="qcurve"/>
      <point x="283" y="1180" type="line"/>
      <point x="302" y="1245"/>
      <point x="399" y="1315"/>
      <point x="467" y="1315" type="qcurve" smooth="yes"/>
      <point x="524" y="1315"/>
      <point x="590" y="1252"/>
      <point x="590" y="1204" type="qcurve" smooth="yes"/>
      <point x="590" y="1132"/>
      <point x="486" y="1049"/>
      <point x="389" y="1049" type="qcurve" smooth="yes"/>
    </contour>
  </outline>
</glyph>
<glyph name="mu1" format="2">
  <advance width="1180"/>
  <unicode hex="00B5"/>
  <note>
mu1
</note>
  <outline>
    <contour>
      <point x="-1" y="-425" type="line"/>
      <point x="179" y="-425" type="line"/>
      <point x="273" y="59" type="line"/>
      <point x="296" y="22"/>
      <point x="386" y="-20"/>
      <point x="448" y="-20" type="qcurve" smooth="yes"/>
      <point x="628" y="-20"/>
      <point x="757" y="169" type="qcurve"/>
      <point x="759" y="169" type="line"/>
      <point x="759" y="77"/>
      <point x="821" y="-20"/>
      <point x="895" y="-20" type="qcurve" smooth="yes"/>
      <point x="946" y="-20"/>
      <point x="1018" y="0" type="qcurve"/>
      <point x="1040" y="129" type="line"/>
      <point x="996" y="121"/>
      <point x="984" y="121" type="qcurve" smooth="yes"/>
      <point x="927" y="121"/>
      <point x="927" y="193" type="qcurve" smooth="yes"/>
      <point x="927" y="234"/>
      <point x="936" y="275" type="qcurve" smooth="yes"/>
      <point x="1093" y="1082" type="line"/>
      <point x="913" y="1082" type="line"/>
      <point x="795" y="472" type="line" smooth="yes"/>
      <point x="767" y="309"/>
      <point x="602" y="119"/>
      <point x="490" y="119" type="qcurve" smooth="yes"/>
      <point x="328" y="119"/>
      <point x="328" y="295" type="qcurve" smooth="yes"/>
      <point x="328" y="332"/>
      <point x="339" y="396" type="qcurve" smooth="yes"/>
      <point x="473" y="1082" type="line"/>
      <point x="292" y="1082" type="line"/>
    </contour>
  </outline>
</glyph>
<glyph name="paragraph" format="2">
  <advance width="1100"/>
  <unicode hex="00B6"/>
  <note>
paragraph
</note>
  <outline>
    <contour>
      <point x="948" y="1307" type="line"/>
      <point x="1077" y="1307" type="line"/>
      <point x="1077" y="1409" type="line"/>
      <point x="514" y="1409" type="line" smooth="yes"/>
      <point x="341" y="1409"/>
      <point x="144" y="1218"/>
      <point x="144" y="1049" type="qcurve" smooth="yes"/>
      <point x="144" y="879"/>
      <point x="338" y="694"/>
      <point x="506" y="694" type="qcurve"/>
      <point x="506" y="-264" type="line"/>
      <point x="619" y="-264" type="line"/>
      <point x="619" y="1307" type="line"/>
      <point x="836" y="1307" type="line"/>
      <point x="836" y="-264" type="line"/>
      <point x="948" y="-264" type="line"/>
    </contour>
  </outline>
</glyph>
<glyph name="cedilla" format="2">
  <advance width="682"/>
  <unicode hex="00B8"/>
  <note>
cedilla
</note>
  <outline>
    <contour>
      <point x="318" y="-96" type="qcurve"/>
      <point x="377" y="0" type="line"/>
      <point x="270" y="0" type="line"/>
      <point x="169" y="-174" type="line"/>
      <point x="183" y="-172"/>
      <point x="227" y="-172" type="qcurve" smooth="yes"/>
      <point x="346" y="-172"/>
      <point x="346" y="-244" type="qcurve" smooth="yes"/>
      <point x="346" y="-289"/>
      <point x="271" y="-333"/>
      <point x="180" y="-333" type="qcurve" smooth="yes"/>
      <point x="140" y="-333"/>
      <point x="92" y="-327" type="qcurve"/>
      <point x="71" y="-418" type="line"/>
      <point x="127" y="-425"/>
      <point x="177" y="-425" type="qcurve" smooth="yes"/>
      <point x="480" y="-425"/>
      <point x="480" y="-232" type="qcurve" smooth="yes"/>
      <point x="480" y="-173"/>
      <point x="399" y="-101"/>
    </contour>
  </outline>
</glyph>
<glyph name="ordmasculine" format="2">
  <advance width="748"/>
  <unicode hex="00BA"/>
  <note>
ordmasculine
</note>
  <outline>
    <contour>
      <point x="403" y="651" type="qcurve" smooth="yes"/>
      <point x="741" y="651"/>
      <point x="809" y="1005" type="qcurve" smooth="yes"/>
      <point x="822" y="1074"/>
      <point x="822" y="1133" type="qcurve" smooth="yes"/>
      <point x="822" y="1275"/>
      <point x="665" y="1432"/>
      <point x="520" y="1432" type="qcurve" smooth="yes"/>
      <point x="182" y="1432"/>
      <point x="114" y="1078" type="qcurve" smooth="yes"/>
      <point x="101" y="1009"/>
      <point x="101" y="950" type="qcurve" smooth="yes"/>
      <point x="101" y="808"/>
      <point x="258" y="651"/>
    </contour>
    <contour>
      <point x="513" y="1325" type="qcurve" smooth="yes"/>
      <point x="591" y="1325"/>
      <point x="678" y="1248"/>
      <point x="678" y="1154" type="qcurve" smooth="yes"/>
      <point x="678" y="1071"/>
      <point x="615" y="857"/>
      <point x="505" y="758"/>
      <point x="408" y="758" type="qcurve" smooth="yes"/>
      <point x="248" y="758"/>
      <point x="248" y="938" type="qcurve" smooth="yes"/>
      <point x="248" y="1024"/>
      <point x="310" y="1230"/>
      <point x="418" y="1325"/>
    </contour>
  </outline>
</glyph>
<glyph name="guillemotright" format="2">
  <advance width="1139"/>
  <unicode hex="00BB"/>
  <note>
guillemotright
</note>
  <outline>
    <contour>
      <point x="640" y="141" type="line"/>
      <point x="1049" y="506" type="line"/>
      <point x="1061" y="569" type="line"/>
      <point x="795" y="940" type="line"/>
      <point x="639" y="940" type="line"/>
      <point x="635" y="919" type="line"/>
      <point x="899" y="547" type="line"/>
      <point x="489" y="180" type="line"/>
      <point x="482" y="141" type="line"/>
    </contour>
    <contour>
      <point x="165" y="141" type="line"/>
      <point x="571" y="506" type="line"/>
      <point x="583" y="569" type="line"/>
      <point x="320" y="940" type="line"/>
      <point x="162" y="940" type="line"/>
      <point x="158" y="919" type="line"/>
      <point x="422" y="547" type="line"/>
      <point x="12" y="180" type="line"/>
      <point x="5" y="141" type="line"/>
    </contour>
  </outline>
</glyph>
<glyph name="questiondown" format="2">
  <advance width="1251"/>
  <unicode hex="00BF"/>
  <note>
questiondown
</note>
  <outline>
    <contour>
      <point x="497" y="-347" type="qcurve" smooth="yes"/>
      <point x="705" y="-347"/>
      <point x="976" y="-160"/>
      <point x="1039" y="35" type="qcurve"/>
      <point x="874" y="75" type="line"/>
      <point x="836" y="-47"/>
      <point x="654" y="-187"/>
      <point x="514" y="-187" type="qcurve" smooth="yes"/>
      <point x="398" y="-187"/>
      <point x="252" y="-67"/>
      <point x="252" y="31" type="qcurve" smooth="yes"/>
      <point x="252" y="97"/>
      <point x="299" y="195"/>
      <point x="391" y="278"/>
      <point x="496" y="337" type="qcurve" smooth="yes"/>
      <point x="630" y="413"/>
      <point x="735" y="507"/>
      <point x="805" y="626"/>
      <point x="818" y="706" type="qcurve"/>
      <point x="643" y="706" type="line"/>
      <point x="629" y="638"/>
      <point x="531" y="526"/>
      <point x="404" y="454" type="qcurve" smooth="yes"/>
      <point x="344" y="420"/>
      <point x="223" y="345"/>
      <point x="126" y="244"/>
      <point x="65" y="107"/>
      <point x="65" y="10" type="qcurve" smooth="yes"/>
      <point x="65" y="-147"/>
      <point x="300" y="-347"/>
    </contour>
    <contour>
      <point x="899" y="1083" type="line"/>
      <point x="704" y="1083" type="line"/>
      <point x="665" y="882" type="line"/>
      <point x="860" y="882" type="line"/>
    </contour>
  </outline>
</glyph>
<glyph name="AE" format="2">
  <advance width="2048"/>
  <unicode hex="00C6"/>
  <note>
AE
</note>
  <anchor x="1400" y="1540" name="gpos_18_mark_to_base__MARKCLASS_0_lookup_18"/>
  <anchor x="1980" y="1540" name="gpos_18_mark_to_base__MARKCLASS_1_lookup_18"/>
  <anchor x="960" y="-130" name="gpos_18_mark_to_base__MARKCLASS_2_lookup_18"/>
  <anchor x="2048" y="1840" name="gpos_22_mark_to_base__MARKCLASS_0_lookup_22"/>
  <anchor x="2048" y="-380" name="gpos_22_mark_to_base__MARKCLASS_1_lookup_22"/>
  <anchor x="2048" y="1840" name="gpos_23_mark_to_base__MARKCLASS_0_lookup_23"/>
  <anchor x="0" y="1840" name="gpos_23_mark_to_base__MARKCLASS_1_lookup_23"/>
  <anchor x="1780" y="0" name="gpos_24_mark_to_base__MARKCLASS_0_lookup_24"/>
  <outline>
    <contour>
      <point x="401" y="412" type="line"/>
      <point x="944" y="412" type="line"/>
      <point x="863" y="0" type="line"/>
      <point x="1834" y="0" type="line"/>
      <point x="1865" y="156" type="line"/>
      <point x="1085" y="156" type="line"/>
      <point x="1180" y="647" type="line"/>
      <point x="1859" y="647" type="line"/>
      <point x="1889" y="801" type="line"/>
      <point x="1210" y="801" type="line"/>
      <point x="1298" y="1253" type="line"/>
      <point x="2037" y="1253" type="line"/>
      <point x="2067" y="1409" type="line"/>
      <point x="878" y="1409" type="line"/>
      <point x="-81" y="0" type="line"/>
      <point x="122" y="0" type="line"/>
    </contour>
    <contour>
      <point x="500" y="561" type="line"/>
      <point x="822" y="1046" type="line"/>
      <point x="958" y="1262" type="line"/>
      <point x="1109" y="1262" type="line"/>
      <point x="973" y="561" type="line"/>
    </contour>
  </outline>
</glyph>
<glyph name="Eth" format="2">
  <advance width="1479"/>
  <unicode hex="00D0"/>
  <note>
Eth
</note>
  <outline>
    <contour>
      <point x="764" y="1409" type="qcurve" smooth="yes"/>
      <point x="336" y="1409" type="line"/>
      <point x="218" y="801" type="line"/>
      <point x="64" y="801" type="line"/>
      <point x="34" y="647" type="line"/>
      <point x="188" y="647" type="line"/>
      <point x="63" y="0" type="line"/>
      <point x="612" y="0" type="line" smooth="yes"/>
      <point x="855" y="0"/>
      <point x="1236" y="200"/>
      <point x="1433" y="557"/>
      <point x="1433" y="791" type="qcurve" smooth="yes"/>
      <point x="1433" y="1080"/>
      <point x="1076" y="1409"/>
    </contour>
    <contour>
      <point x="409" y="801" type="line"/>
      <point x="498" y="1256" type="line"/>
      <point x="760" y="1256" type="line" smooth="yes"/>
      <point x="987" y="1256"/>
      <point x="1239" y="1012"/>
      <point x="1239" y="793" type="qcurve" smooth="yes"/>
      <point x="1239" y="599"/>
      <point x="1080" y="308"/>
      <point x="782" y="153"/>
      <point x="587" y="153" type="qcurve" smooth="yes"/>
      <point x="283" y="153" type="line"/>
      <point x="379" y="647" type="line"/>
      <point x="785" y="647" type="line"/>
      <point x="815" y="801" type="line"/>
    </contour>
  </outline>
</glyph>
<glyph name="Oslash" format="2">
  <advance width="1593"/>
  <unicode hex="00D8"/>
  <note>
Oslash
</note>
  <outline>
    <contour>
      <point x="1423" y="1205" type="qcurve"/>
      <point x="1691" y="1466" type="line"/>
      <point x="1499" y="1466" type="line"/>
      <point x="1332" y="1303" type="line"/>
      <point x="1176" y="1430"/>
      <point x="928" y="1430" type="qcurve" smooth="yes"/>
      <point x="690" y="1430"/>
      <point x="312" y="1213"/>
      <point x="101" y="812"/>
      <point x="101" y="573" type="qcurve" smooth="yes"/>
      <point x="101" y="350"/>
      <point x="204" y="201" type="qcurve"/>
      <point x="-56" y="-53" type="line"/>
      <point x="133" y="-53" type="line"/>
      <point x="294" y="104" type="line"/>
      <point x="447" y="-20"/>
      <point x="699" y="-20" type="qcurve" smooth="yes"/>
      <point x="935" y="-20"/>
      <point x="1307" y="192"/>
      <point x="1521" y="583"/>
      <point x="1526" y="851" type="qcurve" smooth="yes"/>
      <point x="1526" y="1060"/>
    </contour>
    <contour>
      <point x="919" y="1276" type="qcurve" smooth="yes"/>
      <point x="1099" y="1276"/>
      <point x="1208" y="1182" type="qcurve"/>
      <point x="338" y="332" type="line"/>
      <point x="292" y="427"/>
      <point x="292" y="563" type="qcurve" smooth="yes"/>
      <point x="292" y="744"/>
      <point x="440" y="1098"/>
      <point x="719" y="1276"/>
    </contour>
    <contour>
      <point x="1335" y="847" type="qcurve" smooth="yes"/>
      <point x="1335" y="654"/>
      <point x="1182" y="308"/>
      <point x="905" y="135"/>
      <point x="708" y="135" type="qcurve" smooth="yes"/>
      <point x="524" y="135"/>
      <point x="419" y="226" type="qcurve"/>
      <point x="1289" y="1074" type="line"/>
      <point x="1335" y="980"/>
    </contour>
  </outline>
</glyph>
<glyph name="Thorn" format="2">
  <advance width="1366"/>
  <unicode hex="00DE"/>
  <note>
Thorn
</note>
  <anchor x="650" y="1580" name="gpos_18_mark_to_base__MARKCLASS_0_lookup_18"/>
  <anchor x="1220" y="1260" name="gpos_18_mark_to_base__MARKCLASS_1_lookup_18"/>
  <anchor x="450" y="-130" name="gpos_18_mark_to_base__MARKCLASS_2_lookup_18"/>
  <anchor x="1366" y="1540" name="gpos_22_mark_to_base__MARKCLASS_0_lookup_22"/>
  <anchor x="1366" y="-380" name="gpos_22_mark_to_base__MARKCLASS_1_lookup_22"/>
  <anchor x="1366" y="1840" name="gpos_23_mark_to_base__MARKCLASS_0_lookup_23"/>
  <anchor x="0" y="1840" name="gpos_23_mark_to_base__MARKCLASS_1_lookup_23"/>
  <anchor x="180" y="0" name="gpos_24_mark_to_base__MARKCLASS_0_lookup_24"/>
  <outline>
    <contour>
      <point x="314" y="297" type="line"/>
      <point x="738" y="297" type="line" smooth="yes"/>
      <point x="1090" y="297"/>
      <point x="1307" y="475"/>
      <point x="1307" y="768" type="curve" smooth="yes"/>
      <point x="1307" y="1015"/>
      <point x="1122" y="1157"/>
      <point x="806" y="1157" type="curve" smooth="yes"/>
      <point x="479" y="1157" type="line"/>
      <point x="528" y="1409" type="line"/>
      <point x="337" y="1409" type="line"/>
      <point x="63" y="0" type="line"/>
      <point x="254" y="0" type="line"/>
    </contour>
    <contour>
      <point x="344" y="448" type="line"/>
      <point x="452" y="1004" type="line"/>
      <point x="801" y="1004" type="line" smooth="yes"/>
      <point x="1006" y="1004"/>
      <point x="1113" y="918"/>
      <point x="1113" y="759" type="curve" smooth="yes"/>
      <point x="1113" y="552"/>
      <point x="986" y="448"/>
      <point x="731" y="448" type="curve" smooth="yes"/>
    </contour>
  </outline>
</glyph>
<glyph name="germandbls" format="2">
  <advance width="1251"/>
  <unicode hex="00DF"/>
  <note>
germandbls
</note>
  <outline>
    <contour>
      <point x="34" y="0" type="line"/>
      <point x="214" y="0" type="line"/>
      <point x="412" y="1021" type="line" smooth="yes"/>
      <point x="444" y="1184"/>
      <point x="608" y="1343"/>
      <point x="753" y="1343" type="qcurve" smooth="yes"/>
      <point x="855" y="1343"/>
      <point x="975" y="1255"/>
      <point x="975" y="1186" type="qcurve" smooth="yes"/>
      <point x="975" y="1128"/>
      <point x="905" y="1039"/>
      <point x="823" y="991" type="qcurve" smooth="yes"/>
      <point x="747" y="946"/>
      <point x="670" y="832"/>
      <point x="670" y="756" type="qcurve" smooth="yes"/>
      <point x="670" y="699"/>
      <point x="736" y="592"/>
      <point x="809" y="529" type="qcurve" smooth="yes"/>
      <point x="883" y="464"/>
      <point x="947" y="361"/>
      <point x="947" y="305" type="qcurve" smooth="yes"/>
      <point x="947" y="214"/>
      <point x="829" y="115"/>
      <point x="719" y="115" type="qcurve" smooth="yes"/>
      <point x="589" y="115"/>
      <point x="473" y="169" type="qcurve"/>
      <point x="417" y="26" type="line"/>
      <point x="465" y="3"/>
      <point x="628" y="-29"/>
      <point x="714" y="-29" type="qcurve" smooth="yes"/>
      <point x="907" y="-29"/>
      <point x="1123" y="149"/>
      <point x="1123" y="308" type="qcurve" smooth="yes"/>
      <point x="1123" y="448"/>
      <point x="983" y="579" type="qcurve" smooth="yes"/>
      <point x="904" y="652"/>
      <point x="842" y="737"/>
      <point x="842" y="777" type="qcurve" smooth="yes"/>
      <point x="842" y="813"/>
      <point x="901" y="875"/>
      <point x="997" y="940" type="qcurve" smooth="yes"/>
      <point x="1152" y="1045"/>
      <point x="1152" y="1196" type="qcurve" smooth="yes"/>
      <point x="1152" y="1322"/>
      <point x="939" y="1484"/>
      <point x="762" y="1484" type="qcurve" smooth="yes"/>
      <point x="542" y="1484"/>
      <point x="281" y="1264"/>
      <point x="234" y="1027" type="qcurve" smooth="yes"/>
    </contour>
  </outline>
</glyph>
<glyph name="ae" format="2">
  <advance width="1821"/>
  <unicode hex="00E6"/>
  <note>
ae
</note>
  <outline>
    <contour>
      <point x="989" y="503" type="qcurve"/>
      <point x="1723" y="503" type="line"/>
      <point x="1731" y="537"/>
      <point x="1746" y="660"/>
      <point x="1746" y="708" type="qcurve" smooth="yes"/>
      <point x="1746" y="894"/>
      <point x="1530" y="1102"/>
      <point x="1335" y="1102" type="qcurve" smooth="yes"/>
      <point x="1114" y="1102"/>
      <point x="990" y="944" type="qcurve"/>
      <point x="887" y="1102"/>
      <point x="665" y="1102" type="qcurve" smooth="yes"/>
      <point x="470" y="1102"/>
      <point x="239" y="969"/>
      <point x="192" y="822" type="qcurve"/>
      <point x="370" y="793" type="line"/>
      <point x="399" y="881"/>
      <point x="526" y="965"/>
      <point x="650" y="965" type="qcurve" smooth="yes"/>
      <point x="858" y="965"/>
      <point x="858" y="787" type="qcurve" smooth="yes"/>
      <point x="858" y="758"/>
      <point x="839" y="660" type="qcurve"/>
      <point x="601" y="657" type="line" smooth="yes"/>
      <point x="303" y="652"/>
      <point x="32" y="463"/>
      <point x="32" y="278" type="qcurve" smooth="yes"/>
      <point x="32" y="193"/>
      <point x="109" y="56"/>
      <point x="252" y="-20"/>
      <point x="347" y="-20" type="qcurve" smooth="yes"/>
      <point x="489" y="-20"/>
      <point x="729" y="109"/>
      <point x="826" y="248" type="qcurve"/>
      <point x="861" y="120"/>
      <point x="1051" y="-20"/>
      <point x="1202" y="-20" type="qcurve" smooth="yes"/>
      <point x="1351" y="-20"/>
      <point x="1563" y="99"/>
      <point x="1634" y="231" type="qcurve"/>
      <point x="1496" y="294" type="line"/>
      <point x="1452" y="206"/>
      <point x="1311" y="115"/>
      <point x="1224" y="115" type="qcurve" smooth="yes"/>
      <point x="1103" y="115"/>
      <point x="980" y="257"/>
      <point x="980" y="390" type="qcurve" smooth="yes"/>
      <point x="983" y="468"/>
    </contour>
    <contour>
      <point x="814" y="534" type="line"/>
      <point x="797" y="445" type="line" smooth="yes"/>
      <point x="781" y="359"/>
      <point x="666" y="206"/>
      <point x="495" y="117"/>
      <point x="394" y="117" type="qcurve" smooth="yes"/>
      <point x="316" y="117"/>
      <point x="223" y="209"/>
      <point x="223" y="286" type="qcurve" smooth="yes"/>
      <point x="223" y="365"/>
      <point x="300" y="472"/>
      <point x="461" y="526"/>
      <point x="608" y="530" type="qcurve" smooth="yes"/>
    </contour>
    <contour>
      <point x="1563" y="641" type="line"/>
      <point x="1013" y="641" type="line"/>
      <point x="1047" y="799"/>
      <point x="1215" y="969"/>
      <point x="1338" y="969" type="qcurve" smooth="yes"/>
      <point x="1449" y="969"/>
      <point x="1567" y="837"/>
      <point x="1567" y="713" type="qcurve"/>
    </contour>
  </outline>
</glyph>
<glyph name="eth" format="2">
  <advance width="1139"/>
  <unicode hex="00F0"/>
  <note>
eth
</note>
  <outline>
    <contour>
      <point x="625" y="1328" type="qcurve"/>
      <point x="446" y="1256" type="line"/>
      <point x="425" y="1136" type="line"/>
      <point x="698" y="1249" type="line"/>
      <point x="756" y="1183"/>
      <point x="845" y="987"/>
      <point x="864" y="874" type="qcurve"/>
      <point x="829" y="920"/>
      <point x="684" y="979"/>
      <point x="605" y="979" type="qcurve" smooth="yes"/>
      <point x="432" y="979"/>
      <point x="196" y="838"/>
      <point x="67" y="563"/>
      <point x="67" y="403" type="qcurve" smooth="yes"/>
      <point x="67" y="211"/>
      <point x="292" y="-15"/>
      <point x="491" y="-15" type="qcurve" smooth="yes"/>
      <point x="685" y="-15"/>
      <point x="925" y="156"/>
      <point x="1054" y="518"/>
      <point x="1054" y="728" type="qcurve" smooth="yes"/>
      <point x="1054" y="892"/>
      <point x="954" y="1170"/>
      <point x="837" y="1309" type="qcurve"/>
      <point x="1006" y="1376" type="line"/>
      <point x="1025" y="1484" type="line"/>
      <point x="762" y="1382" type="line"/>
      <point x="683" y="1445"/>
      <point x="606" y="1484" type="qcurve"/>
      <point x="430" y="1484" type="line"/>
      <point x="529" y="1418"/>
    </contour>
    <contour>
      <point x="603" y="846" type="qcurve" smooth="yes"/>
      <point x="676" y="846"/>
      <point x="794" y="788"/>
      <point x="859" y="690"/>
      <point x="859" y="635" type="qcurve" smooth="yes"/>
      <point x="859" y="553"/>
      <point x="807" y="327"/>
      <point x="718" y="186"/>
      <point x="588" y="118"/>
      <point x="494" y="118" type="qcurve" smooth="yes"/>
      <point x="377" y="118"/>
      <point x="251" y="258"/>
      <point x="251" y="388" type="qcurve" smooth="yes"/>
      <point x="251" y="499"/>
      <point x="331" y="734"/>
      <point x="483" y="846"/>
    </contour>
  </outline>
</glyph>
<glyph name="divide" format="2">
  <advance width="1124"/>
  <unicode hex="00F7"/>
  <note>
divide
</note>
  <outline>
    <contour>
      <point x="495" y="958" type="line"/>
      <point x="663" y="958" type="line"/>
      <point x="663" y="1141" type="line"/>
      <point x="495" y="1141" type="line"/>
    </contour>
    <contour>
      <point x="82" y="608" type="line"/>
      <point x="1077" y="608" type="line"/>
      <point x="1077" y="754" type="line"/>
      <point x="82" y="754" type="line"/>
    </contour>
    <contour>
      <point x="495" y="223" type="line"/>
      <point x="663" y="223" type="line"/>
      <point x="663" y="406" type="line"/>
      <point x="495" y="406" type="line"/>
    </contour>
  </outline>
</glyph>
<glyph name="oslash" format="2">
  <advance width="1251"/>
  <unicode hex="00F8"/>
  <note>
oslash
</note>
  <outline>
    <contour>
      <point x="201" y="145" type="qcurve"/>
      <point x="44" y="-38" type="line"/>
      <point x="211" y="-38" type="line"/>
      <point x="291" y="56" type="line"/>
      <point x="395" y="-15"/>
      <point x="549" y="-15" type="qcurve" smooth="yes"/>
      <point x="996" y="-15"/>
      <point x="1106" y="467" type="qcurve" smooth="yes"/>
      <point x="1132" y="577"/>
      <point x="1132" y="683" type="qcurve" smooth="yes"/>
      <point x="1132" y="844"/>
      <point x="1058" y="947" type="qcurve"/>
      <point x="1204" y="1116" type="line"/>
      <point x="1037" y="1116" type="line"/>
      <point x="967" y="1034" type="line"/>
      <point x="862" y="1101"/>
      <point x="700" y="1101" type="qcurve" smooth="yes"/>
      <point x="517" y="1101"/>
      <point x="269" y="939"/>
      <point x="129" y="623"/>
      <point x="125" y="419" type="qcurve" smooth="yes"/>
      <point x="125" y="254"/>
    </contour>
    <contour>
      <point x="310" y="416" type="qcurve" smooth="yes"/>
      <point x="310" y="548"/>
      <point x="400" y="830"/>
      <point x="563" y="969"/>
      <point x="698" y="969" type="qcurve" smooth="yes"/>
      <point x="802" y="969"/>
      <point x="865" y="916" type="qcurve"/>
      <point x="325" y="289" type="line"/>
      <point x="310" y="343"/>
    </contour>
    <contour>
      <point x="946" y="683" type="qcurve" smooth="yes"/>
      <point x="940" y="522"/>
      <point x="851" y="251"/>
      <point x="696" y="118"/>
      <point x="560" y="118" type="qcurve" smooth="yes"/>
      <point x="455" y="118"/>
      <point x="392" y="173" type="qcurve"/>
      <point x="932" y="800" type="line"/>
      <point x="946" y="749"/>
    </contour>
  </outline>
</glyph>
<glyph name="thorn" format="2">
  <advance width="1139"/>
  <unicode hex="00FE"/>
  <note>
thorn
</note>
  <outline>
    <contour>
      <point x="554" y="-20" type="qcurve" smooth="yes"/>
      <point x="727" y="-20"/>
      <point x="950" y="164"/>
      <point x="1073" y="545"/>
      <point x="1073" y="748" type="qcurve" smooth="yes"/>
      <point x="1073" y="913"/>
      <point x="898" y="1102"/>
      <point x="741" y="1102" type="qcurve" smooth="yes"/>
      <point x="622" y="1102"/>
      <point x="460" y="1016"/>
      <point x="387" y="921" type="qcurve"/>
      <point x="383" y="921" type="line"/>
      <point x="409" y="1015"/>
      <point x="417" y="1061" type="qcurve" smooth="yes"/>
      <point x="500" y="1484" type="line"/>
      <point x="320" y="1484" type="line"/>
      <point x="-51" y="-425" type="line"/>
      <point x="128" y="-425" type="line"/>
      <point x="210" y="-2" type="line" smooth="yes"/>
      <point x="229" y="92"/>
      <point x="239" y="178" type="qcurve"/>
      <point x="244" y="178" type="line"/>
      <point x="276" y="84"/>
      <point x="431" y="-20"/>
    </contour>
    <contour>
      <point x="689" y="963" type="qcurve" smooth="yes"/>
      <point x="791" y="963"/>
      <point x="885" y="839"/>
      <point x="885" y="716" type="qcurve" smooth="yes"/>
      <point x="885" y="593"/>
      <point x="803" y="264"/>
      <point x="659" y="113"/>
      <point x="535" y="113" type="qcurve" smooth="yes"/>
      <point x="422" y="113"/>
      <point x="295" y="252"/>
      <point x="295" y="377" type="qcurve" smooth="yes"/>
      <point x="295" y="474"/>
      <point x="351" y="719"/>
      <point x="449" y="882"/>
      <point x="590" y="963"/>
    </contour>
  </outline>
</glyph>
<glyph name="dcroat" format="2">
  <advance width="1139"/>
  <unicode hex="0111"/>
  <note>
dcroat
</note>
  <outline>
    <contour>
      <point x="453" y="118" type="curve" smooth="yes"/>
      <point x="317.0" y="118"/>
      <point x="257" y="201"/>
      <point x="257" y="365" type="curve" smooth="yes"/>
      <point x="257" y="537"/>
      <point x="319.333" y="798.833"/>
      <point x="414" y="895.5" type="curve" smooth="yes"/>
      <point x="461.333" y="943.833"/>
      <point x="525.667" y="968"/>
      <point x="607" y="968" type="curve" smooth="yes"/>
      <point x="757.667" y="968"/>
      <point x="847" y="870.667"/>
      <point x="847" y="704" type="curve" smooth="yes"/>
      <point x="847" y="574.667"/>
      <point x="807.333" y="389.167"/>
      <point x="742" y="280.5" type="curve" smooth="yes"/>
      <point x="676.667" y="171.833"/>
      <point x="585" y="118"/>
    </contour>
    <contour>
      <point x="401" y="-21" type="curve" smooth="yes"/>
      <point x="560.0" y="-21.0"/>
      <point x="658" y="33"/>
      <point x="755" y="160" type="curve"/>
      <point x="759" y="160" type="line"/>
      <point x="745" y="87"/>
      <point x="738" y="34"/>
      <point x="738" y="0" type="curve"/>
      <point x="910" y="0" type="line"/>
      <point x="916" y="55"/>
      <point x="929" y="129"/>
      <point x="948" y="223" type="curve" smooth="yes"/>
      <point x="1140" y="1206" type="line"/>
      <point x="1272" y="1206" type="line"/>
      <point x="1297" y="1337" type="line"/>
      <point x="1165" y="1337" type="line"/>
      <point x="1194" y="1484" type="line"/>
      <point x="1014" y="1484" type="line"/>
      <point x="985" y="1337" type="line"/>
      <point x="685" y="1337" type="line"/>
      <point x="660" y="1206" type="line"/>
      <point x="960" y="1206" type="line"/>
      <point x="934" y="1069" type="line"/>
      <point x="924" y="1014"/>
      <point x="913" y="958"/>
      <point x="903" y="903" type="curve"/>
      <point x="898" y="903" type="line"/>
      <point x="855" y="1028"/>
      <point x="752" y="1101"/>
      <point x="588" y="1101" type="curve" smooth="yes"/>
      <point x="357" y="1101"/>
      <point x="213" y="981"/>
      <point x="131" y="727" type="curve" smooth="yes"/>
      <point x="90" y="600"/>
      <point x="69" y="468"/>
      <point x="69" y="333" type="curve" smooth="yes"/>
      <point x="69" y="113"/>
      <point x="192" y="-21"/>
    </contour>
  </outline>
</glyph>
<glyph name="Hbar" format="2">
  <advance width="1479"/>
  <unicode hex="0126"/>
  <note>
Hbar
</note>
  <anchor x="840" y="1540" name="top"/>
  <anchor x="1400" y="1540" name="caronalt"/>
  <anchor x="630" y="-130" name="bottom"/>
  <anchor x="1479" y="1540" name="topdouble"/>
  <anchor x="1479" y="-380" name="bottomdouble"/>
  <anchor x="1479" y="1840" name="tophalfright"/>
  <anchor x="0" y="1840" name="tophalfleft"/>
  <anchor x="1150" y="0" name="ogonek"/>
  <outline>
    <contour>
      <point x="379" y="653" type="line"/>
      <point x="1146" y="653" type="line"/>
      <point x="1020" y="0" type="line"/>
      <point x="1206" y="0" type="line"/>
      <point x="1405" y="1025" type="line"/>
      <point x="1558" y="1025" type="line"/>
      <point x="1588" y="1179" type="line"/>
      <point x="1435" y="1179" type="line"/>
      <point x="1479" y="1409" type="line"/>
      <point x="1293" y="1409" type="line"/>
      <point x="1249" y="1179" type="line"/>
      <point x="482" y="1179" type="line"/>
      <point x="526" y="1409" type="line"/>
      <point x="335" y="1409" type="line"/>
      <point x="291" y="1179" type="line"/>
      <point x="137" y="1179" type="line"/>
      <point x="107" y="1025" type="line"/>
      <point x="261" y="1025" type="line"/>
      <point x="62" y="0" type="line"/>
      <point x="253" y="0" type="line"/>
    </contour>
    <contour>
      <point x="411" y="813" type="line"/>
      <point x="452" y="1025" type="line"/>
      <point x="1219" y="1025" type="line"/>
      <point x="1178" y="813" type="line"/>
    </contour>
  </outline>
</glyph>
<glyph name="dotlessi" format="2">
  <advance width="569"/>
  <unicode hex="0131"/>
  <note>
dotlessi
</note>
  <outline>
    <contour>
      <point x="89" y="0" type="line"/>
      <point x="268" y="0" type="line"/>
      <point x="479" y="1082" type="line"/>
      <point x="299" y="1082" type="line"/>
    </contour>
  </outline>
</glyph>
<glyph name="jcircumflex" format="2">
  <advance width="455"/>
  <unicode hex="0135"/>
  <note>
jcircumflex
</note>
  <outline>
    <contour>
      <point x="669" y="1221" type="line"/>
      <point x="498" y="1491" type="line"/>
      <point x="294" y="1491" type="line"/>
      <point x="8" y="1221" type="line"/>
      <point x="4" y="1201" type="line"/>
      <point x="120" y="1201" type="line"/>
      <point x="385" y="1370" type="line"/>
      <point x="387" y="1370" type="line"/>
      <point x="573" y="1201" type="line"/>
      <point x="665" y="1201" type="line"/>
    </contour>
    <contour>
      <point x="-100" y="-425" type="qcurve" smooth="yes"/>
      <point x="16" y="-425"/>
      <point x="156" y="-292"/>
      <point x="187" y="-134" type="qcurve" smooth="yes"/>
      <point x="424" y="1082" type="line"/>
      <point x="244" y="1082" type="line"/>
      <point x="13" y="-107" type="line" smooth="yes"/>
      <point x="-4" y="-199"/>
      <point x="-64" y="-283"/>
      <point x="-123" y="-283" type="qcurve" smooth="yes"/>
      <point x="-154" y="-283"/>
      <point x="-206" y="-275" type="qcurve"/>
      <point x="-229" y="-411" type="line"/>
      <point x="-156" y="-425"/>
    </contour>
  </outline>
</glyph>
<glyph name="kgreenlandic" format="2">
  <advance width="1024"/>
  <unicode hex="0138"/>
  <note>
kgreenlandic
</note>
  <anchor x="600" y="1200" name="gpos_18_mark_to_base__MARKCLASS_0_lookup_18"/>
  <anchor x="1060" y="1260" name="gpos_18_mark_to_base__MARKCLASS_1_lookup_18"/>
  <anchor x="440" y="-130" name="gpos_18_mark_to_base__MARKCLASS_2_lookup_18"/>
  <anchor x="1024" y="1540" name="gpos_22_mark_to_base__MARKCLASS_0_lookup_22"/>
  <anchor x="1024" y="-380" name="gpos_22_mark_to_base__MARKCLASS_1_lookup_22"/>
  <anchor x="1024" y="1840" name="gpos_23_mark_to_base__MARKCLASS_0_lookup_23"/>
  <anchor x="0" y="1840" name="gpos_23_mark_to_base__MARKCLASS_1_lookup_23"/>
  <anchor x="830" y="0" name="gpos_24_mark_to_base__MARKCLASS_0_lookup_24"/>
  <outline>
    <contour>
      <point x="285" y="378" type="line"/>
      <point x="453" y="502" type="line"/>
      <point x="721" y="0" type="line"/>
      <point x="916" y="0" type="line"/>
      <point x="580" y="617" type="line"/>
      <point x="1110" y="1082" type="line"/>
      <point x="888" y="1082" type="line"/>
      <point x="527" y="757" type="line"/>
      <point x="323" y="567" type="line"/>
      <point x="424" y="1082" type="line"/>
      <point x="244" y="1082" type="line"/>
      <point x="34" y="0" type="line"/>
      <point x="213" y="0" type="line"/>
    </contour>
  </outline>
</glyph>
<glyph name="Lslash" format="2">
  <advance width="1139"/>
  <unicode hex="0141"/>
  <note>
Lslash
</note>
  <anchor x="700" y="1540" name="gpos_18_mark_to_base__MARKCLASS_0_lookup_18"/>
  <anchor x="1000" y="1540" name="gpos_18_mark_to_base__MARKCLASS_1_lookup_18"/>
  <anchor x="480" y="-130" name="gpos_18_mark_to_base__MARKCLASS_2_lookup_18"/>
  <anchor x="1139" y="1540" name="gpos_22_mark_to_base__MARKCLASS_0_lookup_22"/>
  <anchor x="1139" y="-380" name="gpos_22_mark_to_base__MARKCLASS_1_lookup_22"/>
  <anchor x="1139" y="1840" name="gpos_23_mark_to_base__MARKCLASS_0_lookup_23"/>
  <anchor x="0" y="1840" name="gpos_23_mark_to_base__MARKCLASS_1_lookup_23"/>
  <anchor x="940" y="0" name="gpos_24_mark_to_base__MARKCLASS_0_lookup_24"/>
  <outline>
    <contour>
      <point x="282" y="156" type="line"/>
      <point x="377" y="648" type="line"/>
      <point x="683" y="797" type="line"/>
      <point x="714" y="954" type="line"/>
      <point x="408" y="806" type="line"/>
      <point x="525" y="1409" type="line"/>
      <point x="334" y="1409" type="line"/>
      <point x="196" y="696" type="line"/>
      <point x="31" y="611" type="line"/>
      <point x="2" y="453" type="line"/>
      <point x="165" y="538" type="line"/>
      <point x="60" y="0" type="line"/>
      <point x="963" y="0" type="line"/>
      <point x="994" y="156" type="line"/>
    </contour>
  </outline>
</glyph>
<glyph name="lslash" format="2">
  <advance width="455"/>
  <unicode hex="0142"/>
  <note>
lslash
</note>
  <anchor x="330" y="1580" name="top"/>
  <anchor x="420" y="1540" name="caronalt"/>
  <anchor x="140" y="-130" name="bottom"/>
  <anchor x="455" y="1540" name="topdouble"/>
  <anchor x="455" y="-380" name="bottomdouble"/>
  <anchor x="455" y="1840" name="tophalfright"/>
  <anchor x="0" y="1840" name="tophalfleft"/>
  <anchor x="160" y="0" name="ogonek"/>
  <outline>
    <contour>
      <point x="337" y="646" type="line"/>
      <point x="475" y="717" type="line"/>
      <point x="506" y="876" type="line"/>
      <point x="368" y="804" type="line"/>
      <point x="500" y="1484" type="line"/>
      <point x="320" y="1484" type="line"/>
      <point x="167" y="700" type="line"/>
      <point x="33" y="632" type="line"/>
      <point x="2" y="474" type="line"/>
      <point x="137" y="542" type="line"/>
      <point x="32" y="0" type="line"/>
      <point x="211" y="0" type="line"/>
    </contour>
  </outline>
</glyph>
<glyph name="Eng" format="2">
  <advance width="1481"/>
  <unicode hex="014A"/>
  <note>
Eng
</note>
  <outline>
    <contour>
      <point x="852" y="-20" type="qcurve" smooth="yes"/>
      <point x="990" y="-20"/>
      <point x="1163" y="75"/>
      <point x="1269" y="276"/>
      <point x="1321" y="542" type="qcurve" smooth="yes"/>
      <point x="1391" y="904" type="line" smooth="yes"/>
      <point x="1408" y="995"/>
      <point x="1408" y="1072" type="qcurve" smooth="yes"/>
      <point x="1408" y="1429"/>
      <point x="997" y="1429" type="qcurve" smooth="yes"/>
      <point x="840" y="1429"/>
      <point x="576" y="1291"/>
      <point x="479" y="1158" type="qcurve"/>
      <point x="475" y="1158" type="line"/>
      <point x="504" y="1318"/>
      <point x="516" y="1409" type="qcurve"/>
      <point x="332" y="1409" type="line"/>
      <point x="275" y="1092" type="line"/>
      <point x="63" y="0" type="line"/>
      <point x="254" y="0" type="line"/>
      <point x="427" y="891" type="line" smooth="yes"/>
      <point x="447" y="992"/>
      <point x="600" y="1169"/>
      <point x="826" y="1274"/>
      <point x="945" y="1274" type="qcurve" smooth="yes"/>
      <point x="1219" y="1274"/>
      <point x="1219" y="1048" type="qcurve" smooth="yes"/>
      <point x="1219" y="994"/>
      <point x="1205" y="924" type="qcurve" smooth="yes"/>
      <point x="1132" y="546" type="line" smooth="yes"/>
      <point x="1095" y="360"/>
      <point x="1030" y="204"/>
      <point x="936" y="133"/>
      <point x="864" y="133" type="qcurve" smooth="yes"/>
      <point x="810" y="133"/>
      <point x="715" y="195"/>
      <point x="681" y="243" type="qcurve"/>
      <point x="540" y="135" type="line"/>
      <point x="584" y="67"/>
      <point x="741" y="-20"/>
    </contour>
  </outline>
</glyph>
<glyph name="eng" format="2">
  <advance width="1139"/>
  <unicode hex="014B"/>
  <note>
eng
</note>
  <outline>
    <contour>
      <point x="584" y="-425" type="qcurve" smooth="yes"/>
      <point x="700" y="-425"/>
      <point x="840" y="-292"/>
      <point x="871" y="-134" type="qcurve" smooth="yes"/>
      <point x="1025" y="653" type="line" smooth="yes"/>
      <point x="1046" y="753"/>
      <point x="1046" y="817" type="qcurve" smooth="yes"/>
      <point x="1046" y="955"/>
      <point x="897" y="1101"/>
      <point x="749" y="1101" type="qcurve" smooth="yes"/>
      <point x="634" y="1101"/>
      <point x="467" y="1012"/>
      <point x="384" y="897" type="qcurve"/>
      <point x="381" y="897" type="line"/>
      <point x="388" y="938"/>
      <point x="409" y="1071"/>
      <point x="409" y="1082" type="qcurve"/>
      <point x="239" y="1082" type="line"/>
      <point x="220" y="946"/>
      <point x="200" y="851" type="qcurve" smooth="yes"/>
      <point x="34" y="0" type="line"/>
      <point x="214" y="0" type="line"/>
      <point x="332" y="606" type="line" smooth="yes"/>
      <point x="364" y="770"/>
      <point x="556" y="962"/>
      <point x="682" y="962" type="qcurve" smooth="yes"/>
      <point x="861" y="962"/>
      <point x="861" y="795" type="qcurve" smooth="yes"/>
      <point x="861" y="733"/>
      <point x="843" y="645" type="qcurve" smooth="yes"/>
      <point x="697" y="-107" type="line" smooth="yes"/>
      <point x="680" y="-199"/>
      <point x="620" y="-283"/>
      <point x="561" y="-283" type="qcurve" smooth="yes"/>
      <point x="530" y="-283"/>
      <point x="478" y="-275" type="qcurve"/>
      <point x="455" y="-411" type="line"/>
      <point x="528" y="-425"/>
    </contour>
  </outline>
</glyph>
<glyph name="OE" format="2">
  <advance width="2048"/>
  <unicode hex="0152"/>
  <note>
OE
</note>
  <outline>
    <contour>
      <point x="893" y="0" type="curve"/>
      <point x="893" y="0" type="line"/>
      <point x="1835" y="0" type="line"/>
      <point x="1865" y="156" type="line"/>
      <point x="1114" y="156" type="line"/>
      <point x="1209" y="647" type="line"/>
      <point x="1859" y="647" type="line"/>
      <point x="1889" y="801" type="line"/>
      <point x="1239" y="801" type="line"/>
      <point x="1327" y="1253" type="line"/>
      <point x="2037" y="1253" type="line"/>
      <point x="2067" y="1409" type="line"/>
      <point x="1194" y="1409" type="line"/>
      <point x="1116" y="1414" type="line" smooth="yes"/>
      <point x="1047" y="1418"/>
      <point x="983" y="1420"/>
      <point x="925" y="1420" type="curve" smooth="yes"/>
      <point x="610" y="1420"/>
      <point x="350" y="1273"/>
      <point x="208" y="1014" type="curve" smooth="yes"/>
      <point x="137" y="884"/>
      <point x="101" y="737"/>
      <point x="101" y="573" type="curve" smooth="yes"/>
      <point x="101" y="212"/>
      <point x="326" y="-10"/>
      <point x="702" y="-10" type="curve" smooth="yes"/>
      <point x="779" y="-10"/>
      <point x="842" y="-7"/>
    </contour>
    <contour>
      <point x="712" y="145" type="curve"/>
      <point x="712" y="145" type="line"/>
      <point x="444" y="145"/>
      <point x="292" y="292.333"/>
      <point x="292" y="563" type="curve" smooth="yes"/>
      <point x="292" y="817.667"/>
      <point x="394.5" y="1065.333"/>
      <point x="580.5" y="1180" type="curve" smooth="yes"/>
      <point x="673.5" y="1237.333"/>
      <point x="785" y="1266"/>
      <point x="915" y="1266" type="curve" smooth="yes"/>
      <point x="1006.333" y="1266"/>
      <point x="1080" y="1262.333"/>
      <point x="1136" y="1255" type="curve"/>
      <point x="923" y="156" type="line"/>
      <point x="868.333" y="148.667"/>
      <point x="798" y="145"/>
    </contour>
  </outline>
</glyph>
<glyph name="oe" format="2">
  <advance width="1933"/>
  <unicode hex="0153"/>
  <note>
oe
</note>
  <outline>
    <contour>
      <point x="1055" y="503" type="qcurve"/>
      <point x="1833" y="503" type="line"/>
      <point x="1857" y="603"/>
      <point x="1857" y="708" type="qcurve" smooth="yes"/>
      <point x="1857" y="896"/>
      <point x="1631" y="1102"/>
      <point x="1427" y="1102" type="qcurve" smooth="yes"/>
      <point x="1306" y="1102"/>
      <point x="1100" y="1002"/>
      <point x="1024" y="909" type="qcurve"/>
      <point x="923" y="1101"/>
      <point x="642" y="1101" type="qcurve" smooth="yes"/>
      <point x="460" y="1101"/>
      <point x="212" y="938"/>
      <point x="73" y="621"/>
      <point x="69" y="419" type="qcurve" smooth="yes"/>
      <point x="69" y="217"/>
      <point x="292" y="-15"/>
      <point x="491" y="-15" type="qcurve" smooth="yes"/>
      <point x="770" y="-15"/>
      <point x="917" y="173" type="qcurve"/>
      <point x="1022" y="-20"/>
      <point x="1290" y="-20" type="qcurve" smooth="yes"/>
      <point x="1447" y="-20"/>
      <point x="1671" y="98"/>
      <point x="1745" y="231" type="qcurve"/>
      <point x="1607" y="294" type="line"/>
      <point x="1562" y="209"/>
      <point x="1407" y="115"/>
      <point x="1311" y="115" type="qcurve" smooth="yes"/>
      <point x="1177" y="115"/>
      <point x="1044" y="257"/>
      <point x="1044" y="390" type="qcurve" smooth="yes"/>
      <point x="1044" y="452"/>
    </contour>
    <contour>
      <point x="888" y="683" type="qcurve"/>
      <point x="882" y="522"/>
      <point x="793" y="251"/>
      <point x="638" y="118"/>
      <point x="502" y="118" type="qcurve" smooth="yes"/>
      <point x="254" y="118"/>
      <point x="254" y="416" type="qcurve" smooth="yes"/>
      <point x="254" y="546"/>
      <point x="343" y="828"/>
      <point x="505" y="969"/>
      <point x="640" y="969" type="qcurve" smooth="yes"/>
      <point x="888" y="969"/>
    </contour>
    <contour>
      <point x="1674" y="641" type="line"/>
      <point x="1077" y="641" type="line"/>
      <point x="1114" y="798"/>
      <point x="1297" y="969"/>
      <point x="1431" y="969" type="qcurve" smooth="yes"/>
      <point x="1553" y="969"/>
      <point x="1678" y="837"/>
      <point x="1678" y="713" type="qcurve"/>
    </contour>
  </outline>
</glyph>
<glyph name="Tbar" format="2">
  <advance width="1251"/>
  <unicode hex="0166"/>
  <note>
Tbar
</note>
  <anchor x="700" y="1540" name="gpos_18_mark_to_base__MARKCLASS_0_lookup_18"/>
  <anchor x="1300" y="1540" name="gpos_18_mark_to_base__MARKCLASS_1_lookup_18"/>
  <anchor x="520" y="-130" name="gpos_18_mark_to_base__MARKCLASS_2_lookup_18"/>
  <anchor x="1251" y="1540" name="gpos_22_mark_to_base__MARKCLASS_0_lookup_22"/>
  <anchor x="1251" y="-380" name="gpos_22_mark_to_base__MARKCLASS_1_lookup_22"/>
  <anchor x="1251" y="1840" name="gpos_23_mark_to_base__MARKCLASS_0_lookup_23"/>
  <anchor x="0" y="1840" name="gpos_23_mark_to_base__MARKCLASS_1_lookup_23"/>
  <anchor x="550" y="0" name="gpos_24_mark_to_base__MARKCLASS_0_lookup_24"/>
  <outline>
    <contour>
      <point x="740" y="647" type="line"/>
      <point x="1021" y="647" type="line"/>
      <point x="1051" y="801" type="line"/>
      <point x="770" y="801" type="line"/>
      <point x="858" y="1253" type="line"/>
      <point x="1342" y="1253" type="line"/>
      <point x="1372" y="1409" type="line"/>
      <point x="214" y="1409" type="line"/>
      <point x="184" y="1253" type="line"/>
      <point x="668" y="1253" type="line"/>
      <point x="580" y="801" type="line"/>
      <point x="301" y="801" type="line"/>
      <point x="271" y="647" type="line"/>
      <point x="550" y="647" type="line"/>
      <point x="425" y="0" type="line"/>
      <point x="615" y="0" type="line"/>
    </contour>
  </outline>
</glyph>
<glyph name="longs" format="2">
  <advance width="455"/>
  <unicode hex="017F"/>
  <note>
longs
</note>
  <anchor x="440" y="1580" name="gpos_18_mark_to_base__MARKCLASS_0_lookup_18"/>
  <anchor x="660" y="1540" name="gpos_18_mark_to_base__MARKCLASS_1_lookup_18"/>
  <anchor x="130" y="-130" name="gpos_18_mark_to_base__MARKCLASS_2_lookup_18"/>
  <anchor x="455" y="1540" name="gpos_22_mark_to_base__MARKCLASS_0_lookup_22"/>
  <anchor x="455" y="-380" name="gpos_22_mark_to_base__MARKCLASS_1_lookup_22"/>
  <anchor x="455" y="1840" name="gpos_23_mark_to_base__MARKCLASS_0_lookup_23"/>
  <anchor x="0" y="1840" name="gpos_23_mark_to_base__MARKCLASS_1_lookup_23"/>
  <anchor x="160" y="0" name="gpos_24_mark_to_base__MARKCLASS_0_lookup_24"/>
  <outline>
    <contour>
      <point x="33" y="0" type="line"/>
      <point x="213" y="0" type="line"/>
      <point x="443" y="1179" type="line" smooth="yes"/>
      <point x="460" y="1262"/>
      <point x="476" y="1306"/>
      <point x="517" y="1329" type="curve" smooth="yes"/>
      <point x="534" y="1338"/>
      <point x="555" y="1343"/>
      <point x="582" y="1343" type="curve" smooth="yes"/>
      <point x="609" y="1343"/>
      <point x="637" y="1340"/>
      <point x="666" y="1335" type="curve"/>
      <point x="690" y="1472" type="line"/>
      <point x="658" y="1480"/>
      <point x="619" y="1484"/>
      <point x="572" y="1484" type="curve" smooth="yes"/>
      <point x="396" y="1484"/>
      <point x="306" y="1412"/>
      <point x="267" y="1204" type="curve"/>
    </contour>
  </outline>
</glyph>
<glyph name="uni0181" format="2">
  <advance width="1496"/>
  <unicode hex="0181"/>
  <note>
uni0181
</note>
  <outline>
    <contour>
      <point x="438" y="1261" type="line"/>
      <point x="193" y="0" type="line"/>
      <point x="788" y="0" type="line" smooth="yes"/>
      <point x="1065" y="0"/>
      <point x="1377" y="226"/>
      <point x="1377" y="439" type="qcurve" smooth="yes"/>
      <point x="1377" y="557"/>
      <point x="1225" y="720"/>
      <point x="1087" y="743" type="qcurve"/>
      <point x="1426" y="802"/>
      <point x="1426" y="1087" type="qcurve" smooth="yes"/>
      <point x="1426" y="1236"/>
      <point x="1185" y="1409"/>
      <point x="976" y="1409" type="qcurve" smooth="yes"/>
      <point x="436" y="1409" type="line" smooth="yes"/>
      <point x="264" y="1409"/>
      <point x="83" y="1228"/>
      <point x="83" y="1058" type="qcurve" smooth="yes"/>
      <point x="83" y="1029"/>
      <point x="91" y="1000" type="qcurve"/>
      <point x="239" y="1017" type="line"/>
      <point x="235" y="1067" type="line"/>
      <point x="235" y="1159"/>
      <point x="328" y="1261"/>
      <point x="422" y="1261" type="qcurve" smooth="yes"/>
    </contour>
    <contour>
      <point x="413" y="153" type="line"/>
      <point x="512" y="661" type="line"/>
      <point x="878" y="661" type="line" smooth="yes"/>
      <point x="1027" y="661"/>
      <point x="1186" y="549"/>
      <point x="1186" y="442" type="qcurve" smooth="yes"/>
      <point x="1186" y="300"/>
      <point x="991" y="153"/>
      <point x="781" y="153" type="qcurve" smooth="yes"/>
    </contour>
    <contour>
      <point x="541" y="810" type="line"/>
      <point x="628" y="1256" type="line"/>
      <point x="959" y="1256" type="line" smooth="yes"/>
      <point x="1227" y="1256"/>
      <point x="1227" y="1068" type="qcurve" smooth="yes"/>
      <point x="1227" y="810"/>
      <point x="872" y="810" type="qcurve" smooth="yes"/>
    </contour>
  </outline>
</glyph>
<glyph name="uni0183" format="2">
  <advance width="1139"/>
  <unicode hex="0183"/>
  <note>
uni0183
</note>
  <outline>
    <contour>
      <point x="744" y="1102" type="qcurve" smooth="yes"/>
      <point x="625" y="1102"/>
      <point x="463" y="1016"/>
      <point x="390" y="921" type="qcurve"/>
      <point x="386" y="921" type="line"/>
      <point x="403" y="972"/>
      <point x="440" y="1163"/>
      <point x="472" y="1325" type="qcurve"/>
      <point x="1036" y="1325" type="line"/>
      <point x="1067" y="1484" type="line"/>
      <point x="323" y="1484" type="line"/>
      <point x="78" y="223" type="line" smooth="yes"/>
      <point x="37" y="25"/>
      <point x="29" y="0" type="qcurve"/>
      <point x="202" y="0" type="line"/>
      <point x="240" y="152"/>
      <point x="245" y="178" type="qcurve"/>
      <point x="248" y="178" type="line"/>
      <point x="280" y="84"/>
      <point x="434" y="-20"/>
      <point x="557" y="-20" type="qcurve" smooth="yes"/>
      <point x="730" y="-20"/>
      <point x="953" y="164"/>
      <point x="1076" y="545"/>
      <point x="1076" y="748" type="qcurve" smooth="yes"/>
      <point x="1076" y="913"/>
      <point x="901" y="1102"/>
    </contour>
    <contour>
      <point x="692" y="963" type="qcurve" smooth="yes"/>
      <point x="794" y="963"/>
      <point x="888" y="839"/>
      <point x="888" y="716" type="qcurve" smooth="yes"/>
      <point x="888" y="587"/>
      <point x="802" y="258"/>
      <point x="660" y="113"/>
      <point x="538" y="113" type="qcurve" smooth="yes"/>
      <point x="425" y="113"/>
      <point x="298" y="252"/>
      <point x="298" y="377" type="qcurve" smooth="yes"/>
      <point x="298" y="474"/>
      <point x="354" y="719"/>
      <point x="452" y="882"/>
      <point x="593" y="963"/>
    </contour>
  </outline>
</glyph>
<glyph name="uni0184" format="2">
  <advance width="1333"/>
  <unicode hex="0184"/>
  <note>
uni0184
</note>
  <outline>
    <contour>
      <point x="411" y="813" type="line"/>
      <point x="526" y="1409" type="line"/>
      <point x="470" y="1409" type="line"/>
      <point x="138" y="1209" type="line"/>
      <point x="132" y="1176" type="line"/>
      <point x="258" y="1011" type="line"/>
      <point x="61" y="0" type="line"/>
      <point x="653" y="0" type="line" smooth="yes"/>
      <point x="912" y="0"/>
      <point x="1207" y="230"/>
      <point x="1207" y="437" type="qcurve" smooth="yes"/>
      <point x="1207" y="617"/>
      <point x="952" y="813"/>
      <point x="724" y="813" type="qcurve" smooth="yes"/>
    </contour>
    <contour>
      <point x="281" y="151" type="line"/>
      <point x="381" y="661" type="line"/>
      <point x="715" y="661" type="line" smooth="yes"/>
      <point x="862" y="661"/>
      <point x="1013" y="540"/>
      <point x="1013" y="427" type="qcurve" smooth="yes"/>
      <point x="1013" y="151"/>
      <point x="644" y="151" type="qcurve" smooth="yes"/>
    </contour>
  </outline>
</glyph>
<glyph name="uni0186" format="2">
  <advance width="1479"/>
  <unicode hex="0186"/>
  <note>
uni0186
</note>
  <outline>
    <contour>
      <point x="175" y="1073" type="qcurve"/>
      <point x="318" y="984" type="line"/>
      <point x="416" y="1128"/>
      <point x="672" y="1275"/>
      <point x="820" y="1275" type="qcurve" smooth="yes"/>
      <point x="1013" y="1275"/>
      <point x="1231" y="1044"/>
      <point x="1231" y="844" type="qcurve" smooth="yes"/>
      <point x="1231" y="634"/>
      <point x="1081" y="313"/>
      <point x="801" y="136"/>
      <point x="617" y="136" type="qcurve" smooth="yes"/>
      <point x="466" y="136"/>
      <point x="259" y="268"/>
      <point x="223" y="380" type="qcurve"/>
      <point x="43" y="325" type="line"/>
      <point x="91" y="161"/>
      <point x="390" y="-20"/>
      <point x="607" y="-20" type="qcurve" smooth="yes"/>
      <point x="837" y="-20"/>
      <point x="1210" y="197"/>
      <point x="1420" y="595"/>
      <point x="1420" y="841" type="qcurve" smooth="yes"/>
      <point x="1420" y="1017"/>
      <point x="1281" y="1285"/>
      <point x="1014" y="1430"/>
      <point x="833" y="1430" type="qcurve" smooth="yes"/>
      <point x="621" y="1430"/>
      <point x="301" y="1261"/>
    </contour>
  </outline>
</glyph>
<glyph name="uni0187" format="2">
  <advance width="1479"/>
  <unicode hex="0187"/>
  <note>
uni0187
</note>
  <outline>
    <contour>
      <point x="1358" y="337" type="qcurve"/>
      <point x="1215" y="426" type="line"/>
      <point x="1117" y="282"/>
      <point x="861" y="135"/>
      <point x="713" y="135" type="qcurve" smooth="yes"/>
      <point x="520" y="135"/>
      <point x="302" y="366"/>
      <point x="302" y="566" type="qcurve" smooth="yes"/>
      <point x="302" y="776"/>
      <point x="452" y="1097"/>
      <point x="732" y="1274"/>
      <point x="916" y="1274" type="qcurve" smooth="yes"/>
      <point x="1067" y="1274"/>
      <point x="1273" y="1142"/>
      <point x="1310" y="1030" type="qcurve"/>
      <point x="1490" y="1085" type="line"/>
      <point x="1528" y="1284" type="line" smooth="yes"/>
      <point x="1545" y="1376"/>
      <point x="1627" y="1462"/>
      <point x="1695" y="1462" type="qcurve" smooth="yes"/>
      <point x="1736" y="1462"/>
      <point x="1781" y="1444" type="qcurve"/>
      <point x="1810" y="1595" type="line"/>
      <point x="1755" y="1616"/>
      <point x="1691" y="1616" type="qcurve" smooth="yes"/>
      <point x="1566" y="1616"/>
      <point x="1405" y="1469"/>
      <point x="1374" y="1321" type="qcurve" smooth="yes"/>
      <point x="1366" y="1282" type="line"/>
      <point x="1209" y="1430"/>
      <point x="926" y="1430" type="qcurve" smooth="yes"/>
      <point x="696" y="1430"/>
      <point x="323" y="1213"/>
      <point x="113" y="815"/>
      <point x="113" y="569" type="qcurve" smooth="yes"/>
      <point x="113" y="393"/>
      <point x="252" y="125"/>
      <point x="519" y="-20"/>
      <point x="700" y="-20" type="qcurve" smooth="yes"/>
      <point x="912" y="-20"/>
      <point x="1232" y="149"/>
    </contour>
  </outline>
</glyph>
<glyph name="uni0188" format="2">
  <advance width="1024"/>
  <unicode hex="0188"/>
  <note>
uni0188
</note>
  <outline>
    <contour>
      <point x="469" y="122" type="qcurve" smooth="yes"/>
      <point x="251" y="122"/>
      <point x="251" y="389" type="qcurve" smooth="yes"/>
      <point x="251" y="532"/>
      <point x="337" y="826"/>
      <point x="493" y="961"/>
      <point x="619" y="961" type="qcurve" smooth="yes"/>
      <point x="710" y="961"/>
      <point x="818" y="856"/>
      <point x="824" y="759" type="qcurve"/>
      <point x="1001" y="784" type="line"/>
      <point x="1032" y="947" type="line" smooth="yes"/>
      <point x="1051" y="1044"/>
      <point x="1124" y="1137"/>
      <point x="1187" y="1137" type="qcurve" smooth="yes"/>
      <point x="1218" y="1137"/>
      <point x="1266" y="1117" type="qcurve"/>
      <point x="1295" y="1268" type="line"/>
      <point x="1245" y="1289"/>
      <point x="1180" y="1289" type="qcurve" smooth="yes"/>
      <point x="956" y="1289"/>
      <point x="886" y="1023" type="qcurve"/>
      <point x="788" y="1102"/>
      <point x="625" y="1102" type="qcurve" smooth="yes"/>
      <point x="451" y="1102"/>
      <point x="212" y="939"/>
      <point x="67" y="595"/>
      <point x="67" y="395" type="qcurve" smooth="yes"/>
      <point x="67" y="200"/>
      <point x="272" y="-20"/>
      <point x="465" y="-20" type="qcurve" smooth="yes"/>
      <point x="793" y="-20"/>
      <point x="914" y="303" type="qcurve"/>
      <point x="758" y="352" type="line"/>
      <point x="712" y="232"/>
      <point x="569" y="122"/>
    </contour>
  </outline>
</glyph>
<glyph name="uni018A" format="2">
  <advance width="1606"/>
  <unicode hex="018A"/>
  <note>
uni018A
</note>
  <outline>
    <contour>
      <point x="871" y="1409" type="qcurve" smooth="yes"/>
      <point x="433" y="1409" type="line" smooth="yes"/>
      <point x="261" y="1409"/>
      <point x="80" y="1228"/>
      <point x="80" y="1058" type="qcurve" smooth="yes"/>
      <point x="80" y="1029"/>
      <point x="88" y="1000" type="qcurve"/>
      <point x="236" y="1017" type="line"/>
      <point x="232" y="1067" type="line"/>
      <point x="232" y="1159"/>
      <point x="325" y="1261"/>
      <point x="419" y="1261" type="qcurve" smooth="yes"/>
      <point x="434" y="1261" type="line"/>
      <point x="190" y="0" type="line"/>
      <point x="702" y="0" type="line" smooth="yes"/>
      <point x="947" y="0"/>
      <point x="1334" y="201"/>
      <point x="1540" y="555"/>
      <point x="1540" y="791" type="qcurve" smooth="yes"/>
      <point x="1540" y="1080"/>
      <point x="1183" y="1409"/>
    </contour>
    <contour>
      <point x="410" y="153" type="line"/>
      <point x="625" y="1256" type="line"/>
      <point x="867" y="1256" type="line" smooth="yes"/>
      <point x="1094" y="1256"/>
      <point x="1346" y="1012"/>
      <point x="1346" y="793" type="qcurve" smooth="yes"/>
      <point x="1346" y="599"/>
      <point x="1187" y="308"/>
      <point x="891" y="153"/>
      <point x="694" y="153" type="qcurve" smooth="yes"/>
    </contour>
  </outline>
</glyph>
<glyph name="uni018B" format="2">
  <advance width="1333"/>
  <unicode hex="018B"/>
  <note>
uni018B
</note>
  <outline>
    <contour>
      <point x="554" y="0" type="qcurve" smooth="yes"/>
      <point x="1061" y="0" type="line"/>
      <point x="1335" y="1409" type="line"/>
      <point x="384" y="1409" type="line"/>
      <point x="354" y="1253" type="line"/>
      <point x="1114" y="1253" type="line"/>
      <point x="1028" y="813" type="line"/>
      <point x="625" y="813" type="line" smooth="yes"/>
      <point x="366" y="813"/>
      <point x="71" y="583"/>
      <point x="71" y="376" type="qcurve" smooth="yes"/>
      <point x="71" y="196"/>
      <point x="326" y="0"/>
    </contour>
    <contour>
      <point x="998" y="662" type="line"/>
      <point x="907" y="152" type="line"/>
      <point x="563" y="152" type="line" smooth="yes"/>
      <point x="416" y="152"/>
      <point x="265" y="273"/>
      <point x="265" y="386" type="qcurve" smooth="yes"/>
      <point x="265" y="662"/>
      <point x="634" y="662" type="qcurve" smooth="yes"/>
    </contour>
  </outline>
</glyph>
<glyph name="uni018C" format="2">
  <advance width="1139"/>
  <unicode hex="018C"/>
  <note>
uni018C
</note>
  <outline>
    <contour>
      <point x="401" y="-21" type="qcurve" smooth="yes"/>
      <point x="519" y="-21"/>
      <point x="681" y="65"/>
      <point x="754" y="160" type="qcurve"/>
      <point x="759" y="160" type="line"/>
      <point x="738" y="51"/>
      <point x="738" y="0" type="qcurve"/>
      <point x="910" y="0" type="line"/>
      <point x="915" y="31" type="line"/>
      <point x="948" y="223" type="line"/>
      <point x="1193" y="1484" type="line"/>
      <point x="449" y="1484" type="line"/>
      <point x="418" y="1325" type="line"/>
      <point x="982" y="1325" type="line"/>
      <point x="931" y="1065" type="line"/>
      <point x="903" y="903" type="line"/>
      <point x="898" y="903" type="line"/>
      <point x="866" y="997"/>
      <point x="711" y="1101"/>
      <point x="588" y="1101" type="qcurve" smooth="yes"/>
      <point x="415" y="1101"/>
      <point x="192" y="917"/>
      <point x="69" y="536"/>
      <point x="69" y="333" type="qcurve" smooth="yes"/>
      <point x="69" y="168"/>
      <point x="244" y="-21"/>
    </contour>
    <contour>
      <point x="453" y="118" type="qcurve" smooth="yes"/>
      <point x="351" y="118"/>
      <point x="257" y="242"/>
      <point x="257" y="365" type="qcurve" smooth="yes"/>
      <point x="257" y="488"/>
      <point x="339" y="817"/>
      <point x="483" y="968"/>
      <point x="607" y="968" type="qcurve" smooth="yes"/>
      <point x="720" y="968"/>
      <point x="847" y="829"/>
      <point x="847" y="704" type="qcurve" smooth="yes"/>
      <point x="847" y="607"/>
      <point x="791" y="362"/>
      <point x="693" y="199"/>
      <point x="552" y="118"/>
    </contour>
  </outline>
</glyph>
<glyph name="uni018D" format="2">
  <advance width="1138"/>
  <unicode hex="018D"/>
  <note>
uni018D
</note>
  <outline>
    <contour>
      <point x="1074" y="683" type="qcurve" smooth="yes"/>
      <point x="1074" y="882"/>
      <point x="852" y="1101"/>
      <point x="642" y="1101" type="qcurve" smooth="yes"/>
      <point x="456" y="1101"/>
      <point x="203" y="932"/>
      <point x="67" y="605"/>
      <point x="67" y="419" type="qcurve" smooth="yes"/>
      <point x="67" y="311"/>
      <point x="137" y="133"/>
      <point x="222" y="55" type="qcurve" smooth="yes"/>
      <point x="591" y="-288" type="line"/>
      <point x="439" y="-280" type="line"/>
      <point x="73" y="-280" type="line"/>
      <point x="45" y="-425" type="line"/>
      <point x="784" y="-425" type="line"/>
      <point x="809" y="-293" type="line"/>
      <point x="519" y="-19" type="line"/>
      <point x="698" y="-13"/>
      <point x="943" y="167"/>
      <point x="1074" y="507"/>
    </contour>
    <contour>
      <point x="888" y="683" type="qcurve" smooth="yes"/>
      <point x="888" y="588"/>
      <point x="829" y="340"/>
      <point x="733" y="185"/>
      <point x="606" y="113"/>
      <point x="502" y="113" type="qcurve" smooth="yes"/>
      <point x="380" y="113"/>
      <point x="252" y="268"/>
      <point x="252" y="416" type="qcurve" smooth="yes"/>
      <point x="252" y="548"/>
      <point x="342" y="830"/>
      <point x="505" y="969"/>
      <point x="640" y="969" type="qcurve" smooth="yes"/>
      <point x="888" y="969"/>
    </contour>
  </outline>
</glyph>
<glyph name="uni018E" format="2">
  <advance width="1366"/>
  <unicode hex="018E"/>
  <note>
uni018E
</note>
  <anchor x="800" y="1540" name="gpos_18_mark_to_base__MARKCLASS_0_lookup_18"/>
  <anchor x="1260" y="1540" name="gpos_18_mark_to_base__MARKCLASS_1_lookup_18"/>
  <anchor x="540" y="-130" name="gpos_18_mark_to_base__MARKCLASS_2_lookup_18"/>
  <anchor x="1366" y="1540" name="gpos_22_mark_to_base__MARKCLASS_0_lookup_22"/>
  <anchor x="1366" y="-380" name="gpos_22_mark_to_base__MARKCLASS_1_lookup_22"/>
  <anchor x="1366" y="1840" name="gpos_23_mark_to_base__MARKCLASS_0_lookup_23"/>
  <anchor x="0" y="1840" name="gpos_23_mark_to_base__MARKCLASS_1_lookup_23"/>
  <anchor x="1000" y="0" name="gpos_24_mark_to_base__MARKCLASS_0_lookup_24"/>
  <outline>
    <contour>
      <point x="-30" y="0" type="line"/>
      <point x="1080" y="0" type="line"/>
      <point x="1379" y="1409" type="line"/>
      <point x="310" y="1409" type="line"/>
      <point x="277" y="1253" type="line"/>
      <point x="1155" y="1253" type="line"/>
      <point x="1059" y="801" type="line"/>
      <point x="241" y="801" type="line"/>
      <point x="208" y="647" type="line"/>
      <point x="1026" y="647" type="line"/>
      <point x="922" y="156" type="line"/>
      <point x="3" y="156" type="line"/>
    </contour>
  </outline>
</glyph>
<glyph name="uni018F" format="2">
  <advance width="1593"/>
  <unicode hex="018F"/>
  <unicode hex="04D8"/>
  <note>
uni018F
</note>
  <anchor x="880" y="1540" name="gpos_18_mark_to_base__MARKCLASS_0_lookup_18"/>
  <anchor x="1360" y="1540" name="gpos_18_mark_to_base__MARKCLASS_1_lookup_18"/>
  <anchor x="700" y="-130" name="gpos_18_mark_to_base__MARKCLASS_2_lookup_18"/>
  <anchor x="901" y="1540" name="gpos_19_mark_to_base__MARKCLASS_0_lookup_19"/>
  <anchor x="1541" y="1540" name="gpos_22_mark_to_base__MARKCLASS_0_lookup_22"/>
  <anchor x="1541" y="-380" name="gpos_22_mark_to_base__MARKCLASS_1_lookup_22"/>
  <anchor x="1541" y="1840" name="gpos_23_mark_to_base__MARKCLASS_0_lookup_23"/>
  <anchor x="0" y="1840" name="gpos_23_mark_to_base__MARKCLASS_1_lookup_23"/>
  <anchor x="890" y="0" name="gpos_24_mark_to_base__MARKCLASS_0_lookup_24"/>
  <outline>
    <contour>
      <point x="1316" y="810" type="curve"/>
      <point x="159" y="810" type="line"/>
      <point x="134" y="710"/>
      <point x="122" y="620"/>
      <point x="122" y="540" type="curve" smooth="yes"/>
      <point x="122" y="303"/>
      <point x="216" y="132"/>
      <point x="389" y="45" type="curve" smooth="yes"/>
      <point x="473" y="2"/>
      <point x="576" y="-20"/>
      <point x="695" y="-20" type="curve" smooth="yes"/>
      <point x="1020" y="-20"/>
      <point x="1272" y="135"/>
      <point x="1403" y="404" type="curve" smooth="yes"/>
      <point x="1468" y="538"/>
      <point x="1501" y="690"/>
      <point x="1501" y="860" type="curve" smooth="yes"/>
      <point x="1501" y="1216"/>
      <point x="1290" y="1430"/>
      <point x="937" y="1430" type="curve" smooth="yes"/>
      <point x="654" y="1430"/>
      <point x="440" y="1320"/>
      <point x="281" y="1081" type="curve"/>
      <point x="449" y="1021" type="line"/>
      <point x="537" y="1148"/>
      <point x="641" y="1224"/>
      <point x="770" y="1256" type="curve" smooth="yes"/>
      <point x="819" y="1268"/>
      <point x="871" y="1274"/>
      <point x="927" y="1274" type="curve" smooth="yes"/>
      <point x="1172" y="1274"/>
      <point x="1318" y="1121"/>
      <point x="1318" y="868" type="curve" smooth="yes"/>
      <point x="1318" y="859"/>
      <point x="1317" y="839"/>
    </contour>
    <contour>
      <point x="703" y="126" type="curve"/>
      <point x="444" y="126"/>
      <point x="300" y="272"/>
      <point x="300" y="540" type="curve" smooth="yes"/>
      <point x="300" y="577"/>
      <point x="303" y="614"/>
      <point x="309" y="652" type="curve"/>
      <point x="1292" y="652" type="line"/>
      <point x="1211" y="315"/>
      <point x="1004" y="126"/>
    </contour>
  </outline>
</glyph>
<glyph name="uni0190" format="2">
  <advance width="1257"/>
  <unicode hex="0190"/>
  <note>
uni0190
</note>
  <outline>
    <contour>
      <point x="545" y="-20" type="qcurve" smooth="yes"/>
      <point x="675" y="-20"/>
      <point x="884" y="49"/>
      <point x="1050" y="187"/>
      <point x="1135" y="318" type="qcurve"/>
      <point x="990" y="405" type="line"/>
      <point x="819" y="133"/>
      <point x="562" y="133" type="qcurve" smooth="yes"/>
      <point x="428" y="133"/>
      <point x="274" y="252"/>
      <point x="274" y="356" type="qcurve" smooth="yes"/>
      <point x="274" y="654"/>
      <point x="721" y="654" type="qcurve" smooth="yes"/>
      <point x="792" y="654" type="line"/>
      <point x="821" y="802" type="line"/>
      <point x="760" y="802" type="line" smooth="yes"/>
      <point x="597" y="802"/>
      <point x="439" y="898"/>
      <point x="439" y="997" type="qcurve" smooth="yes"/>
      <point x="439" y="1124"/>
      <point x="618" y="1274"/>
      <point x="767" y="1274" type="qcurve" smooth="yes"/>
      <point x="889" y="1274"/>
      <point x="1032" y="1168"/>
      <point x="1069" y="1037" type="qcurve"/>
      <point x="1244" y="1088" type="line"/>
      <point x="1208" y="1262"/>
      <point x="980" y="1429"/>
      <point x="780" y="1429" type="qcurve" smooth="yes"/>
      <point x="539" y="1429"/>
      <point x="248" y="1200"/>
      <point x="248" y="1009" type="qcurve" smooth="yes"/>
      <point x="248" y="907"/>
      <point x="365" y="772"/>
      <point x="473" y="744" type="qcurve"/>
      <point x="291" y="719"/>
      <point x="80" y="509"/>
      <point x="80" y="345" type="qcurve" smooth="yes"/>
      <point x="80" y="176"/>
      <point x="328" y="-20"/>
    </contour>
  </outline>
</glyph>
<glyph name="uni0191" format="2">
  <advance width="1251"/>
  <unicode hex="0191"/>
  <note>
uni0191
</note>
  <outline>
    <contour>
      <point x="497" y="1253" type="line"/>
      <point x="1317" y="1253" type="line"/>
      <point x="1347" y="1409" type="line"/>
      <point x="336" y="1409" type="line"/>
      <point x="46" y="-88" type="line" smooth="yes"/>
      <point x="28" y="-180"/>
      <point x="-53" y="-266"/>
      <point x="-120" y="-266" type="qcurve" smooth="yes"/>
      <point x="-161" y="-266"/>
      <point x="-206" y="-248" type="qcurve"/>
      <point x="-236" y="-403" type="line"/>
      <point x="-181" y="-424"/>
      <point x="-115" y="-424" type="qcurve" smooth="yes"/>
      <point x="35" y="-424"/>
      <point x="201" y="-275"/>
      <point x="229" y="-129" type="qcurve" smooth="yes"/>
      <point x="364" y="571" type="line"/>
      <point x="1160" y="571" type="line"/>
      <point x="1191" y="729" type="line"/>
      <point x="395" y="729" type="line"/>
    </contour>
  </outline>
</glyph>
<glyph name="florin" format="2">
  <advance width="1139"/>
  <unicode hex="0192"/>
  <note>
florin
</note>
  <outline>
    <contour>
      <point x="1028" y="1312" type="qcurve"/>
      <point x="1059" y="1434" type="line"/>
      <point x="989" y="1454"/>
      <point x="910" y="1454" type="qcurve" smooth="yes"/>
      <point x="777" y="1454"/>
      <point x="628" y="1327"/>
      <point x="597" y="1174" type="qcurve" smooth="yes"/>
      <point x="568" y="1022" type="line"/>
      <point x="417" y="1022" type="line"/>
      <point x="390" y="891" type="line"/>
      <point x="542" y="891" type="line"/>
      <point x="284" y="-456" type="line"/>
      <point x="464" y="-456" type="line"/>
      <point x="722" y="891" type="line"/>
      <point x="935" y="891" type="line"/>
      <point x="960" y="1022" type="line"/>
      <point x="749" y="1022" type="line"/>
      <point x="775" y="1159" type="line" smooth="yes"/>
      <point x="794" y="1253"/>
      <point x="858" y="1327"/>
      <point x="918" y="1327" type="qcurve" smooth="yes"/>
      <point x="977" y="1327"/>
    </contour>
  </outline>
</glyph>
